<?xml version="1.0" encoding="utf-8"?>
<!-- Generator: Adobe Illustrator 21.1.0, SVG Export Plug-In . SVG Version: 6.00 Build 0)  -->
<svg version="1.1" xmlns="http://www.w3.org/2000/svg" xmlns:xlink="http://www.w3.org/1999/xlink" x="0px" y="0px"
	 viewBox="0 -300.375 1169.547 1092.375" enable-background="new 0 -300.375 1169.547 1092.375" xml:space="preserve">
<g id="Gag">
	<path fill="none" stroke="#A7A5A6" stroke-width="5" stroke-miterlimit="10" d="M239.512,265.793l0.702,12.26
		c0.641,11.202-7.914,20.796-19.116,21.438l-8.216,0.47l-3.024-52.813l8.217-0.471C229.276,246.036,238.871,254.591,239.512,265.793
		z"/>
	<path fill="none" stroke="#A7A5A6" stroke-width="5" stroke-miterlimit="10" d="M345.592,259.718l0.702,12.26
		c0.641,11.202,10.236,19.757,21.438,19.116l8.216-0.471l-3.024-52.813l-8.216,0.47
		C353.506,238.921,344.951,248.516,345.592,259.718z"/>
	<path fill="#808080" stroke="#000000" stroke-width="3" stroke-miterlimit="10" d="M219.39,293.97L51,303.33
		c0.227-0.85,0.453-1.69,0.68-2.53c1.792-6.66,3.604-13.26,5.458-19.78c1.926-6.78,3.882-13.48,5.88-20.1l153.922-8.56
		L219.39,293.97z"/>
	<path fill="#808080" stroke="#000000" stroke-width="3" stroke-miterlimit="10" d="M555,275.01L369.041,285.4l-2.451-41.61
		l173.388-9.68c1.077,2.69,2.153,5.39,3.209,8.12c2.399,6.16,4.727,12.43,6.993,18.8C551.821,265.64,553.421,270.3,555,275.01z"/>
	
		<rect x="232.237" y="257.44" transform="matrix(0.9984 -0.0572 0.0572 0.9984 -14.8937 17.1543)" fill="#808080" stroke="#000000" stroke-width="3" stroke-miterlimit="10" width="120.333" height="22.947"/>
	<g>
		<g>
			
				<line fill="none" stroke="#000000" stroke-width="2" stroke-miterlimit="10" x1="232.001" y1="264.503" x2="234.496" y2="264.351"/>
			
				<line fill="none" stroke="#000000" stroke-width="2" stroke-miterlimit="10" stroke-dasharray="5.012,5.012" x1="239.499" y1="264.048" x2="347.06" y2="257.519"/>
			
				<line fill="none" stroke="#000000" stroke-width="2" stroke-miterlimit="10" x1="349.561" y1="257.367" x2="352.057" y2="257.215"/>
		</g>
	</g>
	<g>
		<g>
			
				<line fill="none" stroke="#000000" stroke-width="2" stroke-miterlimit="10" x1="232.001" y1="280.489" x2="234.496" y2="280.337"/>
			
				<line fill="none" stroke="#000000" stroke-width="2" stroke-miterlimit="10" stroke-dasharray="5.012,5.012" x1="239.499" y1="280.034" x2="347.06" y2="273.505"/>
			
				<line fill="none" stroke="#000000" stroke-width="2" stroke-miterlimit="10" x1="349.561" y1="273.353" x2="352.057" y2="273.201"/>
		</g>
	</g>
	
		<ellipse transform="matrix(0.9984 -0.0572 0.0572 0.9984 -14.8972 17.1166)" fill="#FF3939" stroke="#FF0000" stroke-width="5" stroke-miterlimit="10" cx="291.737" cy="268.951" rx="27.985" ry="27.985"/>
	
		<ellipse transform="matrix(0.9984 -0.0572 0.0572 0.9984 -15.3803 11.4845)" fill="#DBDADA" cx="193.067" cy="274.601" rx="6.895" ry="6.895"/>
	
		<ellipse transform="matrix(0.9984 -0.0572 0.0572 0.9984 -14.4217 22.654)" fill="#DBDADA" cx="388.746" cy="263.397" rx="6.895" ry="6.895"/>
	
		<ellipse transform="matrix(0.9984 -0.0572 0.0572 0.9984 -14.6863 19.557)" fill="#DBDADA" cx="334.524" cy="266.503" rx="3.709" ry="3.709"/>
	
		<ellipse transform="matrix(0.9984 -0.0572 0.0572 0.9984 -15.1151 14.6145)" fill="#DBDADA" cx="247.852" cy="271.465" rx="3.709" ry="3.709"/>
	<line fill="none" stroke="#000000" stroke-width="3" stroke-miterlimit="10" x1="65.705" y1="267.215" x2="65.705" y2="267.215"/>
	<g>
		<g>
			<line fill="none" stroke="#000000" stroke-width="2" stroke-miterlimit="10" x1="61.702" y1="265.31" x2="65.197" y2="265.129"/>
			
				<line fill="none" stroke="#000000" stroke-width="2" stroke-miterlimit="10" stroke-dasharray="7.0826,7.0826" x1="72.27" y1="264.763" x2="210.195" y2="257.616"/>
			
				<line fill="none" stroke="#000000" stroke-width="2" stroke-miterlimit="10" x1="213.732" y1="257.432" x2="217.227" y2="257.251"/>
		</g>
	</g>
	<g>
		<g>
			
				<line fill="none" stroke="#000000" stroke-width="2" stroke-miterlimit="10" x1="52.217" y1="298.809" x2="55.712" y2="298.619"/>
			
				<line fill="none" stroke="#000000" stroke-width="2" stroke-miterlimit="10" stroke-dasharray="6.9639,6.9639" x1="62.665" y1="298.242" x2="212.17" y2="290.134"/>
			
				<line fill="none" stroke="#000000" stroke-width="2" stroke-miterlimit="10" x1="215.647" y1="289.946" x2="219.142" y2="289.756"/>
		</g>
	</g>
	
		<line fill="none" stroke="#000000" stroke-width="2" stroke-miterlimit="10" stroke-dasharray="7" x1="366.876" y1="248.648" x2="542.035" y2="239.282"/>
	
		<line fill="none" stroke="#000000" stroke-width="2" stroke-miterlimit="10" stroke-dasharray="7" x1="368.812" y1="281.515" x2="553.405" y2="270.292"/>
</g>
</svg>