<?xml version="1.0" encoding="utf-8"?>
<!-- Generator: Adobe Illustrator 21.1.0, SVG Export Plug-In . SVG Version: 6.00 Build 0)  -->
<svg version="1.1" xmlns="http://www.w3.org/2000/svg" xmlns:xlink="http://www.w3.org/1999/xlink" x="0px" y="0px"
     viewBox="0 -300.375 1169.547 1092.375" enable-background="new 0 -300.375 1169.547 1092.375" xml:space="preserve">
<g id="Ebene_9">
  <path fill="#FFFFFF" stroke="#000000" stroke-width="3" stroke-miterlimit="10" d="M816.051,6.874
    c0,87.33-74.761,158.314-167.721,160.109c-28.13,52.446-86.192,88.453-153.244,88.453c-9.736,0-19.281-0.755-28.574-2.218
    c2.532,0.239,5.093,0.368,7.668,0.368c46.223,0,86.22-40.131,105.466-98.523c-0.929-0.359-1.857-0.727-2.786-1.104
    c-0.732-0.285-1.456-0.58-2.174-0.893c-0.57-0.23-1.133-0.469-1.695-0.718c-0.668-0.285-1.329-0.571-1.991-0.874
    c-1.829-0.81-3.637-1.657-5.43-2.531c-2.012-0.976-4.003-1.997-5.965-3.047c-2.504-1.344-4.966-2.743-7.386-4.197
    c-0.176-0.101-0.359-0.212-0.535-0.322c-0.816-0.497-1.618-0.994-2.427-1.5c-0.858-0.543-1.716-1.086-2.568-1.647
    c-1.688-1.095-3.348-2.228-4.987-3.378c-0.021-0.018-0.042-0.028-0.063-0.046c-0.823-0.58-1.646-1.178-2.469-1.776
    c-0.781-0.571-1.555-1.15-2.328-1.73c-0.084-0.064-0.162-0.12-0.239-0.184c-0.717-0.543-1.428-1.095-2.138-1.657
    c-0.063-0.046-0.127-0.092-0.183-0.138c-0.739-0.589-1.477-1.178-2.202-1.767c-1.47-1.197-2.919-2.421-4.347-3.682
    c-0.394-0.331-0.788-0.681-1.175-1.04c-0.563-0.488-1.118-0.994-1.674-1.509c-0.429-0.377-0.851-0.773-1.273-1.169
    c-0.373-0.35-0.753-0.7-1.119-1.059c-1.463-1.381-2.891-2.789-4.291-4.234c-0.542-0.552-1.083-1.104-1.611-1.675
    c-0.042-0.037-0.091-0.083-0.134-0.138c-0.513-0.534-1.013-1.068-1.512-1.62c-0.549-0.58-1.09-1.169-1.618-1.776
    c-0.366-0.405-0.732-0.81-1.09-1.224c-1.112-1.252-2.202-2.531-3.264-3.829c-0.295-0.359-0.591-0.718-0.879-1.077
    c-0.338-0.414-0.675-0.828-1.006-1.261c-0.31-0.386-0.619-0.773-0.928-1.178c-0.134-0.157-0.267-0.331-0.394-0.506
    c-0.38-0.488-0.76-0.976-1.132-1.473c-0.542-0.718-1.076-1.436-1.604-2.163c-0.964-1.325-1.913-2.66-2.828-4.013
    c-0.45-0.644-0.886-1.307-1.322-1.961c-0.014-0.028-0.028-0.046-0.042-0.064c-0.45-0.681-0.9-1.371-1.337-2.062
    c-0.443-0.681-0.872-1.381-1.301-2.071c-0.352-0.562-0.689-1.132-1.034-1.694c-0.162-0.276-0.331-0.552-0.492-0.828
    c-0.302-0.515-0.598-1.022-0.893-1.537c-0.443-0.755-0.872-1.519-1.294-2.283c-0.654-1.178-1.294-2.375-1.92-3.571
    c-0.225-0.442-0.457-0.884-0.682-1.325c-0.267-0.534-0.535-1.068-0.802-1.611c-0.366-0.736-0.717-1.463-1.069-2.209
    c-0.246-0.515-0.485-1.031-0.725-1.546c-0.127-0.276-0.26-0.561-0.38-0.837c-0.317-0.69-0.626-1.381-0.929-2.08
    c-0.274-0.626-0.542-1.261-0.809-1.896c-0.091-0.221-0.183-0.433-0.274-0.653c-0.274-0.663-0.542-1.316-0.802-1.979
    c-0.288-0.718-0.563-1.427-0.837-2.145v-0.009c-0.359-0.939-0.71-1.887-1.055-2.835c-0.211-0.598-0.422-1.196-0.626-1.795
    c-0.352-1.012-0.689-2.034-1.013-3.056c-0.19-0.589-0.38-1.187-0.556-1.776c-0.239-0.773-0.471-1.556-0.696-2.338
    c-0.253-0.874-0.5-1.749-0.739-2.623c-0.197-0.727-0.387-1.463-0.57-2.191c-0.204-0.801-0.401-1.602-0.591-2.411
    c-0.837-3.535-1.548-7.115-2.124-10.742c-0.091-0.561-0.176-1.123-0.26-1.694c-0.113-0.718-0.211-1.436-0.31-2.163
    c-0.063-0.506-0.134-1.013-0.19-1.519c-0.063-0.506-0.127-1.013-0.183-1.519c-0.099-0.884-0.19-1.767-0.274-2.651
    c-0.162-1.675-0.295-3.35-0.394-5.035c-0.028-0.368-0.049-0.745-0.063-1.123c-0.035-0.516-0.056-1.04-0.077-1.556
    c-0.035-0.663-0.056-1.316-0.077-1.979c-0.014-0.525-0.028-1.04-0.035-1.556c-0.014-0.442-0.021-0.874-0.021-1.316
    c-0.007-0.608-0.014-1.206-0.014-1.813c0-25.772,6.514-50.127,18.092-71.692c5.248-9.793,11.55-19.025,18.761-27.539
    c31.38-37.103,79.953-60.914,134.483-60.914C739.349-153.272,816.051-81.57,816.051,6.874z"/>
  <text transform="matrix(1 0 0 1 523.575 34.6138)" font-family="'AlwaysInMyHeart'" font-size="120px">chu</text>
  <path fill="#FF81D2" d="M751.708-4.602c-4.261,6.619-33.107,27.716-33.107,27.716S692.418,1.559,688.452-4.602
    c-9.568-14.863-8.807-31.322,1.702-36.763c8.413-4.356,20.521-0.331,29.926,9.075c9.404-9.406,21.512-13.432,29.926-9.075
    C760.515-35.924,761.276-19.465,751.708-4.602z"/>
</g>
</svg>