<svg xmlns="http://www.w3.org/2000/svg" viewBox="0 0 534.33 436.33"><title>Element 4</title><g id="Ebene_2" data-name="Ebene 2"><g id="Mask"><g id="Ebene_2-2" data-name="Ebene 2"><g id="Mr_Peen" data-name="Mr Peen"><path d="M532.29,327.55c-73.06-441.64-499.83-430.47-530,0C-2.2,391.69-2.77,419,56.87,433.72h0c65.7,10.92,403.12-23.92,429.28-32.95l.05,0C519.24,389.37,539.78,365.69,532.29,327.55Zm-427-99.39a23.29,23.29,0,1,1,23.29-23.29A23.29,23.29,0,0,1,105.26,228.16Zm297.63-17.61a23.29,23.29,0,1,1,23.29-23.29A23.29,23.29,0,0,1,402.89,210.55Z" stroke="#000" stroke-miterlimit="10"/></g></g><rect x="171.75" y="264.9" width="4.17" height="8" transform="translate(-21.45 15.15) rotate(-4.7)" fill="#bfbfbf" stroke="#7f7c7c" stroke-miterlimit="10"/><rect x="172.9" y="278.86" width="4.17" height="8" transform="translate(-22.59 15.29) rotate(-4.7)" fill="#bfbfbf" stroke="#7f7c7c" stroke-miterlimit="10"/><rect x="177.73" y="264.41" width="4.17" height="8" transform="translate(-21.39 15.64) rotate(-4.7)" fill="#bfbfbf" stroke="#7f7c7c" stroke-miterlimit="10"/><rect x="178.88" y="278.37" width="4.17" height="8" transform="translate(-22.53 15.78) rotate(-4.7)" fill="#bfbfbf" stroke="#7f7c7c" stroke-miterlimit="10"/><rect x="183.71" y="263.92" width="4.17" height="8" transform="translate(-21.33 16.13) rotate(-4.7)" fill="#bfbfbf" stroke="#7f7c7c" stroke-miterlimit="10"/><rect x="184.86" y="277.87" width="4.17" height="8" transform="translate(-22.47 16.27) rotate(-4.7)" fill="#bfbfbf" stroke="#7f7c7c" stroke-miterlimit="10"/><rect x="189.69" y="263.43" width="4.17" height="8" transform="translate(-21.27 16.61) rotate(-4.7)" fill="#bfbfbf" stroke="#7f7c7c" stroke-miterlimit="10"/><rect x="190.84" y="277.38" width="4.17" height="8" transform="translate(-22.41 16.76) rotate(-4.7)" fill="#bfbfbf" stroke="#7f7c7c" stroke-miterlimit="10"/><rect x="195.67" y="262.94" width="4.17" height="8" transform="matrix(1, -0.08, 0.08, 1, -21.21, 17.1)" fill="#bfbfbf" stroke="#7f7c7c" stroke-miterlimit="10"/><rect x="196.82" y="276.89" width="4.17" height="8" transform="translate(-22.35 17.25) rotate(-4.7)" fill="#bfbfbf" stroke="#7f7c7c" stroke-miterlimit="10"/><rect x="201.65" y="262.45" width="4.17" height="8" transform="matrix(1, -0.08, 0.08, 1, -21.15, 17.59)" fill="#bfbfbf" stroke="#7f7c7c" stroke-miterlimit="10"/><rect x="202.8" y="276.4" width="4.17" height="8" transform="translate(-22.29 17.74) rotate(-4.7)" fill="#bfbfbf" stroke="#7f7c7c" stroke-miterlimit="10"/><rect x="207.63" y="261.95" width="4.17" height="8" transform="translate(-21.09 18.08) rotate(-4.7)" fill="#bfbfbf" stroke="#7f7c7c" stroke-miterlimit="10"/><rect x="208.78" y="275.91" width="4.17" height="8" transform="translate(-22.23 18.22) rotate(-4.7)" fill="#bfbfbf" stroke="#7f7c7c" stroke-miterlimit="10"/><rect x="213.61" y="261.46" width="4.17" height="8" transform="matrix(1, -0.08, 0.08, 1, -21.03, 18.57)" fill="#bfbfbf" stroke="#7f7c7c" stroke-miterlimit="10"/><rect x="214.76" y="275.42" width="4.17" height="8" transform="translate(-22.17 18.71) rotate(-4.7)" fill="#bfbfbf" stroke="#7f7c7c" stroke-miterlimit="10"/><rect x="219.59" y="260.97" width="4.17" height="8" transform="translate(-20.97 19.05) rotate(-4.7)" fill="#bfbfbf" stroke="#7f7c7c" stroke-miterlimit="10"/><rect x="220.74" y="274.92" width="4.17" height="8" transform="translate(-22.11 19.2) rotate(-4.7)" fill="#bfbfbf" stroke="#7f7c7c" stroke-miterlimit="10"/><rect x="225.57" y="260.48" width="4.17" height="8" transform="translate(-20.91 19.54) rotate(-4.7)" fill="#bfbfbf" stroke="#7f7c7c" stroke-miterlimit="10"/><rect x="226.72" y="274.43" width="4.17" height="8" transform="translate(-22.05 19.69) rotate(-4.7)" fill="#bfbfbf" stroke="#7f7c7c" stroke-miterlimit="10"/><rect x="231.55" y="259.99" width="4.17" height="8" transform="matrix(1, -0.08, 0.08, 1, -20.84, 20.03)" fill="#bfbfbf" stroke="#7f7c7c" stroke-miterlimit="10"/><rect x="232.7" y="273.94" width="4.17" height="8" transform="translate(-21.98 20.17) rotate(-4.7)" fill="#bfbfbf" stroke="#7f7c7c" stroke-miterlimit="10"/><rect x="237.53" y="259.5" width="4.17" height="8" transform="translate(-20.79 20.52) rotate(-4.7)" fill="#bfbfbf" stroke="#7f7c7c" stroke-miterlimit="10"/><rect x="238.68" y="273.45" width="4.17" height="8" transform="translate(-21.92 20.66) rotate(-4.7)" fill="#bfbfbf" stroke="#7f7c7c" stroke-miterlimit="10"/><rect x="243.51" y="259" width="4.17" height="8" transform="translate(-20.72 21.01) rotate(-4.7)" fill="#bfbfbf" stroke="#7f7c7c" stroke-miterlimit="10"/><rect x="244.66" y="272.96" width="4.17" height="8" transform="translate(-21.86 21.15) rotate(-4.7)" fill="#bfbfbf" stroke="#7f7c7c" stroke-miterlimit="10"/><rect x="249.49" y="258.51" width="4.17" height="8" transform="translate(-20.66 21.49) rotate(-4.7)" fill="#bfbfbf" stroke="#7f7c7c" stroke-miterlimit="10"/><rect x="250.64" y="272.47" width="4.17" height="8" transform="translate(-21.8 21.64) rotate(-4.7)" fill="#bfbfbf" stroke="#7f7c7c" stroke-miterlimit="10"/><rect x="255.47" y="258.02" width="4.17" height="8" transform="matrix(1, -0.08, 0.08, 1, -20.6, 21.98)" fill="#bfbfbf" stroke="#7f7c7c" stroke-miterlimit="10"/><rect x="256.62" y="271.97" width="4.17" height="8" transform="translate(-21.74 22.13) rotate(-4.7)" fill="#bfbfbf" stroke="#7f7c7c" stroke-miterlimit="10"/><rect x="261.45" y="257.53" width="4.17" height="8" transform="matrix(1, -0.08, 0.08, 1, -20.54, 22.47)" fill="#bfbfbf" stroke="#7f7c7c" stroke-miterlimit="10"/><rect x="262.6" y="271.48" width="4.17" height="8" transform="matrix(1, -0.08, 0.08, 1, -21.68, 22.61)" fill="#bfbfbf" stroke="#7f7c7c" stroke-miterlimit="10"/><rect x="267.43" y="257.04" width="4.17" height="8" transform="matrix(1, -0.08, 0.08, 1, -20.48, 22.96)" fill="#bfbfbf" stroke="#7f7c7c" stroke-miterlimit="10"/><rect x="268.58" y="270.99" width="4.17" height="8" transform="translate(-21.62 23.1) rotate(-4.7)" fill="#bfbfbf" stroke="#7f7c7c" stroke-miterlimit="10"/><rect x="273.41" y="256.55" width="4.17" height="8" transform="translate(-20.42 23.45) rotate(-4.7)" fill="#bfbfbf" stroke="#7f7c7c" stroke-miterlimit="10"/><rect x="274.56" y="270.5" width="4.17" height="8" transform="translate(-21.56 23.59) rotate(-4.7)" fill="#bfbfbf" stroke="#7f7c7c" stroke-miterlimit="10"/><rect x="279.39" y="256.05" width="4.17" height="8" transform="translate(-20.36 23.94) rotate(-4.7)" fill="#bfbfbf" stroke="#7f7c7c" stroke-miterlimit="10"/><rect x="280.54" y="270.01" width="4.17" height="8" transform="translate(-21.5 24.08) rotate(-4.7)" fill="#bfbfbf" stroke="#7f7c7c" stroke-miterlimit="10"/><rect x="285.37" y="255.56" width="4.17" height="8" transform="translate(-20.3 24.43) rotate(-4.7)" fill="#bfbfbf" stroke="#7f7c7c" stroke-miterlimit="10"/><rect x="286.52" y="269.52" width="4.17" height="8" transform="translate(-21.44 24.57) rotate(-4.7)" fill="#bfbfbf" stroke="#7f7c7c" stroke-miterlimit="10"/><rect x="291.35" y="255.07" width="4.17" height="8" transform="translate(-20.24 24.91) rotate(-4.7)" fill="#bfbfbf" stroke="#7f7c7c" stroke-miterlimit="10"/><rect x="292.5" y="269.02" width="4.17" height="8" transform="translate(-21.38 25.05) rotate(-4.7)" fill="#bfbfbf" stroke="#7f7c7c" stroke-miterlimit="10"/><rect x="297.33" y="254.58" width="4.17" height="8" transform="translate(-20.18 25.4) rotate(-4.7)" fill="#bfbfbf" stroke="#7f7c7c" stroke-miterlimit="10"/><rect x="298.48" y="268.53" width="4.17" height="8" transform="matrix(1, -0.08, 0.08, 1, -21.32, 25.54)" fill="#bfbfbf" stroke="#7f7c7c" stroke-miterlimit="10"/><rect x="303.31" y="254.09" width="4.17" height="8" transform="translate(-20.12 25.89) rotate(-4.7)" fill="#bfbfbf" stroke="#7f7c7c" stroke-miterlimit="10"/><rect x="304.46" y="268.04" width="4.17" height="8" transform="translate(-21.26 26.03) rotate(-4.7)" fill="#bfbfbf" stroke="#7f7c7c" stroke-miterlimit="10"/><rect x="309.29" y="253.6" width="4.17" height="8" transform="translate(-20.06 26.38) rotate(-4.7)" fill="#bfbfbf" stroke="#7f7c7c" stroke-miterlimit="10"/><rect x="310.44" y="267.55" width="4.17" height="8" transform="translate(-21.2 26.52) rotate(-4.7)" fill="#bfbfbf" stroke="#7f7c7c" stroke-miterlimit="10"/><rect x="315.27" y="253.1" width="4.17" height="8" transform="translate(-20 26.87) rotate(-4.7)" fill="#bfbfbf" stroke="#7f7c7c" stroke-miterlimit="10"/><rect x="316.42" y="267.06" width="4.17" height="8" transform="translate(-21.14 27.01) rotate(-4.7)" fill="#bfbfbf" stroke="#7f7c7c" stroke-miterlimit="10"/><rect x="321.25" y="252.61" width="4.17" height="8" transform="matrix(1, -0.08, 0.08, 1, -19.94, 27.36)" fill="#bfbfbf" stroke="#7f7c7c" stroke-miterlimit="10"/><rect x="322.4" y="266.57" width="4.17" height="8" transform="translate(-21.08 27.5) rotate(-4.7)" fill="#bfbfbf" stroke="#7f7c7c" stroke-miterlimit="10"/><rect x="327.23" y="252.12" width="4.17" height="8" transform="matrix(1, -0.08, 0.08, 1, -19.88, 27.84)" fill="#bfbfbf" stroke="#7f7c7c" stroke-miterlimit="10"/><rect x="328.38" y="266.07" width="4.17" height="8" transform="matrix(1, -0.08, 0.08, 1, -21.02, 27.99)" fill="#bfbfbf" stroke="#7f7c7c" stroke-miterlimit="10"/><rect x="333.21" y="251.63" width="4.17" height="8" transform="matrix(1, -0.08, 0.08, 1, -19.82, 28.33)" fill="#bfbfbf" stroke="#7f7c7c" stroke-miterlimit="10"/><rect x="334.36" y="265.58" width="4.17" height="8" transform="translate(-20.96 28.47) rotate(-4.7)" fill="#bfbfbf" stroke="#7f7c7c" stroke-miterlimit="10"/><rect x="172.06" y="268.37" width="163.04" height="2" transform="translate(-21.22 21.69) rotate(-4.7)" fill="#bfbfbf" stroke="#7f7c7c" stroke-miterlimit="10"/><rect x="172.06" y="268.24" width="166.17" height="2" transform="translate(-21.21 21.81) rotate(-4.7)" fill="#bfbfbf" stroke="#7f7c7c" stroke-miterlimit="10"/><rect x="162.98" y="265.53" width="7" height="22" transform="translate(-22.1 14.57) rotate(-4.7)" fill="#bfbfbf" stroke="#7f7c7c" stroke-miterlimit="10"/><path d="M358.09,260.78h0a10.13,10.13,0,0,1,0,1.67,10.7,10.7,0,0,1-1.45,4.72,2.6,2.6,0,0,1-2.45-1.43,2.52,2.52,0,0,1-.27-1.38,3.2,3.2,0,0,0,2.69-2.42,3,3,0,0,0,.09-1.05c0-.11,0-.23,0-.34a3.24,3.24,0,1,0-4.22,3.68,4.2,4.2,0,0,0,.22,2l.2.47,1.61,3.17a10.94,10.94,0,0,1-6.43,2.77l-.5,0h0l-7,.57-1.8-21.93,7-.57h0l.5-.05A11,11,0,0,1,358.09,260.78Z" fill="#bfbfbf" stroke="#7f7c7c" stroke-miterlimit="10"/><path d="M373.2,288.07l-7.58,3.84-11.15-22-1.61-3.17-.2-.47a4.2,4.2,0,0,1-.22-2,4.24,4.24,0,0,1,2.29-3.24,4,4,0,0,1,1.93-.44c0,.11,0,.23,0,.34a3,3,0,0,1-.09,1.05,2.63,2.63,0,0,0-2.69,2.42,2.52,2.52,0,0,0,.27,1.38,2.6,2.6,0,0,0,2.45,1.43,2.47,2.47,0,0,0,1.07-.28,2.6,2.6,0,0,0,1.16-3.52,2.55,2.55,0,0,0-.78-.93,10.13,10.13,0,0,0,0-1.67,4.18,4.18,0,0,1,2.1,1.64c.09.14.17.29.26.44Z" fill="#bfbfbf" stroke="#7f7c7c" stroke-miterlimit="10"/><path d="M514.59,313.42a81.5,81.5,0,0,1-104.11,78.26q4.09.38,8.29.38a91.58,91.58,0,0,0,89.78-109.45A80.92,80.92,0,0,1,514.59,313.42Z" fill="#fff"/><path d="M229.79,26.55c97.67-20.83,192.58,36.11,212,127.16a157.31,157.31,0,0,1,2.83,47.35q-1-8.46-2.75-17C420,81.78,313.39,17.78,203.63,41.19A216.42,216.42,0,0,0,165.51,53,191,191,0,0,1,229.79,26.55Z" fill="#fff"/></g></g></svg>