<svg xmlns="http://www.w3.org/2000/svg" viewBox="0 0 253.8 167.66"><title>Element 10</title><g id="Ebene_2" data-name="Ebene 2"><g id="Realistic_Dildo" data-name="Realistic Dildo"><path d="M2.74,97.14l9.58,35.48c23.15,60.44,113.59,33.22,65.42-34.16,17.68-12.41,41.65-21.41,67.93-29.17,37.45-1.2,72.47-12.18,89.44-23.22C262.6,40,259,3.51,210.51,4.63c-9.5,1-19.53-10.45-23,5.06C183,1.2,74.9,31.48,17.65,62.11,1.62,68.76-.38,81.79,2.74,97.14Z" fill="#c0a58d" stroke="#b5917c" stroke-miterlimit="10" stroke-width="3"/><path d="M77.74,98.46Q62,83.76,46.2,84" fill="#c0a58d" stroke="#b5917c" stroke-miterlimit="10" stroke-width="3"/><path d="M235.11,46.07c-21.2-2.88-36.78-15.51-47.59-36.38" fill="#c0a58d" stroke="#b5917c" stroke-miterlimit="10" stroke-width="3"/></g></g></svg>