<svg xmlns="http://www.w3.org/2000/svg" viewBox="0 0 365.61 76.97"><title>Element 11</title><g id="Ebene_2" data-name="Ebene 2"><g id="Eyeshadow"><circle cx="336.36" cy="29.25" r="29.25" fill="#c2c0f1"/><circle cx="29.25" cy="47.72" r="29.25" fill="#c2c0f1"/><path d="M20.74,69.26s0,0,0,0" fill="none" stroke="#000" stroke-miterlimit="10"/><path d="M37.86,75.27h0" fill="none" stroke="#000" stroke-miterlimit="10"/><line x1="31.2" y1="40.69" x2="31.19" y2="40.69" fill="none" stroke="#000" stroke-miterlimit="10"/><path d="M34.3,40.77A17.61,17.61,0,1,1,16.68,58.38,17.61,17.61,0,0,1,34.3,40.77Z"/><path d="M38.75,45.72a3.5,3.5,0,1,1-3.5,3.5A3.5,3.5,0,0,1,38.75,45.72Z" fill="#fff"/><path d="M44.53,52.7a2.3,2.3,0,1,1-2.3,2.3A2.3,2.3,0,0,1,44.53,52.7Z" fill="#fff"/><path d="M331.92,23.16a17.61,17.61,0,1,1-17.61,17.61A17.6,17.6,0,0,1,331.92,23.16Z"/><path d="M336.36,28.11a3.5,3.5,0,1,1-3.5,3.5A3.5,3.5,0,0,1,336.36,28.11Z" fill="#fff"/><circle cx="342.16" cy="37.39" r="2.3" transform="translate(11.41 132.66) rotate(-22.3)" fill="#fff"/></g></g></svg>