<svg xmlns="http://www.w3.org/2000/svg" viewBox="0 0 175.78 269.53"><title>Element 16</title><g id="Ebene_2" data-name="Ebene 2"><g id="Hat"><path d="M128.61,16.61a24,24,0,0,0,7.11,26.16,23.6,23.6,0,0,0,7.66,4.4l1.05.33.08,0,1,.26,1.18.27c.37.06.74.14,1.09.18h.08c.54.08,1.08.14,1.61.18l.48,0c.63,0,1.28,0,1.91,0a24,24,0,1,0-23.22-31.88Z" fill="#fff" stroke="#e0e0e0" stroke-miterlimit="10"/><path d="M1.84,197.52a24,24,0,0,0,37.77,26.54,24,24,0,0,0,36.91,14.61A24.06,24.06,0,0,0,100,255.51h0A24.07,24.07,0,0,0,114.76,250a24,24,0,0,0,45.63,4.28c.19-.44.36-.89.52-1.35a24,24,0,0,0-4.91-24,23.64,23.64,0,0,0-9.86-6.52l-.64-.21c-.21-.06-.42-.14-.63-.19l-.45-.13-.61-.15-.07,0-.39-.09-.12,0c-.27-.06-.55-.12-.82-.16h0l-.13,0q-.5-.09-1-.15l-.42-.05-.14,0c-.32,0-.63-.06-.94-.07s-.71,0-1.06,0h-1.1c-.25,0-.51,0-.77,0a6.33,6.33,0,0,0-.76.05l-.51,0-.25,0-.76.11c-.34.05-.68.11-1,.18l-.12,0c-.38.07-.74.15-1.11.25l0,0c-.4.1-.8.22-1.19.33l-1.18.41-1.16.46h0l-1.11.52c-.37.19-.74.38-1.1.58s-.62.35-.92.54l0,0-.17.11c-.5.31-1,.65-1.47,1s-.67.51-1,.78c0-.28-.12-.54-.19-.81s-.11-.44-.17-.67v0c-.09-.32-.18-.63-.29-.95-.05-.15-.1-.31-.16-.47s-.17-.47-.26-.7a5.72,5.72,0,0,0-.24-.57.54.54,0,0,0,0-.11,7.33,7.33,0,0,0-.3-.72c-.17-.38-.36-.75-.55-1.12,0-.08-.08-.16-.13-.24-.17-.33-.35-.65-.55-1s-.4-.65-.61-1l-.24-.35c-.16-.25-.33-.48-.51-.71l-.11-.15,0,0a26.85,26.85,0,0,0-2-2.36c-.13-.13-.26-.27-.4-.4s-.42-.4-.65-.6-.32-.29-.49-.42l-.15-.13-.48-.39c-.23-.18-.47-.37-.72-.54s-.54-.41-.83-.59l-.06,0c-.35-.23-.71-.46-1.08-.67a4.91,4.91,0,0,0-.44-.25l-.46-.25-.21-.11-.94-.47h0l-1.09-.47c-.37-.15-.75-.3-1.12-.43a24,24,0,0,0-21.4,2.82,23.94,23.94,0,0,0-15-15.5l-.91-.29-.28-.09-.58-.16-.49-.11c-.26-.07-.54-.14-.81-.19l-.95-.18-.16,0h-.1l-.59-.08h0l-.5-.06c-.3,0-.58-.07-.87-.08s-.59,0-.88,0l-1,0c-.28,0-.55,0-.82,0s-.81,0-1.21.08-.59.06-.88.11a22.91,22.91,0,0,0-4,.87c-.26.08-.51.16-.77.26-.5.17-1,.37-1.51.58-.21.09-.42.17-.62.27-.68.32-1.35.66-2,1-.44.25-.86.51-1.27.78l-.29.2c-.22.14-.43.3-.66.47s-.59.44-.87.67a24,24,0,0,0-27.75-18.37,23.41,23.41,0,0,0-2.31.54A24,24,0,0,0,1.84,197.52Z" fill="#fff" stroke="#e0e0e0" stroke-miterlimit="10"/><path d="M20.18,181.81a24,24,0,0,1,27.75,18.37c.28-.23.58-.46.87-.67s.44-.33.66-.47l.29-.2c.41-.27.83-.53,1.27-.78.64-.38,1.31-.72,2-1,.2-.1.41-.18.62-.27.5-.21,1-.41,1.51-.58.26-.1.51-.18.77-.26a22.91,22.91,0,0,1,4-.87c.29,0,.58-.08.88-.11s.81-.07,1.21-.08.54,0,.82,0l1,0c.29,0,.58,0,.88,0s.57.05.87.08l.5.06h0l.59.08h.1l.16,0,.95.18c.27.05.55.12.81.19l.49.11.58.16.28.09.91.29a23.94,23.94,0,0,1,15,15.5,24,24,0,0,1,21.4-2.82c.37.13.75.28,1.12.43l1.09.47h0l.94.47.21.11.46.25a4.91,4.91,0,0,1,.44.25c.37.21.73.44,1.08.67l.06,0c.29.18.55.38.83.59s.49.36.72.54l.48.39.15.13c.17.13.34.28.49.42s.44.4.65.6.27.27.4.4a26.85,26.85,0,0,1,2,2.36l0,0,.11.15c.18.23.35.46.51.71l.24.35c.21.32.42.64.61,1s.38.64.55,1c.05.08.09.16.13.24.19.37.38.74.55,1.12a7.33,7.33,0,0,1,.3.72.54.54,0,0,1,0,.11,5.72,5.72,0,0,1,.24.57c.09.23.18.47.26.7s.11.32.16.47c.11.32.2.63.29.95v0c.06.23.12.45.17.67s.14.53.19.81c.33-.27.66-.53,1-.78s1-.69,1.47-1l.17-.11,0,0c.3-.19.61-.37.92-.54s.73-.39,1.1-.58l1.11-.52h0l1.16-.46,1.18-.41c.39-.11.79-.23,1.19-.33l0,0c.37-.1.73-.18,1.11-.25l.12,0c.33-.07.67-.13,1-.18l.76-.11.25,0,.51,0a6.33,6.33,0,0,1,.76-.05,6.51,6.51,0,0,1,.77,0h1.1c.35,0,.71,0,1.06,0s.62,0,.94.07l.14,0,.42.05q.5.06,1,.15l.13,0h0c.27,0,.55.1.82.16l.12,0,.39.09.07,0,.61.15.45.13c.21,0,.42.13.63.19l.64.21a23.64,23.64,0,0,1,9.86,6.52l-.14-6.15h0l-.65-28.09-.65-28.1-.65-28.08-.65-28.1-.65-28.08L152,54.17l-.13-5.68c-.63,0-1.28,0-1.91,0l-.48,0c-.53,0-1.07-.1-1.61-.18h-.08c-.35,0-.72-.12-1.09-.18l-1.18-.27-1-.26-.08,0-1.05-.33a23.6,23.6,0,0,1-7.66-4.4l-11.67,14L97.77,88.43,84.63,104.24,71.5,120.05,58.36,135.86h0l-13.14,15.8L32.08,167.48Z" fill="#fff" stroke="#ed1c24" stroke-miterlimit="10"/><path d="M20.18,181.81a24,24,0,0,1,27.75,18.37c.28-.23.58-.46.87-.67s.44-.33.66-.47l.3-.2c.4-.26.83-.54,1.25-.78.65-.38,1.31-.72,2-1l.62-.27c.5-.21,1-.41,1.51-.59l.77-.25a23.11,23.11,0,0,1,4-.87,6.4,6.4,0,0,1,.88-.1c.41-.05.8-.08,1.21-.09s.55,0,.82,0L32.09,167.48Z" fill="#ed1c24"/><polygon points="71.51 120.05 155.21 194.63 154.56 166.53 84.63 104.24 71.51 120.05" fill="#ed1c24"/><path d="M45.22,151.67l66.4,59.15c.37.22.73.45,1.08.68,0,0,0,0,.06,0,.29.18.55.38.84.59s.48.36.71.55.33.25.49.38l.14.13c.17.13.34.28.49.42s.44.4.65.6a5,5,0,0,1,.4.4,28.26,28.26,0,0,1,2,2.35l0,0,8,7.1c.37-.21.73-.4,1.1-.59l1.11-.52h0l1.16-.46c.39-.14.77-.28,1.18-.4s.79-.24,1.19-.34l0,0c.36-.09.73-.18,1.11-.25l.12,0c.34-.06.67-.13,1-.18l.75-.11.26,0,.5,0c.25,0,.52-.05.76-.06l.78,0h1.1a9.39,9.39,0,0,1,1.06,0c.31,0,.62,0,.94.07l.14,0,.41.05c.34,0,.67.09,1,.15l.13,0h0c.27.05.56.09.83.16l.12,0,.39.09a0,0,0,0,1,.06,0l.61.15.45.13c.21,0,.42.13.63.19s.43.14.64.21a23.81,23.81,0,0,1,9.86,6.51l-.14-6.14h0L58.37,135.87Z" fill="#ed1c24"/><polygon points="97.77 88.44 153.91 138.44 153.26 110.36 110.91 72.63 97.77 88.44" fill="#ed1c24"/><path d="M124.06,56.82l28.55,25.45L152,54.16l-7.46-6.63-.07,0-1.05-.33a23.76,23.76,0,0,1-7.66-4.39Z" fill="#ed1c24"/></g></g></svg>