<svg xmlns="http://www.w3.org/2000/svg" viewBox="0 0 650.29 1051.64"><title>Element 21</title><g id="Ebene_2" data-name="Ebene 2"><g id="Christmas_Deko" data-name="Christmas Deko"><path d="M403,1026.76q-59,42.75-117.9,0c.55-24.62,1.9-46.61,4.15-65.67,23.32-.93,47.77-22.09,67.93-64.45,10.69,25.82,25.17,42.68,40.11,50.54C401,971.9,402.82,1000.06,403,1026.76Z" fill="#9e6327" stroke="#643606" stroke-miterlimit="10" stroke-width="7"/><path d="M462.27,411.12h0a133,133,0,0,1-24-7.41C421.65,494.32,382.46,488,330,424.51c-44.68,55.11-78.09,50.56-100.51-20.81a118.64,118.64,0,0,1-12,.82c-49.58.73-70.89-33.41-16.39-62.93,41.54-29.7,74.17-79.08,99-145.71,28.69-124,58.76-121.31,90.13,0,24.14,59.12,50.87,109.17,82.61,141.74C537.66,382.21,516.87,422.13,462.27,411.12Z" fill="#72bf45" stroke="#99cf39" stroke-miterlimit="10" stroke-width="7"/><path d="M529.17,613.64c-11.8.72-26.33-2.33-42-9.76,26,84.38-17.27,106.21-66.09,55.77-8.26,66-67.67,66.91-98.39,4.65C294.85,723.78,240.78,710.77,240,629c-42,59.28-84.12,46.47-81.11-30.67a58.07,58.07,0,0,1-17.16.79c-40.11-4.12-71.64-48.58-9.13-86.3,35.48-22,65.61-54.44,84.88-108.28a118.64,118.64,0,0,0,12-.82c22.42,71.37,55.83,75.92,100.51,20.81C382.46,488,421.65,494.32,438.3,403.7a133,133,0,0,0,24,7.41h0c19.66,56.72,41.17,86.27,75.93,129.57C572.48,583.79,560.23,611.76,529.17,613.64Z" fill="#72bf45" stroke="#99cf39" stroke-miterlimit="10" stroke-width="7"/><line x1="217.5" y1="404.52" x2="217.5" y2="404.51" fill="#72bf45" stroke="#99cf39" stroke-miterlimit="10" stroke-width="7"/><path d="M562.23,839c4.51,72.44-43.56,108.74-96.89,51.12-7.94,53.46-38.87,72.39-68,57-14.94-7.86-29.42-24.72-40.11-50.54C337,939,312.58,960.16,289.26,961.09c-24.8,1-48.33-20.87-64.14-64.45-37.67,46.25-83.49,29.74-86.49-34.38-45.06,34.38-87.12,12.69-83.27-66-58.26,12.14-81.21-46.27,5.16-92,34-23.78,61.58-58.09,81.23-105.16a58.07,58.07,0,0,0,17.16-.79c-3,77.14,39.08,90,81.11,30.67.76,81.79,54.83,94.8,82.62,35.32,30.72,62.26,90.13,61.34,98.39-4.65,48.82,50.44,92.07,28.61,66.09-55.77,15.72,7.43,30.25,10.48,42,9.76,13.6,70.74,43,122.89,84.13,161.25C683.9,826,631.33,866,562.23,839Z" fill="#72bf45" stroke="#99cf39" stroke-miterlimit="10" stroke-width="7"/><line x1="529.17" y1="613.64" x2="529.17" y2="613.63" fill="#72bf45" stroke="#99cf39" stroke-miterlimit="10" stroke-width="7"/><line x1="192.91" y1="902.04" x2="192.91" y2="902.03" fill="none" stroke="#4cff1b" stroke-miterlimit="10" stroke-width="5"/><path d="M375.17,96.77c24.38,55.76,16.16,62.94-31.85,23.38-48,39.56-56.24,32.38-31.86-23.38q-94-39.27,12.23-37.63c7-35.57,13.5-53.46,19.63-55.46,6.12,2,12.65,19.89,19.62,55.46Q469.16,57.49,375.17,96.77Z" fill="#fbe209" stroke="#f9c00b" stroke-miterlimit="10" stroke-width="7"/><path d="M89,733.61a8.06,8.06,0,0,0,5.38,6.63,7.77,7.77,0,0,0,3.51.34,7.89,7.89,0,0,0,6.44-5.27,8.17,8.17,0,0,0,.38-3.73h0a4.51,4.51,0,0,1,8.8-1.86h0a4.18,4.18,0,0,1,.16.7.28.28,0,0,1,0,.09l8.83,68.22,16.87-2.18-8.83-68.31a21.47,21.47,0,0,0-1.36-5.24,21.75,21.75,0,0,0-1.42-2.91c-.29-.5-.61-1-.94-1.46a21.93,21.93,0,0,0-2.31-2.76,21.22,21.22,0,0,0-8.5-5.24,20.45,20.45,0,0,0-8.09-.91c-.3,0-.59,0-.89.09A20.76,20.76,0,0,0,92.37,719a21.14,21.14,0,0,0-2.23,4.43h0c-.18.49-.35,1-.49,1.51a21.47,21.47,0,0,0-.65,8.49A.77.77,0,0,0,89,733.61Z" fill="#fff"/><path d="M89,733.61a8.06,8.06,0,0,0,5.38,6.63,7.77,7.77,0,0,0,3.51.34,7.89,7.89,0,0,0,6.44-5.27,8.17,8.17,0,0,0,.38-3.73h0a4.51,4.51,0,0,1,8.8-1.86h0a4.18,4.18,0,0,1,.16.7.28.28,0,0,1,0,.09l8.83,68.22,16.87-2.18-8.83-68.31a21.47,21.47,0,0,0-1.36-5.24,21.75,21.75,0,0,0-1.42-2.91c-.29-.5-.61-1-.94-1.46a21.93,21.93,0,0,0-2.31-2.76,21.22,21.22,0,0,0-8.5-5.24,20.45,20.45,0,0,0-8.09-.91c-.3,0-.59,0-.89.09A20.76,20.76,0,0,0,92.37,719a21.14,21.14,0,0,0-2.23,4.43h0c-.18.49-.35,1-.49,1.51a21.47,21.47,0,0,0-.65,8.49A.77.77,0,0,0,89,733.61Z" fill="none" stroke="#ed1c24" stroke-miterlimit="10" stroke-width="2"/><path d="M90.14,723.46,116,710.63a20.45,20.45,0,0,0-8.09-.91c-.3,0-.59,0-.89.09A20.76,20.76,0,0,0,92.37,719,21.14,21.14,0,0,0,90.14,723.46Z" fill="#ed1c24"/><polygon points="114.87 739.54 116.02 748.42 132.15 740.44 131 731.56 114.87 739.54" fill="#ed1c24"/><path d="M89,733.61a8.06,8.06,0,0,0,5.38,6.63l9.95-4.93a8.17,8.17,0,0,0,.38-3.73h0a4.51,4.51,0,0,1,8.8-1.86h0a4.18,4.18,0,0,1,.16.7.28.28,0,0,1,0,.09l0,.16L129.21,723a21.75,21.75,0,0,0-1.42-2.91c-.29-.5-.61-1-.94-1.46a21.93,21.93,0,0,0-2.31-2.76L89,733.46A.77.77,0,0,0,89,733.61Z" fill="#ed1c24"/><polygon points="117.17 757.3 118.32 766.17 134.44 758.19 133.29 749.31 117.17 757.3" fill="#ed1c24"/><polygon points="121.76 792.8 122.53 798.73 131.11 797.62 139.03 793.7 137.89 784.82 121.76 792.8" fill="#ed1c24"/><polygon points="119.47 775.05 120.61 783.93 136.74 775.94 135.59 767.07 119.47 775.05" fill="#ed1c24"/><path d="M448.81,499.14a8.05,8.05,0,1,0,14.72,6.53h0a4.59,4.59,0,0,1,8.62,3h0a4.15,4.15,0,0,1-.22.68.59.59,0,0,1,0,.08L444,572.36l15.81,7,27.92-63a21,21,0,0,0,1.56-5.18,22.13,22.13,0,0,0,.28-3.23c0-.59,0-1.17-.06-1.75a21.49,21.49,0,0,0-2.62-8.8,21.27,21.27,0,0,0-9.17-8.75l-.82-.38a21.25,21.25,0,0,0-21.82,2.75h0c-.42.33-.82.67-1.22,1a21.32,21.32,0,0,0-5,6.91Z" fill="#fff"/><path d="M448.81,499.14a8.05,8.05,0,1,0,14.72,6.53h0a4.59,4.59,0,0,1,8.62,3h0a4.15,4.15,0,0,1-.22.68.59.59,0,0,1,0,.08L444,572.36l15.81,7,27.92-63a21,21,0,0,0,1.56-5.18,22.13,22.13,0,0,0,.28-3.23c0-.59,0-1.17-.06-1.75a21.49,21.49,0,0,0-2.62-8.8,21.27,21.27,0,0,0-9.17-8.75l-.82-.38a21.25,21.25,0,0,0-21.82,2.75h0c-.42.33-.82.67-1.22,1a21.32,21.32,0,0,0-5,6.91Z" fill="none" stroke="#ed1c24" stroke-miterlimit="10" stroke-width="2"/><path d="M455.08,491.06l29.2,2.67a21.09,21.09,0,0,0-6.56-5l-.82-.38a21.25,21.25,0,0,0-21.82,2.75Z" fill="#ed1c24"/><polygon points="468.2 517.8 464.57 525.98 482.75 527.65 486.38 519.47 468.2 517.8" fill="#ed1c24"/><path d="M448.81,499.14a8.06,8.06,0,0,0,1.23,8.48l11.22,1a8,8,0,0,0,2.27-3h0a4.59,4.59,0,0,1,8.62,3h0a4.15,4.15,0,0,1-.22.68.59.59,0,0,1,0,.08l-.06.15,17.46,1.6a22.13,22.13,0,0,0,.28-3.23c0-.59,0-1.17-.06-1.75a21.41,21.41,0,0,0-.57-3.57L448.87,499Z" fill="#ed1c24"/><polygon points="460.94 534.17 457.31 542.35 475.49 544.01 479.12 535.83 460.94 534.17" fill="#ed1c24"/><polygon points="446.43 566.89 444 572.36 452.04 575.92 460.98 576.74 464.6 568.56 446.43 566.89" fill="#ed1c24"/><polygon points="453.68 550.53 450.05 558.71 468.23 560.38 471.86 552.19 453.68 550.53" fill="#ed1c24"/><path d="M383.94,358.13a8,8,0,0,1,.12,3.88,8,8,0,0,1-5.71,6,8,8,0,0,1-8.1-2.32,7.94,7.94,0,0,1-1.82-3.28h0a4.59,4.59,0,0,0-9,1.76h0a4.39,4.39,0,0,0,.12.71l0,.08,18.47,66.27-16.66,4.64-18.49-66.35a21.12,21.12,0,0,1-.79-5.35,21.85,21.85,0,0,1,.19-3.24c.08-.58.19-1.15.31-1.72a22.64,22.64,0,0,1,1.08-3.45,21.2,21.2,0,0,1,2.79-4.87,21.63,21.63,0,0,1,3.12-3.3,21.2,21.2,0,0,1,7.22-4l.87-.26A21.2,21.2,0,0,1,375.09,346a21.57,21.57,0,0,1,3.82,3.19h0c.37.39.72.79,1.06,1.2A21.18,21.18,0,0,1,383.9,358,.57.57,0,0,1,383.94,358.13Z" fill="#fff"/><path d="M383.94,358.13a8,8,0,0,1,.12,3.88,8,8,0,0,1-5.71,6,8,8,0,0,1-8.1-2.32,7.94,7.94,0,0,1-1.82-3.28h0a4.59,4.59,0,0,0-9,1.76h0a4.39,4.39,0,0,0,.12.71l0,.08,18.47,66.27-16.66,4.64-18.49-66.35a21.12,21.12,0,0,1-.79-5.35,21.85,21.85,0,0,1,.19-3.24c.08-.58.19-1.15.31-1.72a22.64,22.64,0,0,1,1.08-3.45,21.2,21.2,0,0,1,2.79-4.87,21.63,21.63,0,0,1,3.12-3.3,21.2,21.2,0,0,1,7.22-4l.87-.26A21.2,21.2,0,0,1,375.09,346a21.57,21.57,0,0,1,3.82,3.19h0c.37.39.72.79,1.06,1.2A21.18,21.18,0,0,1,383.9,358,.57.57,0,0,1,383.94,358.13Z" fill="none" stroke="#ed1c24" stroke-miterlimit="10" stroke-width="2"/><path d="M378.91,349.22l-29.28-1.59a21.2,21.2,0,0,1,7.22-4l.87-.26A21.2,21.2,0,0,1,375.09,346,21.57,21.57,0,0,1,378.91,349.22Z" fill="#ed1c24"/><polygon points="362.05 373.78 364.46 382.4 346.23 381.41 343.83 372.79 362.05 373.78" fill="#ed1c24"/><path d="M383.94,358.13a8,8,0,0,1,.12,3.88,8.17,8.17,0,0,1-2.56,4.34l-11.25-.62a7.94,7.94,0,0,1-1.82-3.28h0a4.59,4.59,0,0,0-9,1.76h0a4.39,4.39,0,0,0,.12.71l0,.08,0,.16-17.51-1a21.85,21.85,0,0,1,.19-3.24c.08-.58.19-1.15.31-1.72a22.64,22.64,0,0,1,1.08-3.45L383.9,358A.57.57,0,0,1,383.94,358.13Z" fill="#ed1c24"/><polygon points="366.86 391.02 369.26 399.65 351.04 398.65 348.63 390.03 366.86 391.02" fill="#ed1c24"/><polygon points="376.47 425.51 378.07 431.27 369.61 433.63 360.65 433.14 358.24 424.52 376.47 425.51" fill="#ed1c24"/><polygon points="371.67 408.27 374.07 416.89 355.84 415.9 353.44 407.28 371.67 408.27" fill="#ed1c24"/><path d="M552.77,816.48a8.06,8.06,0,1,1-16-1.63h0a4.59,4.59,0,0,0-9-1.64h0a5.42,5.42,0,0,0-.14.7s0,.06,0,.09l-7,68.44-17.21-1.76,7-68.53a21.31,21.31,0,0,1,1.22-5.27,21.8,21.8,0,0,1,1.36-2.94c.29-.51.59-1,.92-1.49a20.45,20.45,0,0,1,2.26-2.81,21.27,21.27,0,0,1,4.38-3.53,21.28,21.28,0,0,1,12.3-3c.3,0,.6,0,.9.07A21.25,21.25,0,0,1,548.94,802a21.56,21.56,0,0,1,2.4,4.37h0q.28.74.54,1.5a21.21,21.21,0,0,1,.9,8.48S552.77,816.43,552.77,816.48Z" fill="#fff"/><path d="M552.77,816.48a8.06,8.06,0,1,1-16-1.63h0a4.59,4.59,0,0,0-9-1.64h0a5.42,5.42,0,0,0-.14.7s0,.06,0,.09l-7,68.44-17.21-1.76,7-68.53a21.31,21.31,0,0,1,1.22-5.27,21.8,21.8,0,0,1,1.36-2.94c.29-.51.59-1,.92-1.49a20.45,20.45,0,0,1,2.26-2.81,21.27,21.27,0,0,1,4.38-3.53,21.28,21.28,0,0,1,12.3-3c.3,0,.6,0,.9.07A21.25,21.25,0,0,1,548.94,802a21.56,21.56,0,0,1,2.4,4.37h0q.28.74.54,1.5a21.21,21.21,0,0,1,.9,8.48S552.77,816.43,552.77,816.48Z" fill="none" stroke="#ed1c24" stroke-miterlimit="10" stroke-width="2"/><path d="M551.34,806.36l-26.69-12.17a21,21,0,0,1,8.2-1.12c.3,0,.6,0,.9.07A21.25,21.25,0,0,1,548.94,802,21.56,21.56,0,0,1,551.34,806.36Z" fill="#ed1c24"/><polygon points="526.67 823.06 525.76 831.97 509.16 824.39 510.07 815.49 526.67 823.06" fill="#ed1c24"/><path d="M552.77,816.48a8,8,0,0,1-5.28,6.76l-10.25-4.67a8.14,8.14,0,0,1-.5-3.72h0a4.59,4.59,0,0,0-9-1.64h0a5.42,5.42,0,0,0-.14.7s0,.06,0,.09l0,.16-16-7.28a21.8,21.8,0,0,1,1.36-2.94c.29-.51.59-1,.92-1.49a20.45,20.45,0,0,1,2.26-2.81l36.61,16.7S552.77,816.43,552.77,816.48Z" fill="#ed1c24"/><polygon points="524.85 840.87 523.95 849.78 507.34 842.2 508.25 833.3 524.85 840.87" fill="#ed1c24"/><polygon points="521.22 876.49 520.61 882.43 511.86 881.54 503.7 877.82 504.61 868.91 521.22 876.49" fill="#ed1c24"/><polygon points="523.03 858.68 522.13 867.59 505.52 860.01 506.43 851.1 523.03 858.68" fill="#ed1c24"/><path d="M331.15,865.58l-6.24,18.31c-.9-.07-1.92-.18-3-.33a182.91,182.91,0,0,1-22.13-4.83A190.47,190.47,0,0,1,279,871.9a39.07,39.07,0,0,1-5.61-2.72l7.12-20.87c.46-1.35,1-2.67,1.5-3.95,4.85-11.62,12.66-20.43,21-24.54h0c2.69-1.28,4.82-4.56,1.11-6.77h0l-.24-.15h0a4.19,4.19,0,0,1,3.72-7.42l.14,0h0c4.16,1.28,5.77,9.88,13,13.4,11.85,5.49,16.72,23.57,11.62,42.63Z" fill="#ff9203" opacity="0.6"/><path d="M328.11,885.41c-.23.81-2.9.88-7.16.32a177.5,177.5,0,0,1-22.57-4.9,183.7,183.7,0,0,1-19.44-6.38c-5.22-2.1-8.38-3.89-8.46-4.86s.63-2,2.51-.68l.4.26a41.27,41.27,0,0,0,5.6,2.71,188.06,188.06,0,0,0,20.75,6.84,184.86,184.86,0,0,0,22.13,4.83q1.68.23,3,.33c.77,0,1.46.08,2.05.08A1.16,1.16,0,0,1,328.11,885.41Z" fill="#ff9203" opacity="0.8"/><path d="M331.15,865.58l-6.24,18.31c-.9-.07-1.92-.18-3-.33a182.91,182.91,0,0,1-22.13-4.83A190.47,190.47,0,0,1,279,871.9a39.07,39.07,0,0,1-5.61-2.72l7.12-20.87c.46-1.35,1-2.67,1.5-3.95,4.85-11.62,12.66-20.43,21-24.54h0c2.69-1.28,4.82-4.56,1.11-6.77h0l-.24-.15h0a4.19,4.19,0,0,1,3.72-7.42l.14,0h0c4.16,1.28,5.77,9.88,13,13.4,11.85,5.49,16.72,23.57,11.62,42.63Z" fill="none" stroke="#ff7f00" stroke-miterlimit="10" stroke-width="3"/><path d="M328.11,885.41c-.23.81-2.9.88-7.16.32a177.5,177.5,0,0,1-22.57-4.9,183.7,183.7,0,0,1-19.44-6.38c-5.22-2.1-8.38-3.89-8.46-4.86s.63-2,2.51-.68l.4.26a41.27,41.27,0,0,0,5.6,2.71,188.06,188.06,0,0,0,20.75,6.84,184.86,184.86,0,0,0,22.13,4.83q1.68.23,3,.33c.77,0,1.46.08,2.05.08A1.16,1.16,0,0,1,328.11,885.41Z" fill="none" stroke="#ff7f00" stroke-miterlimit="10" stroke-width="3"/><g opacity="0.6"><path d="M301.85,369.81l-7.08,18c-.89-.11-1.9-.27-3-.47a182.71,182.71,0,0,1-21.89-5.84,189.5,189.5,0,0,1-20.41-7.77,39.49,39.49,0,0,1-5.48-3l8.07-20.52c.52-1.33,1.08-2.62,1.67-3.88,5.38-11.38,13.59-19.83,22.1-23.56h0c2.74-1.15,5-4.33,1.42-6.71h0l-.23-.16h0a4.19,4.19,0,0,1,4.05-7.24l.14.06h0c4.1,1.47,5.31,10.13,12.43,14,11.59,6,15.62,24.31,9.65,43.11Z" fill="#f79ae6" stroke="#fc22c4" stroke-miterlimit="10" stroke-width="4" opacity="0.6"/><path d="M297.9,389.48c-.26.79-2.94.74-7.17,0a177.5,177.5,0,0,1-22.32-5.93,185.17,185.17,0,0,1-19.13-7.26c-5.11-2.33-8.18-4.27-8.22-5.25s.72-2,2.54-.56a4.17,4.17,0,0,0,.38.27,40.2,40.2,0,0,0,5.47,3,189,189,0,0,0,20.42,7.77,184.56,184.56,0,0,0,21.88,5.84c1.11.2,2.12.36,3,.47s1.46.15,2.05.17A1.16,1.16,0,0,1,297.9,389.48Z" fill="#f79ae6" stroke="#fc22c4" stroke-miterlimit="10" stroke-width="4" opacity="0.8"/><path d="M301.85,369.81l-7.08,18c-.89-.11-1.9-.27-3-.47a182.71,182.71,0,0,1-21.89-5.84,189.5,189.5,0,0,1-20.41-7.77,39.49,39.49,0,0,1-5.48-3l8.07-20.52c.52-1.33,1.08-2.62,1.67-3.88,5.38-11.38,13.59-19.83,22.1-23.56h0c2.74-1.15,5-4.33,1.42-6.71h0l-.23-.16h0a4.19,4.19,0,0,1,4.05-7.24l.14.06h0c4.1,1.47,5.31,10.13,12.43,14,11.59,6,15.62,24.31,9.65,43.11Z" fill="#f79ae6" stroke="#fc22c4" stroke-miterlimit="10" stroke-width="4"/><path d="M297.9,389.48c-.26.79-2.94.74-7.17,0a177.5,177.5,0,0,1-22.32-5.93,185.17,185.17,0,0,1-19.13-7.26c-5.11-2.33-8.18-4.27-8.22-5.25s.72-2,2.54-.56a4.17,4.17,0,0,0,.38.27,40.2,40.2,0,0,0,5.47,3,189,189,0,0,0,20.42,7.77,184.56,184.56,0,0,0,21.88,5.84c1.11.2,2.12.36,3,.47s1.46.15,2.05.17A1.16,1.16,0,0,1,297.9,389.48Z" fill="#f79ae6" stroke="#fc22c4" stroke-miterlimit="10" stroke-width="4"/></g><g opacity="0.6"><path d="M413.27,590.45l-5,18.67c-.9,0-1.92,0-3-.13a182.87,182.87,0,0,1-22.4-3.4,189.53,189.53,0,0,1-21.14-5.48,38.59,38.59,0,0,1-5.77-2.35l5.76-21.29c.37-1.37.78-2.72,1.24-4,4.09-11.9,11.32-21.2,19.37-25.84h0c2.6-1.44,4.51-4.86.67-6.82h0l-.25-.13h0a4.19,4.19,0,0,1,3.24-7.65l.14,0h0c4.24,1,6.39,9.49,13.89,12.53,12.18,4.72,18.2,22.45,14.33,41.8Z" fill="#00f9f2" stroke="#00e7ff" stroke-miterlimit="10" stroke-width="3" opacity="0.6"/><path d="M411.51,610.44c-.17.82-2.83,1.06-7.12.77a176.38,176.38,0,0,1-22.84-3.43,184,184,0,0,1-19.81-5.12c-5.34-1.76-8.61-3.34-8.75-4.31s.49-2.06,2.46-.84a4,4,0,0,0,.41.23,39.52,39.52,0,0,0,5.77,2.36,189.53,189.53,0,0,0,21.14,5.48,180.61,180.61,0,0,0,22.4,3.39c1.12.08,2.14.13,3,.14s1.46,0,2.05-.05A1.15,1.15,0,0,1,411.51,610.44Z" fill="#00f9f2" stroke="#00e7ff" stroke-miterlimit="10" stroke-width="3" opacity="0.8"/><path d="M413.27,590.45l-5,18.67c-.9,0-1.92,0-3-.13a182.87,182.87,0,0,1-22.4-3.4,189.53,189.53,0,0,1-21.14-5.48,38.59,38.59,0,0,1-5.77-2.35l5.76-21.29c.37-1.37.78-2.72,1.24-4,4.09-11.9,11.32-21.2,19.37-25.84h0c2.6-1.44,4.51-4.86.67-6.82h0l-.25-.13h0a4.19,4.19,0,0,1,3.24-7.65l.14,0h0c4.24,1,6.39,9.49,13.89,12.53,12.18,4.72,18.2,22.45,14.33,41.8Z" fill="#00f9f2" stroke="#00e7ff" stroke-miterlimit="10" stroke-width="3"/><path d="M411.51,610.44c-.17.82-2.83,1.06-7.12.77a176.38,176.38,0,0,1-22.84-3.43,184,184,0,0,1-19.81-5.12c-5.34-1.76-8.61-3.34-8.75-4.31s.49-2.06,2.46-.84a4,4,0,0,0,.41.23,39.52,39.52,0,0,0,5.77,2.36,189.53,189.53,0,0,0,21.14,5.48,180.61,180.61,0,0,0,22.4,3.39c1.12.08,2.14.13,3,.14s1.46,0,2.05-.05A1.15,1.15,0,0,1,411.51,610.44Z" fill="#00f9f2" stroke="#00e7ff" stroke-miterlimit="10" stroke-width="3"/></g><g id="Ebene_2-2" data-name="Ebene 2"><g id="Mr_Peen" data-name="Mr Peen"><path d="M442,883.67c-.47,2.19-5,6.13-8.29,3.33-4.28-7.27,4.16-12.19,6.49-9.49A7.85,7.85,0,0,1,442,883.67Z" fill="#fbe209" stroke="#f9c00b" stroke-linecap="round" stroke-miterlimit="10" stroke-width="3"/><path d="M415.53,894.09c-2.7,4.67-12.52,6.67-11.06-1.29C405.94,888.44,413.05,887.36,415.53,894.09Z" fill="#fbe209" stroke="#f9c00b" stroke-linecap="round" stroke-miterlimit="10" stroke-width="3"/><path d="M439.27,871a20.86,20.86,0,0,1,.6,2.19,12.73,12.73,0,0,1,.3,4.35c-2.33-2.7-10.77,2.22-6.49,9.49a36,36,0,0,1-10.16,2.4,31.47,31.47,0,0,1-8,4.69h0l-.07-.18,0-.09-.06-.14-.05-.12-.06-.13-.05-.1v0a.91.91,0,0,1-.07-.14.54.54,0,0,1-.05-.11l-.07-.12a1,1,0,0,0-.1-.18,1.09,1.09,0,0,0-.08-.15l-.08-.13c0-.05-.05-.09-.07-.13l-.09-.14-.09-.13-.09-.12-.19-.27-.09-.11-.09-.1-.09-.1-.15-.17-.12-.13-.09-.09-.29-.26-.09-.08h0l-.2-.16a6.12,6.12,0,0,0-.71-.46l-.42-.22-.1,0-.11,0a5.44,5.44,0,0,0-7.2,3.1h0a21.27,21.27,0,0,1-2.75-2.62,19.13,19.13,0,0,1-1.51-1.95,17.18,17.18,0,0,1-2.45-5.28l-2.08-8.54-1.19-4.9-.11-.47,0-.16h0c5.76-1.08,12.59-8.14,13-15a8.74,8.74,0,0,0,1.86,1.34l.14.07.46.22.23.11.49.19a4.84,4.84,0,0,0,.49.18l.26.08.26.08.52.14.27.07.27.06.27.05.28,0,.27,0,.28,0h0l.25,0h0l.18,0h0l.18,0h.21l.25,0,.44,0h1.92l.58,0,.61,0,.58-.06.3,0,.29,0,.3,0,.29,0,.3,0c.39-.07.78-.14,1.16-.23l.25-.06H422l.55-.14a16.3,16.3,0,0,0,6.23-3h0l.05,0,.51.7q1.53,2.1,2.9,4.13A57,57,0,0,1,439.27,871Z" fill="#fbe209" stroke="#f9c00b" stroke-linecap="round" stroke-miterlimit="10" stroke-width="3"/><path d="M428.78,853h0a16.29,16.29,0,0,1-6.23,3l-.55.14h-.06l-.25.06c-.38.09-.77.16-1.16.23l-.3,0-.29,0-.3,0-.29,0-.3,0c-.19,0-.39,0-.58.06l-.61,0-.58,0h-1.92l-.44,0-.25,0h-.21l-.18,0h0l-.18,0h0l-.25,0h0l-.28,0-.27,0-.28,0-.27-.05-.27-.06-.27-.07-.52-.14-.26-.08-.26-.08a4.84,4.84,0,0,1-.49-.18l-.49-.19-.23-.11a8.59,8.59,0,0,1-2.45-1.63c-.43,6.86-7.27,13.93-13,15h0c-3.77.69-7.08-1.17-7.81-7.34-.06-.51-.11-1-.16-1.53a1.94,1.94,0,0,1,0-.24c-.06-.62-.12-1.24-.17-1.85s-.11-1.27-.15-1.9c-.07-1-.12-2-.16-3,0-1.18-.07-2.33-.06-3.45.05-10.33,2.43-18.21,9.71-20.92,5.75-5.12,15.57-2.81,25.14,5.76.83.75,1.67,1.55,2.5,2.4.67.68,1.34,1.4,2,2.15l.52.59c.39.46.79.92,1.18,1.39l.84,1c.85,1.09,1.69,2.22,2.52,3.41C432.1,848.44,431.14,851.07,428.78,853Z" fill="#fbe209" stroke="#f9c00b" stroke-linecap="round" stroke-miterlimit="10" stroke-width="3"/><path d="M407.28,870.22a4.27,4.27,0,0,1,1.1,1.18,5.13,5.13,0,0,1-8.64,5.46,4.32,4.32,0,0,1-.59-1.5" fill="#fbe209" stroke="#f9c00b" stroke-linecap="round" stroke-miterlimit="10" stroke-width="3"/><path d="M430.5,863.16a4.54,4.54,0,0,1,.2,1.6,5.13,5.13,0,0,1-10.2-.67,4.06,4.06,0,0,1,.41-1.56" fill="#fbe209" stroke="#f9c00b" stroke-linecap="round" stroke-miterlimit="10" stroke-width="3"/></g></g><path d="M400.05,850.51l.05.14a2.51,2.51,0,0,0,3.4.94,3.21,3.21,0,0,0,1.14-.86,2.28,2.28,0,0,0,.44-2.2l-.05-.11a1.39,1.39,0,0,1-.06-.13" fill="none" stroke="#000" stroke-linecap="round" stroke-miterlimit="10"/><path d="M409.91,846.05a2.52,2.52,0,0,1-1.54,3.18,3,3,0,0,1-1.17.28h0a2.34,2.34,0,0,1-2.1-1,1.36,1.36,0,0,1-.13-.24" fill="none" stroke="#000" stroke-linecap="round" stroke-miterlimit="10"/><ellipse cx="392.11" cy="852.61" rx="4.03" ry="1.39" transform="translate(-270.62 188.17) rotate(-20.23)" fill="#ff83f9"/><path d="M416.68,840.22c2.08-.77,4-.81,4.26-.09s-1.21,1.93-3.3,2.7-4,.81-4.27.09S414.59,841,416.68,840.22Z" fill="#ff83f9"/><path d="M390.37,847.17a1.6,1.6,0,1,1-.95,2.06A1.6,1.6,0,0,1,390.37,847.17Z"/><path d="M390.91,847.45a.33.33,0,0,1,.41.19.32.32,0,0,1-.19.41.31.31,0,0,1-.41-.19A.32.32,0,0,1,390.91,847.45Z" fill="#fff"/><path d="M391.62,847.87a.21.21,0,0,1,.27.12.21.21,0,0,1-.13.27.21.21,0,0,1-.14-.39Z" fill="#fff"/><path d="M415.23,836.3a1.6,1.6,0,1,1-1,2.06A1.6,1.6,0,0,1,415.23,836.3Z"/><path d="M415.77,836.58a.33.33,0,0,1,.41.19.32.32,0,0,1-.19.41.31.31,0,0,1-.41-.19A.32.32,0,0,1,415.77,836.58Z" fill="#fff"/><path d="M416.48,837a.21.21,0,1,1,.15.39.22.22,0,0,1-.27-.12A.21.21,0,0,1,416.48,837Z" fill="#fff"/><g id="Ebene_2-3" data-name="Ebene 2"><g id="Mr_Peen-2" data-name="Mr Peen"><path d="M233.65,589.67c-.83,2.07-6,5.18-8.73,1.86-3-7.89,6.17-11.29,8-8.24A7.87,7.87,0,0,1,233.65,589.67Z" fill="#ad8ad1" stroke="#963ecc" stroke-linecap="round" stroke-linejoin="round" stroke-width="3"/><path d="M205.82,595.42c-3.46,4.15-13.47,4.44-10.67-3.15C197.34,588.22,204.53,588.37,205.82,595.42Z" fill="#ad8ad1" stroke="#963ecc" stroke-linecap="round" stroke-linejoin="round" stroke-width="3"/><path d="M233.15,576.69a21.36,21.36,0,0,1,.23,2.26,13,13,0,0,1-.45,4.34c-1.84-3-11,.35-8,8.24a36,36,0,0,1-10.43.64,30.89,30.89,0,0,1-8.67,3.25h0a1.62,1.62,0,0,0,0-.19.29.29,0,0,0,0-.09.7.7,0,0,0,0-.14l0-.13,0-.15,0-.1v0c0-.05,0-.1,0-.15a.36.36,0,0,0,0-.11.74.74,0,0,0,0-.14l-.06-.19-.06-.16,0-.15-.06-.13-.06-.16s-.05-.1-.07-.14l-.06-.14-.15-.29a.75.75,0,0,0-.07-.12.75.75,0,0,0-.07-.12l-.06-.12-.13-.19-.09-.14-.08-.11a3.5,3.5,0,0,0-.24-.3.39.39,0,0,0-.08-.1h0c-.05-.07-.11-.13-.16-.19a8.36,8.36,0,0,0-.62-.58l-.38-.28-.09-.06-.1-.07a5.42,5.42,0,0,0-7.62,1.83h0a21.68,21.68,0,0,1-2.26-3,19.69,19.69,0,0,1-1.15-2.18,17.19,17.19,0,0,1-1.52-5.62l-.59-8.77-.34-5,0-.47.05-.16h0c5.85-.08,13.79-5.87,15.39-12.56a8.22,8.22,0,0,0,1.6,1.63l.12.1.41.3.22.14c.14.1.29.19.44.28l.46.26.24.12.24.12.49.23.25.11.26.11.26.1.26.1.27.09.26.09h0l.23.07h0l.18.06h0l.17,0,.17,0h0l.25.07.42.1.21,0,.22.05.24,0h.06l.16,0h0l.17,0h0l.15,0h.06l.23,0,.3,0h0l.58.08.6.06.58,0h.3l.3,0h.89c.4,0,.8,0,1.19,0l.26,0h.06l.56,0a16.42,16.42,0,0,0,6.65-1.88h0l.05,0c.12.26.25.51.38.77.76,1.55,1.48,3.08,2.15,4.57A56.67,56.67,0,0,1,233.15,576.69Z" fill="#ad8ad1" stroke="#963ecc" stroke-linecap="round" stroke-linejoin="round" stroke-width="3"/><path d="M225.88,557.23h0a16.57,16.57,0,0,1-6.65,1.87l-.56,0h-.06l-.26,0c-.39,0-.79,0-1.19,0h-.89l-.3,0h-.3l-.58,0-.6-.06-.58-.08h0l-.3,0-.23,0h-.06l-.15,0h0l-.17,0h0l-.16,0h-.06l-.24,0-.22-.05-.21,0-.42-.1-.25-.07h0l-.17,0-.17,0h0l-.18-.06h0l-.23-.07h0l-.26-.09L210,558l-.26-.1-.26-.1-.26-.11-.25-.11-.49-.23-.24-.12-.24-.12-.46-.26c-.15-.09-.3-.18-.44-.28l-.22-.14a8.75,8.75,0,0,1-2.13-2c-1.6,6.68-9.54,12.48-15.39,12.56h0c-3.83,0-6.77-2.36-6.44-8.56,0-.52.06-1,.1-1.54,0-.08,0-.16,0-.24,0-.62.09-1.24.15-1.85s.11-1.27.18-1.9c.1-1,.22-2,.35-2.94.15-1.17.33-2.31.52-3.41,1.82-10.17,5.5-17.53,13.14-19,6.54-4.06,15.82-.11,23.78,10,.7.88,1.39,1.81,2.06,2.78.55.79,1.09,1.62,1.62,2.47l.41.67c.31.51.62,1,.92,1.57l.65,1.18c.66,1.21,1.29,2.47,1.91,3.78C229.93,553.27,228.55,555.7,225.88,557.23Z" fill="#ad8ad1" stroke="#963ecc" stroke-linecap="round" stroke-linejoin="round" stroke-width="3"/><path d="M201.76,570.5a4.3,4.3,0,0,1,.89,1.34,5.13,5.13,0,0,1-9.44,3.92,4.3,4.3,0,0,1-.33-1.58" fill="#ad8ad1" stroke="#963ecc" stroke-linecap="round" stroke-linejoin="round" stroke-width="3"/><path d="M225.85,567.5a4.36,4.36,0,0,1-.08,1.61,5.14,5.14,0,0,1-9.94-2.4,4.45,4.45,0,0,1,.67-1.47" fill="#ad8ad1" stroke="#963ecc" stroke-linecap="round" stroke-linejoin="round" stroke-width="3"/></g></g><path d="M198,549.85l0,.14a2.51,2.51,0,0,0,3.18,1.51,3.08,3.08,0,0,0,1.27-.66,2.26,2.26,0,0,0,.82-2.09l0-.12s0-.09,0-.14" fill="none" stroke="#c8238c" stroke-linecap="round" stroke-linejoin="round" stroke-width="3"/><path d="M208.47,547.14a2.5,2.5,0,0,1-2.05,2.86,3.12,3.12,0,0,1-1.21.08h0a2.33,2.33,0,0,1-1.89-1.34,1.06,1.06,0,0,1-.09-.25" fill="none" stroke="#c8238c" stroke-linecap="round" stroke-linejoin="round" stroke-width="3"/><ellipse cx="189.83" cy="550.56" rx="4.03" ry="1.39" transform="translate(-96.33 43.35) rotate(-10.41)" fill="#7bcdc8"/><path d="M216.14,542.54c2.19-.41,4.08-.12,4.22.64s-1.53,1.69-3.72,2.09-4.07.12-4.21-.64S214,542.94,216.14,542.54Z" fill="#7bcdc8"/><path d="M189,544.9a1.61,1.61,0,1,1-1.28,1.87A1.61,1.61,0,0,1,189,544.9Z"/><path d="M189.51,545.27a.32.32,0,1,1,.12.63.32.32,0,0,1-.12-.63Z" fill="#fff"/><path d="M190.15,545.8a.21.21,0,0,1,.24.17.21.21,0,0,1-.41.08A.21.21,0,0,1,190.15,545.8Z" fill="#fff"/><path d="M215.39,538.43a1.61,1.61,0,1,1-1.29,1.87A1.6,1.6,0,0,1,215.39,538.43Z"/><path d="M215.86,538.8a.34.34,0,0,1,.38.26.32.32,0,0,1-.26.37.32.32,0,0,1-.12-.63Z" fill="#fff"/><path d="M216.5,539.33a.21.21,0,0,1,.24.17.2.2,0,0,1-.17.24.2.2,0,0,1-.24-.16A.22.22,0,0,1,216.5,539.33Z" fill="#fff"/><path d="M287,526l1.24,3.68a3.66,3.66,0,0,0,1.36,1.72c.85.54,2,.69,4,1a8.6,8.6,0,0,1,2.92,1.75,11.42,11.42,0,0,1,2.95,4.93L317.56,604l-22.49,7.52L270.46,548.8a11.5,11.5,0,0,1-.61-5.71,8.81,8.81,0,0,1,1.28-3.16c1.35-1.45,2.21-2.29,2.57-3.23a3.62,3.62,0,0,0,.06-2.19l-1.24-3.68a3.16,3.16,0,0,0-1.7-1.71c-.7-.29-6.14-1-7.5-2.59a4.27,4.27,0,0,1-.79-1.46l-5.06-15.13c-2.92-8.73,3.53-16.64,9.87-18.76s16.25.32,19.17,9.05l5.06,15.13a4.23,4.23,0,0,1,.24,1.64c-.12,2.1-4,5.93-4.43,6.58A3.22,3.22,0,0,0,287,526Z" fill="#f4d3eb"/><path d="M291.81,517c-.12,2.1-2,3.11-2.42,4.09a20.24,20.24,0,0,0-2,2.49l-16.56,5.54a19,19,0,0,0-3.11-.78c-.88-.56-3-.21-4.39-1.81Z" fill="#bfbfbf"/><path d="M296.55,534.16l-26.7,8.93a8.81,8.81,0,0,1,1.28-3.16c1.35-1.45,2.21-2.29,2.57-3.23l15.94-5.33c.85.54,2,.69,4,1A8.6,8.6,0,0,1,296.55,534.16Z" fill="#bfbfbf"/><path d="M302.43,593.51a1.58,1.58,0,0,1,1.16,1,1.6,1.6,0,1,1-2.74-.52" fill="none" stroke="#f4a5db" stroke-linecap="round" stroke-linejoin="round"/><polyline points="297.2 586.89 297.01 583.89 298.63 586.41 298.53 583.38 299.96 585.97 300.04 582.87" fill="none" stroke="#f4a5db" stroke-linecap="round" stroke-linejoin="round"/><line x1="294.53" y1="576.62" x2="293.96" y2="574.91" fill="none" stroke="#f4a5db" stroke-linecap="round" stroke-linejoin="round"/><line x1="295.3" y1="576.36" x2="294.48" y2="573.91" fill="none" stroke="#f4a5db" stroke-linecap="round" stroke-linejoin="round"/><line x1="296.92" y1="575.82" x2="295.73" y2="572.26" fill="none" stroke="#f4a5db" stroke-linecap="round" stroke-linejoin="round"/><line x1="301.41" y1="593.08" x2="301.94" y2="594.66" fill="#f4a5db" stroke="#f4a5db" stroke-linecap="round" stroke-linejoin="round"/><line x1="296.02" y1="576.12" x2="295.02" y2="573.1" fill="none" stroke="#f4a5db" stroke-linecap="round" stroke-linejoin="round"/><path d="M317.56,604c5.38,16.8,2.9,25.44-3.31,27.48s-13.37-3.3-19.18-20Z" fill="#97d0e8"/><path d="M317.56,604c5.38,16.8,2.9,25.44-3.31,27.48s-13.37-3.3-19.18-20Z" fill="none" stroke="#ff81d2" stroke-miterlimit="10" stroke-width="4"/><path d="M303.27,598.65h0a3.77,3.77,0,0,1-4.77-2.38h0a3.77,3.77,0,0,1,2.38-4.78h0a3.79,3.79,0,0,1,4.78,2.38h0A3.78,3.78,0,0,1,303.27,598.65Z" fill="none" stroke="#ff81d2" stroke-miterlimit="10"/><path d="M299.86,588.45h0a3.77,3.77,0,0,1-4.77-2.39h0a3.77,3.77,0,0,1,2.38-4.77h0a3.76,3.76,0,0,1,4.77,2.38h0A3.77,3.77,0,0,1,299.86,588.45Z" fill="none" stroke="#ff81d2" stroke-miterlimit="10"/><path d="M296.45,578.24h0a3.78,3.78,0,0,1-4.78-2.38h0a3.78,3.78,0,0,1,2.39-4.78h0a3.77,3.77,0,0,1,4.77,2.39h0A3.77,3.77,0,0,1,296.45,578.24Z" fill="none" stroke="#ff81d2" stroke-miterlimit="10"/><path d="M287,526l1.24,3.68a3.66,3.66,0,0,0,1.36,1.72c.85.54,2,.69,4,1a8.6,8.6,0,0,1,2.92,1.75,11.42,11.42,0,0,1,2.95,4.93L317.56,604l-22.49,7.52L270.46,548.8a11.5,11.5,0,0,1-.61-5.71,8.81,8.81,0,0,1,1.28-3.16c1.35-1.45,2.21-2.29,2.57-3.23a3.62,3.62,0,0,0,.06-2.19l-1.24-3.68a3.16,3.16,0,0,0-1.7-1.71c-.7-.29-6.14-1-7.5-2.59a4.27,4.27,0,0,1-.79-1.46l-5.06-15.13c-2.92-8.73,3.53-16.64,9.87-18.76s16.25.32,19.17,9.05l5.06,15.13a4.23,4.23,0,0,1,.24,1.64c-.12,2.1-4,5.93-4.43,6.58A3.22,3.22,0,0,0,287,526Z" fill="none" stroke="#ff81d2" stroke-miterlimit="10" stroke-width="4"/><g id="Ebene_2-4" data-name="Ebene 2"><g id="Mr_Peen-3" data-name="Mr Peen"><path d="M369.89,302.56c-1.84,1.89-8.84,3-10.39-1.89.27-10,11.81-9.59,12.45-5.43Q372.3,299.94,369.89,302.56Z" fill="#fca844" stroke="#ff971a" stroke-linecap="round" stroke-miterlimit="10" stroke-width="3"/><path d="M336.85,296.37c-5.64,3-16.73-1.18-10.27-8.24C330.8,284.69,338.59,288.07,336.85,296.37Z" fill="#fca844" stroke="#ff971a" stroke-linecap="round" stroke-miterlimit="10" stroke-width="3"/><path d="M375.16,288.12a26.29,26.29,0,0,1-.77,2.58,14.89,14.89,0,0,1-2.44,4.54c-.64-4.16-12.18-4.54-12.45,5.43a42.3,42.3,0,0,1-11.7-4,36.55,36.55,0,0,1-10.95-.33h0a2.07,2.07,0,0,0,0-.22.52.52,0,0,0,0-.11,1.22,1.22,0,0,0,0-.17l0-.16a1,1,0,0,0,0-.17l0-.13v-.05c0-.06,0-.12,0-.18s0-.09,0-.14,0-.11,0-.17,0-.16,0-.24a1.21,1.21,0,0,0,0-.19c0-.06,0-.13,0-.19v-.37c0-.07,0-.13,0-.19a1.09,1.09,0,0,0,0-.18c0-.13,0-.26,0-.38a1,1,0,0,0,0-.17,1,1,0,0,0,0-.16c0-.05,0-.1,0-.16s0-.18-.05-.26,0-.14,0-.2a.83.83,0,0,0,0-.15,3.17,3.17,0,0,0-.12-.44s0-.1,0-.14h0l-.1-.27a6.44,6.44,0,0,0-.42-.92c-.09-.16-.18-.32-.28-.47l-.08-.12-.08-.11a6.42,6.42,0,0,0-9.16-1.42h0a25,25,0,0,1-1.11-4.35,23.54,23.54,0,0,1-.29-2.9,20.33,20.33,0,0,1,.87-6.84l3.28-9.86,1.89-5.66.18-.53.13-.16h0c6.45,2.54,17.74-.24,22.48-6.84a9.82,9.82,0,0,0,1,2.51l.09.16c.1.17.21.34.32.51a2.2,2.2,0,0,0,.17.25,5.74,5.74,0,0,0,.36.5c.12.17.25.33.39.5l.2.24.21.24c.14.16.29.31.44.47l.22.23.23.23.24.23.25.22.25.22.25.22h0l.23.19,0,0,.17.13,0,0,.16.13.17.13h0l0,0,.24.18.42.31.21.15.21.14.25.17.06,0,.16.1,0,0,.17.11,0,0,.16.09.06,0,.23.14a2.38,2.38,0,0,0,.3.18h0l.61.34c.2.12.41.23.63.34l.62.31.32.15.32.15.32.15.32.14.33.13c.43.18.87.35,1.31.51l.29.1.06,0,.63.2a19.39,19.39,0,0,0,8.13.93h0l0,.07c0,.34,0,.68.07,1q.21,3.08.31,6C376.57,277.4,376.3,283.41,375.16,288.12Z" fill="#fca844" stroke="#ff971a" stroke-linecap="round" stroke-miterlimit="10" stroke-width="3"/><path d="M375.92,263.57h0a19.39,19.39,0,0,1-8.13-.94l-.63-.2-.06,0-.29-.1c-.44-.16-.88-.33-1.31-.51l-.33-.13-.32-.14-.32-.15-.32-.15-.32-.15-.62-.31c-.22-.11-.43-.22-.63-.34l-.61-.34h0a2.38,2.38,0,0,1-.3-.18l-.23-.14-.06,0-.16-.09,0,0-.17-.11,0,0-.16-.1-.06,0-.25-.17-.21-.14-.21-.15-.42-.31-.24-.18,0,0h0l-.17-.13-.16-.13,0,0-.17-.13,0,0-.23-.19h0l-.25-.22-.25-.22-.25-.22-.24-.23-.23-.23-.22-.23c-.15-.16-.3-.31-.44-.47l-.21-.24-.2-.24c-.14-.17-.27-.33-.39-.5a5.74,5.74,0,0,1-.36-.5,2.2,2.2,0,0,1-.17-.25A10.48,10.48,0,0,1,354,251c-4.74,6.6-16,9.39-22.47,6.84h0c-4.22-1.67-6.36-5.61-3.22-12.26.27-.55.53-1.09.8-1.63,0-.09.09-.17.13-.25.33-.67.66-1.32,1-2s.7-1.34,1-2c.56-1,1.13-2.07,1.7-3.06.69-1.21,1.4-2.38,2.11-3.5,6.54-10.32,13.88-16.72,22.88-14.86,9-1.51,17.36,7,21.56,21.57.36,1.28.7,2.6,1,4q.36,1.67.66,3.42l.15.93q.17,1.05.3,2.13c.07.52.13,1,.19,1.57q.26,2.44.39,5C382.14,261.05,379.53,263.08,375.92,263.57Z" fill="#fca844" stroke="#ff971a" stroke-linecap="round" stroke-miterlimit="10" stroke-width="3"/><path d="M343.58,267.27a5,5,0,0,1,.37,1.87,6.07,6.07,0,0,1-12.09.05,5.17,5.17,0,0,1,.35-1.87" fill="#fca844" stroke="#ff971a" stroke-linecap="round" stroke-miterlimit="10" stroke-width="3"/><path d="M371.29,274.79a5.08,5.08,0,0,1-.81,1.73,6.07,6.07,0,0,1-9.8-7.08,5.1,5.1,0,0,1,1.39-1.31" fill="#fca844" stroke="#ff971a" stroke-linecap="round" stroke-miterlimit="10" stroke-width="3"/></g></g><path d="M348.72,243l0,.17a3,3,0,0,0,2.81,3.09,3.64,3.64,0,0,0,1.69-.16,2.65,2.65,0,0,0,1.82-1.92.78.78,0,0,0,0-.14c0-.06,0-.12,0-.17" fill="none" stroke="#e21414" stroke-linecap="round" stroke-linejoin="round"/><path d="M361.4,244.71a3,3,0,0,1-3.53,2.22,3.66,3.66,0,0,1-1.35-.46h0a2.73,2.73,0,0,1-1.48-2.31,1.62,1.62,0,0,1,0-.31" fill="none" stroke="#e21414" stroke-linecap="round" stroke-linejoin="round"/><ellipse cx="339.46" cy="240.1" rx="1.65" ry="4.77" transform="translate(34.67 522.91) rotate(-78.13)" fill="#f2b4f9"/><path d="M371.86,243.12c2.57.54,4.51,1.7,4.32,2.59s-2.42,1.17-5,.63-4.52-1.7-4.33-2.59S369.28,242.58,371.86,243.12Z" fill="#f2b4f9"/><path d="M341.13,233.55a1.9,1.9,0,1,1-2.25,1.47A1.9,1.9,0,0,1,341.13,233.55Z"/><path d="M341.49,234.17a.39.39,0,0,1,.29.45.38.38,0,1,1-.29-.45Z" fill="#fff"/><path d="M341.94,235a.24.24,0,0,1,.19.29.24.24,0,0,1-.29.19.25.25,0,0,1-.19-.29A.24.24,0,0,1,341.94,235Z" fill="#fff"/><path d="M372.87,238.29a1.9,1.9,0,1,1-2.24,1.46A1.89,1.89,0,0,1,372.87,238.29Z"/><path d="M373.23,238.91a.38.38,0,0,1,.29.44.37.37,0,0,1-.45.29.38.38,0,0,1-.29-.44A.37.37,0,0,1,373.23,238.91Z" fill="#fff"/><path d="M373.68,239.77a.25.25,0,0,1,.2.29.26.26,0,0,1-.3.2.25.25,0,0,1-.19-.3A.25.25,0,0,1,373.68,239.77Z" fill="#fff"/><path d="M290.13,748.74c3.21,5.93-1.39,14.64-10.28,19.46a25.36,25.36,0,0,1-8.46,2.88,13.33,13.33,0,0,1-4.17,5.83,13.09,13.09,0,0,1-4.9,2.5,13.25,13.25,0,0,1-8-.32,13.36,13.36,0,0,1-9.6,10.2,13.2,13.2,0,0,1-8-.33,14.17,14.17,0,0,1,.06,2.59c-.17,2.68-1.19,4.81-3,5.81-2.39,1.29-5.6.4-8.56-2a51.84,51.84,0,0,0-30.21,41.25,12.59,12.59,0,0,1,.7,15.06l-.65.89-.07.08c-9.54,12.55-17.36,11.58-22-4.72a12.66,12.66,0,0,1,5.5-14A68.54,68.54,0,0,1,217.5,781c-.32-3.66.7-6.69,3-7.94,2.1-1.14,4.84-.59,7.5,1.21a13.36,13.36,0,0,1,17.72-10.46,13.37,13.37,0,0,1,9.6-10.21,13.19,13.19,0,0,1,5-.37,25.41,25.41,0,0,1,7.83-6.49C277.1,741.92,286.92,742.81,290.13,748.74Z" fill="#74edcd" stroke="#41e8c2" stroke-miterlimit="10" stroke-width="3"/><path d="M271.39,771.08a47,47,0,0,0-11-17.85" fill="#74edcd" stroke="#41e8c2" stroke-miterlimit="10" stroke-width="3"/><path d="M254.3,779.09a48.54,48.54,0,0,0-8.57-15.28" fill="#74edcd" stroke="#41e8c2" stroke-miterlimit="10" stroke-width="3"/><path d="M236.67,789A49.3,49.3,0,0,0,228,774.27" fill="#74edcd" stroke="#41e8c2" stroke-miterlimit="10" stroke-width="3"/><path d="M225.13,795.35A41.42,41.42,0,0,1,217.5,781" fill="#74edcd" stroke="#41e8c2" stroke-miterlimit="10" stroke-width="3"/><path d="M194.92,836.6c-6-2.2-11.65-3.38-16.49-2.71" fill="#74edcd" stroke="#41e8c2" stroke-miterlimit="10" stroke-width="3"/><path d="M407.11,332.86a17.16,17.16,0,0,0,21.5,5.87l8.61,12.62c-2.47,3.33-2.43,8.44.39,12.59,22.92,25.62,30.6,19.62,15.65-10.66-2.83-4.14-7.58-6-11.57-5l-8.61-12.63a17.17,17.17,0,1,0-26-2.82Zm24.8-16.9a12.85,12.85,0,1,1-17.84-3.38A12.84,12.84,0,0,1,431.91,316Z" fill="#c6bddc"/><path d="M439.19,349.45c4.32-2.94,10.62-1.23,14.07,3.83a48.08,48.08,0,0,0-15.65,10.66C434.17,358.88,434.87,352.39,439.19,349.45Z" fill="#b3a7d0"/><path d="M407.11,332.86a17.16,17.16,0,0,0,21.5,5.87l8.61,12.62c-2.47,3.33-2.43,8.44.39,12.59,22.92,25.62,30.6,19.62,15.65-10.66-2.83-4.14-7.58-6-11.57-5l-8.61-12.63a17.17,17.17,0,1,0-26-2.82Zm24.8-16.9a12.85,12.85,0,1,1-17.84-3.38A12.84,12.84,0,0,1,431.91,316Z" fill="none" stroke="#8e82a3" stroke-miterlimit="10" stroke-width="2"/><path d="M507.44,729.85h0a1.64,1.64,0,0,1,.66,0c3.91.79,3.61,18.6-.67,39.78-.67,3.31-1.4,6.52-2.17,9.56h0c-1.12,4.46-2.33,8.57-3.55,12.17" fill="none" stroke="#231f20" stroke-miterlimit="10" stroke-width="4"/><path d="M520.89,725.81A14.57,14.57,0,0,0,495,722c-.22.36-.43.71-.66,1.05-1.8,2.78-3.88,4.68-6.3,5.44l-52.85,17.78c-11.58,1.9-16.38-3.84-24.87-1.08l-.22.07-57.67,19.4a4.46,4.46,0,0,0-2.8,5.65l4.17,12.39L358,795.07a4.47,4.47,0,0,0,5.67,2.77L421.21,778l.22-.07c8.4-3,8.7-10.47,19-16l52.73-18.18c2.38-.86,5.18-.63,8.31.47.38.13.77.28,1.16.44a14.57,14.57,0,0,0,18.23-18.83Zm-12.31,7a2.66,2.66,0,1,1,2.23-3A2.66,2.66,0,0,1,508.58,732.78Z" fill="#9c94c6" stroke="#756f95" stroke-miterlimit="10"/><path d="M518.73,736.76c-1.67,3.67-8.46,10.07-17.88,5.54a12.44,12.44,0,0,0-1.73-.36,12.28,12.28,0,0,0-6.4.41L440,760.49a32.52,32.52,0,0,0-7.42,5.06c-4.26,4.52-7.21,9.26-12.08,11.29l-55.22,19a4.24,4.24,0,0,1-5.45-2.48L355.88,782,352,770.57a4.23,4.23,0,0,1,2.81-5.28l55.8-18.79c4-1.31,14.19,1.43,16.27,1.63a32.67,32.67,0,0,0,8.67-.55l52.85-17.81a13.27,13.27,0,0,0,6-4.35c.32-.4.62-.83.92-1.29.2-.3.4-.62.59-1A13.07,13.07,0,0,1,510.38,718l.15,0a13.72,13.72,0,0,1,8.2,18.76Z" fill="none" stroke="#756f95" stroke-miterlimit="10" stroke-dasharray="6 6"/><path d="M511.13,729.87a2.66,2.66,0,1,1-3-2.22A2.65,2.65,0,0,1,511.13,729.87Z" fill="none" stroke="#ccc" stroke-miterlimit="10" stroke-width="3"/><path d="M507.59,792.12c-.87-3.83-1.66-8.2-2.33-13h0c-.43-3.12-.81-6.39-1.12-9.77-1.9-20.88-.42-38.2,3.3-39.55h0" fill="none" stroke="#231f20" stroke-miterlimit="10" stroke-width="4"/><path d="M506.62,779.35a1.37,1.37,0,1,1-1.18-1.54A1.37,1.37,0,0,1,506.62,779.35Z" fill="none" stroke="#231f20" stroke-miterlimit="10" stroke-width="5"/><rect x="385.76" y="758.4" width="3.13" height="25.98" transform="translate(-221.13 159.15) rotate(-18.16)" fill="#ea93c3" stroke="#756f95" stroke-miterlimit="10"/><rect x="376.4" y="758.83" width="3.13" height="7.21" transform="translate(984.63 165.67) rotate(71.84)" fill="#ea93c3" stroke="#756f95" stroke-miterlimit="10"/><rect x="383.52" y="780.54" width="3.13" height="7.21" transform="translate(1010.16 173.85) rotate(71.84)" fill="#ea93c3" stroke="#756f95" stroke-miterlimit="10"/><rect x="379.96" y="769.68" width="3.13" height="7.21" transform="translate(997.38 169.76) rotate(71.84)" fill="#ea93c3" stroke="#756f95" stroke-miterlimit="10"/><rect x="398.38" y="754.25" width="3.13" height="25.98" transform="translate(-219.2 162.86) rotate(-18.16)" fill="#ea93c3" stroke="#756f95" stroke-miterlimit="10"/><rect x="398.38" y="754.25" width="3.13" height="25.98" transform="translate(-219.2 162.86) rotate(-18.16)" fill="#ea93c3" stroke="#756f95" stroke-miterlimit="10"/><rect x="411.72" y="749.75" width="3.13" height="25.98" transform="translate(-217.14 166.8) rotate(-18.16)" fill="#ea93c3" stroke="#756f95" stroke-miterlimit="10"/><rect x="389.02" y="754.68" width="3.13" height="7.21" transform="translate(989.37 150.81) rotate(71.84)" fill="#ea93c3" stroke="#756f95" stroke-miterlimit="10"/><rect x="396.15" y="776.39" width="3.13" height="7.21" transform="translate(1014.9 158.99) rotate(71.84)" fill="#ea93c3" stroke="#756f95" stroke-miterlimit="10"/><rect x="392.58" y="765.53" width="3.13" height="7.21" transform="translate(1002.12 154.9) rotate(71.84)" fill="#ea93c3" stroke="#756f95" stroke-miterlimit="10"/><rect x="372.82" y="762.64" width="3.13" height="25.98" transform="translate(-223.1 155.32) rotate(-18.16)" fill="#ea93c3" stroke="#756f95" stroke-miterlimit="10"/><rect x="360.08" y="766.8" width="3.13" height="25.98" transform="translate(-225.03 151.56) rotate(-18.16)" fill="#ea93c3" stroke="#756f95" stroke-miterlimit="10"/><polygon points="368.17 764.01 370.99 790.42 367.96 791.41 365.13 765.01 368.17 764.01" fill="#ea93c3" stroke="#756f95" stroke-miterlimit="10"/><path d="M403.75,759.27l.42,1.29a4.11,4.11,0,0,0,5.19,2.62l1.43-.47.78,2.36-2.66.87a5.6,5.6,0,0,1-7.07-3.58l-1-3.16a5.61,5.61,0,0,1,3.58-7.08l2.66-.87.77,2.36-1.44.47A4.11,4.11,0,0,0,403.75,759.27Z" fill="#ea93c3" stroke="#756f95" stroke-miterlimit="10"/></g></g></svg>