<svg id="Gag" xmlns="http://www.w3.org/2000/svg" viewBox="0 0 508.03 72.39"><defs><style>.cls-1,.cls-10,.cls-3,.cls-4,.cls-7,.cls-8,.cls-9{fill:none;}.cls-1{stroke:#a7a5a6;}.cls-1,.cls-10,.cls-2,.cls-3,.cls-4,.cls-5,.cls-7,.cls-8,.cls-9{stroke-miterlimit:10;}.cls-1,.cls-5{stroke-width:5px;}.cls-2{fill:gray;}.cls-10,.cls-2,.cls-3,.cls-4,.cls-7,.cls-8,.cls-9{stroke:#000;}.cls-2,.cls-7{stroke-width:3px;}.cls-10,.cls-3,.cls-4,.cls-8,.cls-9{stroke-width:2px;}.cls-4{stroke-dasharray:5.01 5.01;}.cls-5{fill:#ff3939;stroke:red;}.cls-6{fill:#dbdada;}.cls-8{stroke-dasharray:7.08 7.08;}.cls-9{stroke-dasharray:6.96 6.96;}.cls-10{stroke-dasharray:7;}</style></defs><title>Ball Gag</title><path class="cls-1" d="M239.51,377.29l.7,12.26A20.31,20.31,0,0,1,221.1,411l-8.22.47-3-52.81,8.22-.47A20.31,20.31,0,0,1,239.51,377.29Z" transform="translate(-49.02 -344.05)"/><path class="cls-1" d="M345.59,371.22l.7,12.26a20.31,20.31,0,0,0,21.44,19.12l8.22-.47-3-52.81-8.22.47A20.31,20.31,0,0,0,345.59,371.22Z" transform="translate(-49.02 -344.05)"/><path class="cls-2" d="M219.39,405.47,51,414.83l.68-2.53q2.69-10,5.46-19.78Q60,382.35,63,372.42l153.92-8.56Z" transform="translate(-49.02 -344.05)"/><path class="cls-2" d="M555,386.51,369,396.9l-2.45-41.61L540,345.61c1.08,2.69,2.15,5.39,3.21,8.12q3.6,9.24,7,18.8Q552.64,379.45,555,386.51Z" transform="translate(-49.02 -344.05)"/><rect class="cls-2" x="232.24" y="368.94" width="120.33" height="22.95" transform="translate(-70.29 -326.72) rotate(-3.28)"/><line class="cls-3" x1="182.98" y1="31.95" x2="185.48" y2="31.8"/><line class="cls-4" x1="190.48" y1="31.5" x2="298.04" y2="24.97"/><line class="cls-3" x1="300.54" y1="24.81" x2="303.04" y2="24.66"/><line class="cls-3" x1="182.98" y1="47.94" x2="185.48" y2="47.78"/><line class="cls-4" x1="190.48" y1="47.48" x2="298.04" y2="40.95"/><line class="cls-3" x1="300.54" y1="40.8" x2="303.04" y2="40.65"/><circle class="cls-5" cx="291.74" cy="380.45" r="27.99" transform="translate(-70.29 -326.75) rotate(-3.28)"/><circle class="cls-6" cx="193.07" cy="386.1" r="6.89" transform="translate(-70.77 -332.38) rotate(-3.28)"/><circle class="cls-6" cx="388.75" cy="374.9" r="6.89" transform="translate(-69.81 -321.22) rotate(-3.28)"/><circle class="cls-6" cx="334.52" cy="378" r="3.71" transform="translate(-70.08 -324.31) rotate(-3.28)"/><circle class="cls-6" cx="247.85" cy="382.97" r="3.71" transform="translate(-70.5 -329.26) rotate(-3.28)"/><line class="cls-7" x1="16.69" y1="34.66" x2="16.69" y2="34.66"/><line class="cls-3" x1="12.68" y1="32.76" x2="16.18" y2="32.58"/><line class="cls-8" x1="23.25" y1="32.21" x2="161.18" y2="25.06"/><line class="cls-3" x1="164.71" y1="24.88" x2="168.21" y2="24.7"/><line class="cls-3" x1="3.2" y1="66.26" x2="6.69" y2="66.07"/><line class="cls-9" x1="13.65" y1="65.69" x2="163.15" y2="57.58"/><line class="cls-3" x1="166.63" y1="57.39" x2="170.12" y2="57.2"/><line class="cls-10" x1="317.86" y1="16.1" x2="493.02" y2="6.73"/><line class="cls-10" x1="319.79" y1="48.96" x2="504.39" y2="37.74"/></svg>