<svg xmlns="http://www.w3.org/2000/svg" viewBox="0 0 525.84 785.51"><defs><style>.cls-1{fill:#ffc9ef;stroke:#ffabe6;stroke-width:8px;}.cls-1,.cls-2{stroke-linecap:round;stroke-linejoin:round;}.cls-2,.cls-5{fill:none;}.cls-2,.cls-6{stroke:#000;}.cls-2,.cls-5,.cls-7{stroke-width:5px;}.cls-3{fill:#ff81d2;}.cls-4{fill:#fff;}.cls-5{stroke:#a7a5a6;}.cls-5,.cls-6,.cls-7{stroke-miterlimit:10;}.cls-6{fill:gray;stroke-width:3px;}.cls-7{fill:#ff3939;stroke:red;}.cls-8{fill:#dbdada;}</style></defs><title>Ball Gag</title><g id="Layer_1" data-name="Layer 1"><g id="Ebene_2" data-name="Ebene 2"><g id="Mr_Peen" data-name="Mr Peen"><path class="cls-1" d="M538.57,869.81C525.45,890.53,464,914,440.51,872.57c-16.58-91.16,89.09-109.81,102.89-73.2Q555.5,841.36,538.57,869.81Z" transform="translate(-43.08 -114.76)"/><path class="cls-1" d="M226.4,876.69C180.82,914.67,72,898,117.29,821.43,149.05,782.07,226.4,798,226.4,876.69Z" transform="translate(-43.08 -114.76)"/><path class="cls-1" d="M559,728.53a239.43,239.43,0,0,1-2.07,24.86,139.66,139.66,0,0,1-13.49,46c-13.8-36.61-119.46-18-102.89,73.2-35.72,1.64-74-3.71-114-13.82a340.42,340.42,0,0,1-100.15,18c0-78.73-77.34-94.62-109.11-55.26A229.1,229.1,0,0,1,98.87,784a216.05,216.05,0,0,1-8.14-25.86,189.94,189.94,0,0,1-5.22-63.77l18-156.22.91-1.72c63.44,10.73,160.76-36.09,191.24-105.19,31.76,65.43,155.08,96.8,223.27,72.52l.48.64C544.12,590.5,560.8,668.57,559,728.53Z" transform="translate(-43.08 -114.76)"/><path class="cls-1" d="M519,503.83l-.05,0c-21.32,7.56-48,9.69-75.65,7-2-.2-4.09-.42-6.13-.66l-.64-.08-2.84-.36q-6.44-.84-12.87-2.06l-3.21-.62q-1.61-.31-3.21-.66c-1.06-.22-2.13-.46-3.2-.7S409,505.26,408,505s-2.13-.51-3.19-.78q-3.14-.76-6.24-1.64c-2.14-.59-4.27-1.22-6.38-1.87s-4.1-1.28-6.14-2l-.08,0-3.08-1.06-2.43-.86-.63-.23-1.58-.59-.48-.18c-.59-.21-1.17-.43-1.75-.66l-.4-.15-1.65-.65-.63-.25-2.55-1q-1.11-.45-2.22-.93l-2.2-1q-2.21-1-4.36-2c-.85-.39-1.68-.78-2.51-1.19l-.31-.15a.09.09,0,0,1-.07,0c-.58-.27-1.16-.56-1.73-.85s-1.16-.56-1.73-.86l-.33-.16-1.82-.93-.35-.18-2.4-1.28s0,0,0,0c-.91-.49-1.81-1-2.71-1.49s-1.8-1-2.68-1.53L342.66,479l-2.6-1.61c-.86-.54-1.71-1.09-2.55-1.64s-1.68-1.11-2.51-1.68q-2.49-1.68-4.88-3.45c-.79-.59-1.58-1.18-2.36-1.78s-1.55-1.2-2.31-1.81c-13-10.33-23.3-22.29-29.81-35.67-30.48,69.1-127.79,116-191.23,105.19h0c-41.55-7.14-68.55-38.9-52.69-105.29q2.07-8.27,4.18-16.4l.66-2.53q2.61-10,5.3-19.78,2.8-10.17,5.71-20.1C109,230.67,166.9,127,269.22,126.67,360.38,90.91,470,178.53,535.69,345.61c1,2.69,2.1,5.39,3.13,8.12q3.51,9.24,6.82,18.8,2.4,6.91,4.7,14,7,21.64,13.09,44.72C570.66,469,550.83,492.54,519,503.83Z" transform="translate(-43.08 -114.76)"/><path class="cls-1" d="M232,599.28a47,47,0,0,1,6.92,16.33c5.93,27.62-13.86,55.26-44.17,61.76S135,666.77,129.1,639.15a47,47,0,0,1-.39-17.71" transform="translate(-43.08 -114.76)"/><path class="cls-1" d="M498.23,614.7a47,47,0,0,1-4,17.26c-11.48,25.79-43.74,36.49-72.08,23.87s-42-43.74-30.52-69.53a47,47,0,0,1,10.13-14.5" transform="translate(-43.08 -114.76)"/></g></g><path class="cls-2" d="M291.52,364.42c0,.52.14,1.06.17,1.57,1,13.69-11.5,25.77-27.89,26.93s-30.48-9-31.45-22.69v-1.57" transform="translate(-43.08 -114.76)"/><path class="cls-2" d="M291.58,364.39c1,13.7,15.06,23.87,31.45,22.69s28.88-13.26,27.89-26.93" transform="translate(-43.08 -114.76)"/><ellipse class="cls-3" cx="99.51" cy="245.37" rx="44.3" ry="15.29"/><ellipse class="cls-3" cx="399.81" cy="226.2" rx="44.3" ry="15.29"/><circle cx="102.18" cy="200.28" r="17.61"/><circle class="cls-4" cx="106.64" cy="191.13" r="3.5"/><circle class="cls-4" cx="112.42" cy="196.91" r="2.3"/><circle cx="399.81" cy="182.67" r="17.61"/><circle class="cls-4" cx="404.24" cy="173.52" r="3.5"/><circle class="cls-4" cx="410.04" cy="179.3" r="2.3"/></g><g id="Gag"><path class="cls-5" d="M239.51,377.29l.7,12.26A20.31,20.31,0,0,1,221.1,411l-8.22.47-3-52.81,8.22-.47A20.31,20.31,0,0,1,239.51,377.29Z" transform="translate(-43.08 -114.76)"/><path class="cls-5" d="M345.59,371.22l.7,12.26a20.31,20.31,0,0,0,21.44,19.12l8.22-.47-3-52.81-8.22.47A20.31,20.31,0,0,0,345.59,371.22Z" transform="translate(-43.08 -114.76)"/><path class="cls-6" d="M219.39,405.47,51,414.83l.68-2.53q2.69-10,5.46-19.78Q60,382.35,63,372.42l153.92-8.56Z" transform="translate(-43.08 -114.76)"/><path class="cls-6" d="M555,386.51,369,396.9l-2.45-41.61L540,345.61c1.08,2.69,2.15,5.39,3.21,8.12q3.6,9.24,7,18.8Q552.64,379.45,555,386.51Z" transform="translate(-43.08 -114.76)"/><rect class="cls-6" x="232.24" y="368.94" width="120.33" height="22.95" transform="translate(-64.35 -97.42) rotate(-3.28)"/><circle class="cls-7" cx="291.74" cy="380.45" r="27.99" transform="translate(-64.35 -97.46) rotate(-3.28)"/><circle class="cls-8" cx="193.07" cy="386.1" r="6.89" transform="translate(-64.84 -103.09) rotate(-3.28)"/><circle class="cls-8" cx="388.75" cy="374.9" r="6.89" transform="translate(-63.88 -91.92) rotate(-3.28)"/><circle class="cls-8" cx="334.52" cy="378" r="3.71" transform="translate(-64.14 -95.02) rotate(-3.28)"/><circle class="cls-8" cx="247.85" cy="382.97" r="3.71" transform="translate(-64.57 -99.96) rotate(-3.28)"/></g></svg>