<svg id="Gag" xmlns="http://www.w3.org/2000/svg" viewBox="0 0 508.03 72.39"><defs><style>.cls-1{fill:none;stroke:#a7a5a6;}.cls-1,.cls-2,.cls-3{stroke-miterlimit:10;}.cls-1,.cls-3{stroke-width:5px;}.cls-2{fill:gray;stroke:#000;stroke-width:3px;}.cls-3{fill:#ff3939;stroke:red;}.cls-4{fill:#dbdada;}</style></defs><title>Ball Gag</title><path class="cls-1" d="M239.51,377.29l.7,12.26A20.31,20.31,0,0,1,221.1,411l-8.22.47-3-52.81,8.22-.47A20.31,20.31,0,0,1,239.51,377.29Z" transform="translate(-49.02 -344.05)"/><path class="cls-1" d="M345.59,371.22l.7,12.26a20.31,20.31,0,0,0,21.44,19.12l8.22-.47-3-52.81-8.22.47A20.31,20.31,0,0,0,345.59,371.22Z" transform="translate(-49.02 -344.05)"/><path class="cls-2" d="M219.39,405.47,51,414.83l.68-2.53q2.69-10,5.46-19.78Q60,382.35,63,372.42l153.92-8.56Z" transform="translate(-49.02 -344.05)"/><path class="cls-2" d="M555,386.51,369,396.9l-2.45-41.61L540,345.61c1.08,2.69,2.15,5.39,3.21,8.12q3.6,9.24,7,18.8Q552.64,379.45,555,386.51Z" transform="translate(-49.02 -344.05)"/><rect class="cls-2" x="232.24" y="368.94" width="120.33" height="22.95" transform="translate(-70.29 -326.72) rotate(-3.28)"/><circle class="cls-3" cx="291.74" cy="380.45" r="27.99" transform="translate(-70.29 -326.75) rotate(-3.28)"/><circle class="cls-4" cx="193.07" cy="386.1" r="6.89" transform="translate(-70.77 -332.38) rotate(-3.28)"/><circle class="cls-4" cx="388.75" cy="374.9" r="6.89" transform="translate(-69.81 -321.22) rotate(-3.28)"/><circle class="cls-4" cx="334.52" cy="378" r="3.71" transform="translate(-70.08 -324.31) rotate(-3.28)"/><circle class="cls-4" cx="247.85" cy="382.97" r="3.71" transform="translate(-70.5 -329.26) rotate(-3.28)"/></svg>