<svg id="Mask" xmlns="http://www.w3.org/2000/svg" viewBox="0 0 534.33 436.33"><defs><style>.cls-1{stroke:#000;}.cls-1,.cls-2{stroke-miterlimit:10;}.cls-2{fill:#bfbfbf;stroke:#7f7c7c;}.cls-3{fill:#fff;}</style></defs><title>BDSM Mask</title><g id="Ebene_2" data-name="Ebene 2"><g id="Mr_Peen" data-name="Mr Peen"><path class="cls-1" d="M572.62,437.39c-73.06-441.64-499.83-430.47-530,0-4.5,64.14-5.07,91.46,54.57,106.17h0c65.7,10.92,403.12-23.92,429.28-33l0,0C559.57,499.21,580.11,475.53,572.62,437.39ZM145.59,338a23.29,23.29,0,1,1,23.29-23.29A23.29,23.29,0,0,1,145.59,338Zm297.63-17.61a23.29,23.29,0,1,1,23.29-23.29A23.29,23.29,0,0,1,443.22,320.39Z" transform="translate(-40.33 -109.83)"/></g></g><rect class="cls-2" x="212.09" y="374.74" width="4.17" height="8" transform="translate(-70.65 -91.01) rotate(-4.7)"/><rect class="cls-2" x="213.24" y="388.69" width="4.17" height="8" transform="matrix(1, -0.08, 0.08, 1, -71.79, -90.87)"/><rect class="cls-2" x="218.07" y="374.25" width="4.17" height="8" transform="translate(-70.59 -90.52) rotate(-4.7)"/><rect class="cls-2" x="219.21" y="388.2" width="4.17" height="8" transform="translate(-71.73 -90.38) rotate(-4.7)"/><rect class="cls-2" x="224.05" y="373.75" width="4.17" height="8" transform="translate(-70.53 -90.03) rotate(-4.7)"/><rect class="cls-2" x="225.19" y="387.71" width="4.17" height="8" transform="translate(-71.67 -89.89) rotate(-4.7)"/><rect class="cls-2" x="230.03" y="373.26" width="4.17" height="8" transform="translate(-70.47 -89.54) rotate(-4.7)"/><rect class="cls-2" x="231.17" y="387.21" width="4.17" height="8" transform="translate(-71.61 -89.4) rotate(-4.7)"/><rect class="cls-2" x="236.01" y="372.77" width="4.17" height="8" transform="translate(-70.41 -89.05) rotate(-4.7)"/><rect class="cls-2" x="237.15" y="386.72" width="4.17" height="8" transform="translate(-71.55 -88.91) rotate(-4.7)"/><rect class="cls-2" x="241.99" y="372.28" width="4.17" height="8" transform="translate(-70.35 -88.56) rotate(-4.7)"/><rect class="cls-2" x="243.13" y="386.23" width="4.17" height="8" transform="translate(-71.49 -88.42) rotate(-4.7)"/><rect class="cls-2" x="247.97" y="371.79" width="4.17" height="8" transform="translate(-70.29 -88.08) rotate(-4.7)"/><rect class="cls-2" x="249.11" y="385.74" width="4.17" height="8" transform="translate(-71.43 -87.94) rotate(-4.7)"/><rect class="cls-2" x="253.95" y="371.29" width="4.17" height="8" transform="translate(-70.23 -87.59) rotate(-4.7)"/><rect class="cls-2" x="255.09" y="385.25" width="4.17" height="8" transform="translate(-71.37 -87.45) rotate(-4.7)"/><rect class="cls-2" x="259.93" y="370.8" width="4.17" height="8" transform="translate(-70.17 -87.1) rotate(-4.7)"/><rect class="cls-2" x="261.07" y="384.76" width="4.17" height="8" transform="translate(-71.31 -86.96) rotate(-4.7)"/><rect class="cls-2" x="265.91" y="370.31" width="4.17" height="8" transform="matrix(1, -0.08, 0.08, 1, -70.11, -86.61)"/><rect class="cls-2" x="267.05" y="384.26" width="4.17" height="8" transform="translate(-71.25 -86.47) rotate(-4.7)"/><rect class="cls-2" x="271.89" y="369.82" width="4.17" height="8" transform="translate(-70.05 -86.12) rotate(-4.7)"/><rect class="cls-2" x="273.03" y="383.77" width="4.17" height="8" transform="translate(-71.19 -85.98) rotate(-4.7)"/><rect class="cls-2" x="277.87" y="369.33" width="4.17" height="8" transform="translate(-69.99 -85.63) rotate(-4.7)"/><rect class="cls-2" x="279.01" y="383.28" width="4.17" height="8" transform="translate(-71.13 -85.49) rotate(-4.7)"/><rect class="cls-2" x="283.85" y="368.84" width="4.17" height="8" transform="translate(-69.93 -85.15) rotate(-4.7)"/><rect class="cls-2" x="284.99" y="382.79" width="4.17" height="8" transform="translate(-71.06 -85.01) rotate(-4.7)"/><rect class="cls-2" x="289.83" y="368.34" width="4.17" height="8" transform="translate(-69.87 -84.66) rotate(-4.7)"/><rect class="cls-2" x="290.97" y="382.3" width="4.17" height="8" transform="translate(-71 -84.52) rotate(-4.7)"/><rect class="cls-2" x="295.81" y="367.85" width="4.17" height="8" transform="translate(-69.8 -84.17) rotate(-4.7)"/><rect class="cls-2" x="296.95" y="381.81" width="4.17" height="8" transform="translate(-70.94 -84.03) rotate(-4.7)"/><rect class="cls-2" x="301.79" y="367.36" width="4.17" height="8" transform="matrix(1, -0.08, 0.08, 1, -69.74, -83.68)"/><rect class="cls-2" x="302.93" y="381.31" width="4.17" height="8" transform="translate(-70.88 -83.54) rotate(-4.7)"/><rect class="cls-2" x="307.76" y="366.87" width="4.17" height="8" transform="matrix(1, -0.08, 0.08, 1, -69.68, -83.19)"/><rect class="cls-2" x="308.91" y="380.82" width="4.17" height="8" transform="translate(-70.82 -83.05) rotate(-4.7)"/><rect class="cls-2" x="313.74" y="366.38" width="4.17" height="8" transform="translate(-69.62 -82.7) rotate(-4.7)"/><rect class="cls-2" x="314.89" y="380.33" width="4.17" height="8" transform="translate(-70.76 -82.56) rotate(-4.7)"/><rect class="cls-2" x="319.72" y="365.89" width="4.17" height="8" transform="matrix(1, -0.08, 0.08, 1, -69.56, -82.22)"/><rect class="cls-2" x="320.87" y="379.84" width="4.17" height="8" transform="translate(-70.7 -82.07) rotate(-4.7)"/><rect class="cls-2" x="325.7" y="365.39" width="4.17" height="8" transform="matrix(1, -0.08, 0.08, 1, -69.5, -81.73)"/><rect class="cls-2" x="326.85" y="379.35" width="4.17" height="8" transform="matrix(1, -0.08, 0.08, 1, -70.64, -81.59)"/><rect class="cls-2" x="331.68" y="364.9" width="4.17" height="8" transform="matrix(1, -0.08, 0.08, 1, -69.44, -81.24)"/><rect class="cls-2" x="332.83" y="378.86" width="4.17" height="8" transform="matrix(1, -0.08, 0.08, 1, -70.58, -81.1)"/><rect class="cls-2" x="337.66" y="364.41" width="4.17" height="8" transform="matrix(1, -0.08, 0.08, 1, -69.38, -80.75)"/><rect class="cls-2" x="338.81" y="378.36" width="4.17" height="8" transform="matrix(1, -0.08, 0.08, 1, -70.52, -80.61)"/><rect class="cls-2" x="343.64" y="363.92" width="4.17" height="8" transform="translate(-69.32 -80.26) rotate(-4.7)"/><rect class="cls-2" x="344.79" y="377.87" width="4.17" height="8" transform="translate(-70.46 -80.12) rotate(-4.7)"/><rect class="cls-2" x="349.62" y="363.43" width="4.17" height="8" transform="matrix(1, -0.08, 0.08, 1, -69.26, -79.77)"/><rect class="cls-2" x="350.77" y="377.38" width="4.17" height="8" transform="translate(-70.4 -79.63) rotate(-4.7)"/><rect class="cls-2" x="355.6" y="362.94" width="4.17" height="8" transform="matrix(1, -0.08, 0.08, 1, -69.2, -79.29)"/><rect class="cls-2" x="356.75" y="376.89" width="4.17" height="8" transform="matrix(1, -0.08, 0.08, 1, -70.34, -79.14)"/><rect class="cls-2" x="361.58" y="362.44" width="4.17" height="8" transform="translate(-69.14 -78.8) rotate(-4.7)"/><rect class="cls-2" x="362.73" y="376.4" width="4.17" height="8" transform="matrix(1, -0.08, 0.08, 1, -70.28, -78.66)"/><rect class="cls-2" x="367.56" y="361.95" width="4.17" height="8" transform="translate(-69.08 -78.31) rotate(-4.7)"/><rect class="cls-2" x="368.71" y="375.91" width="4.17" height="8" transform="translate(-70.22 -78.17) rotate(-4.7)"/><rect class="cls-2" x="373.54" y="361.46" width="4.17" height="8" transform="translate(-69.02 -77.82) rotate(-4.7)"/><rect class="cls-2" x="374.69" y="375.41" width="4.17" height="8" transform="translate(-70.16 -77.68) rotate(-4.7)"/><rect class="cls-2" x="212.39" y="378.2" width="163.04" height="2" transform="translate(-70.42 -84.47) rotate(-4.7)"/><rect class="cls-2" x="212.39" y="378.08" width="166.17" height="2" transform="translate(-70.4 -84.34) rotate(-4.7)"/><rect class="cls-2" x="203.31" y="375.37" width="7" height="22" transform="translate(-71.3 -91.58) rotate(-4.7)"/><path class="cls-2" d="M398.42,370.61h0a10.14,10.14,0,0,1,0,1.67A10.71,10.71,0,0,1,397,377a2.6,2.6,0,0,1-2.45-1.43,2.52,2.52,0,0,1-.27-1.38,3.2,3.2,0,0,0,2.69-2.42,3,3,0,0,0,.09-1.05c0-.11,0-.23,0-.34a3.24,3.24,0,1,0-4.22,3.68,4.2,4.2,0,0,0,.22,2l.2.47,1.61,3.17a11,11,0,0,1-6.43,2.77l-.5,0h0l-7,.57-1.8-21.93,7-.57h0l.5-.05A11,11,0,0,1,398.42,370.61Z" transform="translate(-40.33 -109.83)"/><path class="cls-2" d="M413.53,397.9l-7.58,3.84-11.15-22-1.61-3.17-.2-.47a4.2,4.2,0,0,1-.22-2,4.24,4.24,0,0,1,2.29-3.24,4,4,0,0,1,1.93-.44c0,.11,0,.23,0,.34a3,3,0,0,1-.09,1.05,2.63,2.63,0,0,0-2.69,2.42,2.52,2.52,0,0,0,.27,1.38A2.6,2.6,0,0,0,397,377a2.47,2.47,0,0,0,1.07-.28,2.6,2.6,0,0,0,1.16-3.52,2.55,2.55,0,0,0-.78-.93,10.14,10.14,0,0,0,0-1.67,4.18,4.18,0,0,1,2.1,1.64c.09.14.17.29.26.44Z" transform="translate(-40.33 -109.83)"/><path class="cls-3" d="M554.92,423.25a81.5,81.5,0,0,1-104.11,78.26q4.09.38,8.29.38a91.58,91.58,0,0,0,89.78-109.45A80.92,80.92,0,0,1,554.92,423.25Z" transform="translate(-40.33 -109.83)"/><path class="cls-3" d="M270.12,136.38c97.67-20.83,192.58,36.11,212,127.16A157.31,157.31,0,0,1,485,310.89q-1-8.46-2.75-17C460.38,191.61,353.72,127.61,244,151a216.43,216.43,0,0,0-38.12,11.85A191,191,0,0,1,270.12,136.38Z" transform="translate(-40.33 -109.83)"/></svg>