<?xml version="1.0" encoding="utf-8"?>
<!-- Generator: Adobe Illustrator 21.1.0, SVG Export Plug-In . SVG Version: 6.00 Build 0)  -->
<svg version="1.1" xmlns="http://www.w3.org/2000/svg" xmlns:xlink="http://www.w3.org/1999/xlink" x="0px" y="0px"
   viewBox="0 -300.375 1169.547 1092.375" enable-background="new 0 -300.375 1169.547 1092.375" xml:space="preserve">
<g id="Mask">
  <g id="Ebene_2_1_">
    <g id="Mr_Peen_1_">
      <path stroke="#000000" stroke-miterlimit="10" d="M572.623,325.887c-73.06-441.64-499.83-430.47-529.99,0
        c-4.5,64.14-5.07,91.46,54.57,106.17c0.01,0.01,0.03,0.01,0.04,0.01c65.7,10.92,403.12-23.92,429.28-32.95
        c0.02-0.01,0.03-0.01,0.05-0.02C559.573,387.707,580.113,364.027,572.623,325.887z M145.593,226.497
        c-12.86,0-23.29-10.42-23.29-23.29c0-12.86,10.43-23.29,23.29-23.29c12.87,0,23.29,10.43,23.29,23.29
        C168.883,216.077,158.463,226.497,145.593,226.497z M443.223,208.887c-12.86,0-23.29-10.43-23.29-23.29
        c0-12.86,10.43-23.29,23.29-23.29c12.86,0,23.29,10.43,23.29,23.29C466.513,198.457,456.083,208.887,443.223,208.887z"/>
    </g>
  </g>
  <g>
    
      <rect x="212.088" y="263.237" transform="matrix(0.9966 -0.082 0.082 0.9966 -21.1824 18.4528)" fill="#BFBFBF" stroke="#7F7C7C" stroke-miterlimit="10" width="4.167" height="8"/>
    
      <rect x="213.235" y="277.19" transform="matrix(0.9966 -0.082 0.082 0.9966 -22.3222 18.5938)" fill="#BFBFBF" stroke="#7F7C7C" stroke-miterlimit="10" width="4.167" height="8"/>
    
      <rect x="218.068" y="262.745" transform="matrix(0.9966 -0.082 0.082 0.9966 -21.1223 18.9415)" fill="#BFBFBF" stroke="#7F7C7C" stroke-miterlimit="10" width="4.167" height="8"/>
    
      <rect x="219.215" y="276.698" transform="matrix(0.9966 -0.082 0.082 0.9966 -22.2612 19.0817)" fill="#BFBFBF" stroke="#7F7C7C" stroke-miterlimit="10" width="4.167" height="8"/>
    
      <rect x="224.047" y="262.254" transform="matrix(0.9966 -0.082 0.082 0.9966 -21.0611 19.4292)" fill="#BFBFBF" stroke="#7F7C7C" stroke-miterlimit="10" width="4.167" height="8"/>
    
      <rect x="225.195" y="276.206" transform="matrix(0.9966 -0.082 0.082 0.9966 -22.2008 19.5702)" fill="#BFBFBF" stroke="#7F7C7C" stroke-miterlimit="10" width="4.167" height="8"/>
    
      <rect x="230.027" y="261.762" transform="matrix(0.9966 -0.0819 0.0819 0.9966 -20.9941 19.9108)" fill="#BFBFBF" stroke="#7F7C7C" stroke-miterlimit="10" width="4.167" height="8"/>
    
      <rect x="231.175" y="275.715" transform="matrix(0.9966 -0.082 0.082 0.9966 -22.1401 20.0583)" fill="#BFBFBF" stroke="#7F7C7C" stroke-miterlimit="10" width="4.167" height="8"/>
    
      <rect x="236.007" y="261.27" transform="matrix(0.9966 -0.0819 0.0819 0.9966 -20.9349 20.4004)" fill="#BFBFBF" stroke="#7F7C7C" stroke-miterlimit="10" width="4.167" height="8"/>
    
      <rect x="237.154" y="275.223" transform="matrix(0.9966 -0.082 0.082 0.9966 -22.0805 20.5476)" fill="#BFBFBF" stroke="#7F7C7C" stroke-miterlimit="10" width="4.167" height="8"/>
    
      <rect x="241.987" y="260.778" transform="matrix(0.9966 -0.0819 0.0819 0.9966 -20.8745 20.8887)" fill="#BFBFBF" stroke="#7F7C7C" stroke-miterlimit="10" width="4.167" height="8"/>
    
      <rect x="243.134" y="274.731" transform="matrix(0.9966 -0.082 0.082 0.9966 -22.0201 21.0361)" fill="#BFBFBF" stroke="#7F7C7C" stroke-miterlimit="10" width="4.167" height="8"/>
    
      <rect x="247.967" y="260.287" transform="matrix(0.9966 -0.0819 0.0819 0.9966 -20.8136 21.3765)" fill="#BFBFBF" stroke="#7F7C7C" stroke-miterlimit="10" width="4.167" height="8"/>
    
      <rect x="249.114" y="274.24" transform="matrix(0.9966 -0.082 0.082 0.9966 -21.9591 21.524)" fill="#BFBFBF" stroke="#7F7C7C" stroke-miterlimit="10" width="4.167" height="8"/>
    
      <rect x="253.946" y="259.795" transform="matrix(0.9966 -0.0819 0.0819 0.9966 -20.7532 21.8648)" fill="#BFBFBF" stroke="#7F7C7C" stroke-miterlimit="10" width="4.167" height="8"/>
    
      <rect x="255.094" y="273.748" transform="matrix(0.9966 -0.082 0.082 0.9966 -21.8987 22.0124)" fill="#BFBFBF" stroke="#7F7C7C" stroke-miterlimit="10" width="4.167" height="8"/>
    
      <rect x="259.926" y="259.303" transform="matrix(0.9966 -0.0819 0.0819 0.9966 -20.6928 22.3531)" fill="#BFBFBF" stroke="#7F7C7C" stroke-miterlimit="10" width="4.167" height="8"/>
    
      <rect x="261.074" y="273.256" transform="matrix(0.9966 -0.082 0.082 0.9966 -21.8391 22.5017)" fill="#BFBFBF" stroke="#7F7C7C" stroke-miterlimit="10" width="4.167" height="8"/>
    
      <rect x="265.906" y="258.812" transform="matrix(0.9966 -0.0819 0.0819 0.9966 -20.6329 22.842)" fill="#BFBFBF" stroke="#7F7C7C" stroke-miterlimit="10" width="4.167" height="8"/>
    
      <rect x="267.053" y="272.765" transform="matrix(0.9966 -0.082 0.082 0.9966 -21.7784 22.9899)" fill="#BFBFBF" stroke="#7F7C7C" stroke-miterlimit="10" width="4.167" height="8"/>
    
      <rect x="271.886" y="258.32" transform="matrix(0.9966 -0.0819 0.0819 0.9966 -20.5725 23.3303)" fill="#BFBFBF" stroke="#7F7C7C" stroke-miterlimit="10" width="4.167" height="8"/>
    
      <rect x="273.033" y="272.273" transform="matrix(0.9966 -0.0819 0.0819 0.9966 -21.7111 23.4703)" fill="#BFBFBF" stroke="#7F7C7C" stroke-miterlimit="10" width="4.167" height="8"/>
    
      <rect x="277.866" y="257.828" transform="matrix(0.9966 -0.0819 0.0819 0.9966 -20.5129 23.8196)" fill="#BFBFBF" stroke="#7F7C7C" stroke-miterlimit="10" width="4.167" height="8"/>
    
      <rect x="279.013" y="271.781" transform="matrix(0.9966 -0.0819 0.0819 0.9966 -21.651 23.9589)" fill="#BFBFBF" stroke="#7F7C7C" stroke-miterlimit="10" width="4.167" height="8"/>
    
      <rect x="283.846" y="257.336" transform="matrix(0.9966 -0.0819 0.0819 0.9966 -20.4513 24.3063)" fill="#BFBFBF" stroke="#7F7C7C" stroke-miterlimit="10" width="4.167" height="8"/>
    
      <rect x="284.993" y="271.289" transform="matrix(0.9966 -0.0819 0.0819 0.9966 -21.5906 24.4473)" fill="#BFBFBF" stroke="#7F7C7C" stroke-miterlimit="10" width="4.167" height="8"/>
    
      <rect x="289.825" y="256.845" transform="matrix(0.9966 -0.0819 0.0819 0.9966 -20.3901 24.7936)" fill="#BFBFBF" stroke="#7F7C7C" stroke-miterlimit="10" width="4.167" height="8"/>
    
      <rect x="290.973" y="270.798" transform="matrix(0.9966 -0.0819 0.0819 0.9966 -21.5302 24.9356)" fill="#BFBFBF" stroke="#7F7C7C" stroke-miterlimit="10" width="4.167" height="8"/>
    
      <rect x="295.805" y="256.353" transform="matrix(0.9966 -0.0819 0.0819 0.9966 -20.3309 25.2836)" fill="#BFBFBF" stroke="#7F7C7C" stroke-miterlimit="10" width="4.167" height="8"/>
    
      <rect x="296.953" y="270.306" transform="matrix(0.9966 -0.0819 0.0819 0.9966 -21.4703 25.4244)" fill="#BFBFBF" stroke="#7F7C7C" stroke-miterlimit="10" width="4.167" height="8"/>
    
      <rect x="301.785" y="255.861" transform="matrix(0.9966 -0.0819 0.0819 0.9966 -20.2705 25.7719)" fill="#BFBFBF" stroke="#7F7C7C" stroke-miterlimit="10" width="4.167" height="8"/>
    
      <rect x="302.932" y="269.814" transform="matrix(0.9966 -0.0819 0.0819 0.9966 -21.4099 25.9128)" fill="#BFBFBF" stroke="#7F7C7C" stroke-miterlimit="10" width="4.167" height="8"/>
    
      <rect x="307.765" y="255.37" transform="matrix(0.9966 -0.0819 0.0819 0.9966 -20.2101 26.2602)" fill="#BFBFBF" stroke="#7F7C7C" stroke-miterlimit="10" width="4.167" height="8"/>
    
      <rect x="308.912" y="269.323" transform="matrix(0.9966 -0.0819 0.0819 0.9966 -21.3496 26.4012)" fill="#BFBFBF" stroke="#7F7C7C" stroke-miterlimit="10" width="4.167" height="8"/>
    
      <rect x="313.745" y="254.878" transform="matrix(0.9966 -0.0819 0.0819 0.9966 -20.1493 26.7479)" fill="#BFBFBF" stroke="#7F7C7C" stroke-miterlimit="10" width="4.167" height="8"/>
    
      <rect x="314.892" y="268.831" transform="matrix(0.9966 -0.0819 0.0819 0.9966 -21.2887 26.8888)" fill="#BFBFBF" stroke="#7F7C7C" stroke-miterlimit="10" width="4.167" height="8"/>
    
      <rect x="319.724" y="254.386" transform="matrix(0.9966 -0.0819 0.0819 0.9966 -20.0889 27.2361)" fill="#BFBFBF" stroke="#7F7C7C" stroke-miterlimit="10" width="4.167" height="8"/>
    
      <rect x="320.872" y="268.339" transform="matrix(0.9966 -0.0819 0.0819 0.9966 -21.229 27.3781)" fill="#BFBFBF" stroke="#7F7C7C" stroke-miterlimit="10" width="4.167" height="8"/>
    
      <rect x="325.704" y="253.895" transform="matrix(0.9966 -0.0819 0.0819 0.9966 -20.0285 27.7245)" fill="#BFBFBF" stroke="#7F7C7C" stroke-miterlimit="10" width="4.167" height="8"/>
    
      <rect x="326.852" y="267.847" transform="matrix(0.9966 -0.0819 0.0819 0.9966 -21.1679 27.8654)" fill="#BFBFBF" stroke="#7F7C7C" stroke-miterlimit="10" width="4.167" height="8"/>
    
      <rect x="331.684" y="253.403" transform="matrix(0.9966 -0.0819 0.0819 0.9966 -19.9686 28.2135)" fill="#BFBFBF" stroke="#7F7C7C" stroke-miterlimit="10" width="4.167" height="8"/>
    
      <rect x="332.831" y="267.356" transform="matrix(0.9966 -0.0819 0.0819 0.9966 -21.1072 28.3533)" fill="#BFBFBF" stroke="#7F7C7C" stroke-miterlimit="10" width="4.167" height="8"/>
    
      <rect x="337.664" y="252.911" transform="matrix(0.9966 -0.0819 0.0819 0.9966 -19.9089 28.7029)" fill="#BFBFBF" stroke="#7F7C7C" stroke-miterlimit="10" width="4.167" height="8"/>
    
      <rect x="338.811" y="266.864" transform="matrix(0.9966 -0.0819 0.0819 0.9966 -21.0476 28.8427)" fill="#BFBFBF" stroke="#7F7C7C" stroke-miterlimit="10" width="4.167" height="8"/>
    
      <rect x="343.644" y="252.419" transform="matrix(0.9966 -0.0819 0.0819 0.9966 -19.8473 29.1894)" fill="#BFBFBF" stroke="#7F7C7C" stroke-miterlimit="10" width="4.167" height="8"/>
    
      <rect x="344.791" y="266.372" transform="matrix(0.9966 -0.0819 0.0819 0.9966 -20.9867 29.3303)" fill="#BFBFBF" stroke="#7F7C7C" stroke-miterlimit="10" width="4.167" height="8"/>
    
      <rect x="349.624" y="251.928" transform="matrix(0.9966 -0.0819 0.0819 0.9966 -19.7862 29.6765)" fill="#BFBFBF" stroke="#7F7C7C" stroke-miterlimit="10" width="4.167" height="8"/>
    
      <rect x="350.771" y="265.881" transform="matrix(0.9966 -0.0819 0.0819 0.9966 -20.9263 29.8186)" fill="#BFBFBF" stroke="#7F7C7C" stroke-miterlimit="10" width="4.167" height="8"/>
    
      <rect x="355.603" y="251.436" transform="matrix(0.9966 -0.0819 0.0819 0.9966 -19.7265 30.166)" fill="#BFBFBF" stroke="#7F7C7C" stroke-miterlimit="10" width="4.167" height="8"/>
    
      <rect x="356.751" y="265.389" transform="matrix(0.9966 -0.0819 0.0819 0.9966 -20.8659 30.3069)" fill="#BFBFBF" stroke="#7F7C7C" stroke-miterlimit="10" width="4.167" height="8"/>
    
      <rect x="361.583" y="250.944" transform="matrix(0.9966 -0.0819 0.0819 0.9966 -19.6666 30.655)" fill="#BFBFBF" stroke="#7F7C7C" stroke-miterlimit="10" width="4.167" height="8"/>
    
      <rect x="362.731" y="264.897" transform="matrix(0.9966 -0.0819 0.0819 0.9966 -20.8059 30.7959)" fill="#BFBFBF" stroke="#7F7C7C" stroke-miterlimit="10" width="4.167" height="8"/>
    
      <rect x="367.563" y="250.453" transform="matrix(0.9966 -0.0819 0.0819 0.9966 -19.6062 31.1434)" fill="#BFBFBF" stroke="#7F7C7C" stroke-miterlimit="10" width="4.167" height="8"/>
    
      <rect x="368.71" y="264.406" transform="matrix(0.9966 -0.0819 0.0819 0.9966 -20.7456 31.2843)" fill="#BFBFBF" stroke="#7F7C7C" stroke-miterlimit="10" width="4.167" height="8"/>
    
      <rect x="373.543" y="249.961" transform="matrix(0.9966 -0.0819 0.0819 0.9966 -19.5458 31.6317)" fill="#BFBFBF" stroke="#7F7C7C" stroke-miterlimit="10" width="4.167" height="8"/>
    
      <rect x="374.69" y="263.914" transform="matrix(0.9966 -0.0819 0.0819 0.9966 -20.6852 31.7727)" fill="#BFBFBF" stroke="#7F7C7C" stroke-miterlimit="10" width="4.167" height="8"/>
    
      <rect x="212.394" y="266.703" transform="matrix(0.9966 -0.082 0.082 0.9966 -20.9497 24.9869)" fill="#BFBFBF" stroke="#7F7C7C" stroke-miterlimit="10" width="163.044" height="2"/>
    
      <rect x="212.389" y="266.575" transform="matrix(0.9966 -0.082 0.082 0.9966 -20.934 25.114)" fill="#BFBFBF" stroke="#7F7C7C" stroke-miterlimit="10" width="166.167" height="2"/>
    
      <rect x="203.313" y="263.866" transform="matrix(0.9966 -0.0819 0.0819 0.9966 -21.8276 17.8711)" fill="#BFBFBF" stroke="#7F7C7C" stroke-miterlimit="10" width="7" height="22"/>
    <path fill="#BFBFBF" stroke="#7F7C7C" stroke-miterlimit="10" d="M398.421,259.11l0.001,0.01c0.046,0.558,0.052,1.119,0.006,1.665
      c-0.111,1.705-0.621,3.312-1.448,4.725c-0.989,0.051-1.956-0.481-2.446-1.434c-0.227-0.443-0.316-0.917-0.274-1.382
      c1.34-0.18,2.383-1.159,2.691-2.419c0.093-0.329,0.124-0.693,0.094-1.051c-0.009-0.11-0.029-0.228-0.048-0.337
      c-0.303-1.611-1.783-2.763-3.447-2.626c-1.794,0.147-3.12,1.711-2.974,3.495c0.109,1.326,1.01,2.405,2.198,2.809
      c-0.086,0.659-0.03,1.347,0.215,2.009l0.199,0.465l1.605,3.169c-1.729,1.547-3.943,2.562-6.435,2.767
      c-0.169,0.014-0.329,0.027-0.499,0.031l0.001,0.01l-6.977,0.574l-1.803-21.926l6.977-0.574l0.001,0.01
      c0.169-0.024,0.328-0.037,0.497-0.051C392.607,248.551,397.923,253.051,398.421,259.11z"/>
    <path fill="#BFBFBF" stroke="#7F7C7C" stroke-miterlimit="10" d="M413.529,286.404l-7.581,3.844l-11.154-22.04l-1.605-3.169
      l-0.199-0.465c-0.245-0.662-0.302-1.35-0.215-2.009c0.18-1.349,0.992-2.58,2.292-3.239c0.616-0.311,1.277-0.456,1.93-0.44
      c0.019,0.109,0.039,0.228,0.048,0.337c0.029,0.359-0.001,0.722-0.094,1.051c-0.423-0.015-0.856,0.08-1.261,0.284
      c-0.848,0.421-1.372,1.257-1.43,2.134c-0.042,0.465,0.047,0.939,0.274,1.382c0.49,0.953,1.457,1.486,2.446,1.434
      c0.361-0.01,0.724-0.1,1.071-0.279c1.301-0.649,1.814-2.226,1.156-3.517c-0.192-0.386-0.458-0.695-0.779-0.929
      c0.046-0.546,0.039-1.107-0.006-1.665c0.837,0.292,1.586,0.863,2.102,1.643c0.092,0.143,0.174,0.287,0.257,0.44L413.529,286.404z"
      />
  </g>
  <path fill="#FFFFFF" d="M554.92,311.75c0,44.99-36.47,81.46-81.45,81.46c-7.86,0-15.47-1.11-22.66-3.2
    c2.73,0.25,5.49,0.38,8.29,0.38c50.55,0,91.54-40.98,91.54-91.54c0-6.13-0.6-12.12-1.76-17.91
    C552.78,290.44,554.92,300.84,554.92,311.75z"/>
  <path fill="#FFFFFF" d="M270.119,24.884c97.669-20.827,192.584,36.111,211.999,127.157c3.393,15.91,4.267,31.827,2.834,47.348
    c-0.636-5.642-1.545-11.288-2.753-16.956C460.38,80.112,353.723,16.113,243.962,39.519c-13.308,2.838-26.053,6.825-38.121,11.853
    C224.781,39.08,246.435,29.934,270.119,24.884z"/>
</g>
</svg>