<svg id="Collar" xmlns="http://www.w3.org/2000/svg" viewBox="0 0 451.59 108.06"><defs><style>.cls-1{fill:#333;}.cls-1,.cls-2{stroke:#231f20;stroke-width:3px;}.cls-1,.cls-2,.cls-3{stroke-miterlimit:10;}.cls-2{fill:none;stroke-dasharray:10;}.cls-3{fill:#bfbfbf;stroke:#7b7979;stroke-width:2px;}</style></defs><title>Collar</title><path class="cls-1" d="M540.5,567.14,413.22,576h0l-14.47,1L92.5,598.44,99,543.36l427-29.85Q533.89,541,540.5,567.14Z" transform="translate(-90.8 -511.93)"/><line class="cls-2" x1="7.48" y1="37.22" x2="436.89" y2="7.52"/><line class="cls-2" x1="1.7" y1="82.07" x2="448.39" y2="50.02"/><path class="cls-3" d="M310.14,549.23a34.92,34.92,0,1,0,37.31,32.35A34.92,34.92,0,0,0,310.14,549.23Zm4.33,60.85a26.08,26.08,0,1,1,24.16-27.87A26.08,26.08,0,0,1,314.47,610.08Z" transform="translate(-90.8 -511.93)"/><circle class="cls-3" cx="310.61" cy="555.88" r="15.34" transform="matrix(1, -0.07, 0.07, 1, -129.5, -488.46)"/></svg>