<svg id="Ebene_3" data-name="Ebene 3" xmlns="http://www.w3.org/2000/svg" viewBox="0 0 307.65 383.86"><defs><style>.cls-1{opacity:0.6;}.cls-2,.cls-3{fill:#f79552;stroke:#fc7a22;stroke-miterlimit:10;stroke-width:3px;}.cls-3{opacity:0.9;}</style></defs><title>Kondom Orange</title><g class="cls-1"><path class="cls-2" d="M442,345.53q0-10.9-.72-21.53" transform="translate(-153.79 -92.83)"/><line class="cls-2" x1="15.54" y1="365.07" x2="15.54" y2="365.06"/><path class="cls-2" d="M442,345.53v98.58c-4.45,1.14-9.53,2.27-15.16,3.38-27.64,5.44-68.71,10.31-114.68,13.11-43.78,2.67-83.38,2.92-111.31,1.18-13.51-.84-24.3-2.16-31.52-3.89V345.53q0-10.91.72-21.53c4.29-64,27.47-119.36,60.89-152.9a0,0,0,0,0,0,0c10.88-10.58,15.72-29.91-5.78-34.48h0l-.1,0c-.45-.12-.91-.24-1.39-.34h0a21.34,21.34,0,0,1,5.73-41.89c.25,0,.51,0,.76,0h0c22.2-.68,44.07,38.15,85,43.14,66.21,7,119.43,86.2,126.15,186.51Z" transform="translate(-153.79 -92.83)"/><path class="cls-2" d="M230.94,171.1l-.09.14" transform="translate(-153.79 -92.83)"/></g><path class="cls-3" d="M459.93,446.19c.26,4.25-12.53,9-34,13.31C398.26,465.11,356.24,470.18,309,473c-40.81,2.49-77.19,2.69-104.25,1.21-28.6-1.55-46.79-5-48.79-9.56-2-5-.32-10.82,11-7.41q1.08.32,2.31.6c7.22,1.73,18,3,31.52,3.89,27.93,1.74,67.53,1.49,111.31-1.18,46-2.8,87-7.67,114.68-13.11,5.63-1.11,10.71-2.24,15.16-3.38,3.82-1,7.18-2,10-3C458,439.56,459.81,444.27,459.93,446.19Z" transform="translate(-153.79 -92.83)"/></svg>