<svg xmlns="http://www.w3.org/2000/svg" viewBox="0 0 458.32 164.83"><title>Element 3</title><g id="Ebene_2" data-name="Ebene 2"><g id="Ankle_Cuffs" data-name="Ankle Cuffs"><path d="M139.56,127a13.66,13.66,0,0,0-1.92-3.81,14.17,14.17,0,0,0-2.47-2.68l-6.55-5.46a68.59,68.59,0,1,0-19.19,20.84l7.63,6.36a13.6,13.6,0,0,0,2.82,1.83,12.36,12.36,0,0,0,3.91,1.26,13.63,13.63,0,0,0,4.55,0,13,13,0,0,1-3.59-6.85,7.22,7.22,0,0,1-3.35-.61,8.22,8.22,0,0,1-2-1.23l-5.28-4.41a69.93,69.93,0,0,0,10.8-11.57l4.6,3.83a7.92,7.92,0,0,1,2.66,4.41,8.07,8.07,0,0,1,.16,2.19,7.64,7.64,0,0,1-1.42,4,4,4,0,0,1-.39.53,7.71,7.71,0,0,1-1.8,1.59,9.34,9.34,0,0,0,4,6.7,14.3,14.3,0,0,0,6.78-7.84,13.91,13.91,0,0,0,.77-3.75A14.22,14.22,0,0,0,139.56,127Zm-54,12.49A61.89,61.89,0,1,1,129.2,63.65,61.9,61.9,0,0,1,85.55,139.53Z" fill="#a7a9ac" stroke="#7d7f81" stroke-miterlimit="10"/><path d="M186.26,150.08a12.88,12.88,0,0,1-4.31,6.53,9.44,9.44,0,0,1-2.35-3.87,9.38,9.38,0,0,0,2.32-4,9.39,9.39,0,0,0-6.45-11.57l-34.91-9.92a9,9,0,0,0-1-.22,13.66,13.66,0,0,0-1.92-3.81,12.76,12.76,0,0,1,3.43.5L177.33,134a13,13,0,0,1,8.93,16Z" fill="#a7a9ac" stroke="#7d7f81" stroke-miterlimit="10"/><path d="M178.37,158.66a12.9,12.9,0,0,1-8.14.35L134,148.7a13,13,0,0,1-3.61-23.3,7.77,7.77,0,0,1,1.79,3.56,9.38,9.38,0,0,0,.52,15,9.53,9.53,0,0,0,2.77,1.3l34.9,9.93a9.31,9.31,0,0,0,5.73-.2A12.86,12.86,0,0,0,178.37,158.66Z" fill="#a7a9ac" stroke="#7d7f81" stroke-miterlimit="10"/><path d="M406.82,2.89a68.92,68.92,0,0,0-77.13,101.87l-6.55,5.46a14.11,14.11,0,0,0-5.07,10.58l3.73-1.46a12.63,12.63,0,0,1,4.4-.88,7.94,7.94,0,0,1,2.62-4.24l4.6-3.83A70.35,70.35,0,0,0,344.22,122l-5.28,4.41-.36.28a7.72,7.72,0,0,1-1.67,1,10.74,10.74,0,0,1-2.58.63,7.44,7.44,0,0,1-1.63-.12c-.3,0-.58-.11-.88-.18a7.91,7.91,0,0,1-4-2.58,4,4,0,0,1-.39-.53,7.94,7.94,0,0,1-1.17-2.46,9.1,9.1,0,0,0-4,.61l-3.75,1.46a11.25,11.25,0,0,0,.4,1.37,13.83,13.83,0,0,0,2.47,4.35,14,14,0,0,0,13,4.92l.17,0a12.5,12.5,0,0,0,3.92-1.26c.31-.15.62-.32.92-.5a12.66,12.66,0,0,0,1.89-1.33l7.63-6.36A68.93,68.93,0,1,0,406.82,2.89Zm41.81,82.65A61.89,61.89,0,1,1,405,9.68,61.9,61.9,0,0,1,448.63,85.54Z" fill="#a7a9ac" stroke="#7d7f81" stroke-miterlimit="10"/><path d="M238.74,150a13,13,0,0,1-3.39,8.76,9.39,9.39,0,0,1-2.86-3.45,9.36,9.36,0,0,0-7.66-14.76H188.54a9.13,9.13,0,0,0-3,.49,12.83,12.83,0,0,0-2.08-3.18,12.68,12.68,0,0,1,4.59-.84h37.69a12.92,12.92,0,0,1,8.29,3,13.17,13.17,0,0,1,2.58,2.89A13,13,0,0,1,238.74,150Z" fill="#a7a9ac" stroke="#7d7f81" stroke-miterlimit="10"/><path d="M232.14,161.34a12.86,12.86,0,0,1-6.38,1.68H188.07a13,13,0,0,1-9.18-22.16,12.12,12.12,0,0,1,1-.9,9.19,9.19,0,0,1,2,3.45,9.31,9.31,0,0,0-2.67,6.54,9.34,9.34,0,0,0,2.77,6.66,9.37,9.37,0,0,0,6.59,2.71h36.29a9.34,9.34,0,0,0,4.55-1.18A13.21,13.21,0,0,0,232.14,161.34Z" fill="#a7a9ac" stroke="#7d7f81" stroke-miterlimit="10"/><path d="M291.11,151.35a13.29,13.29,0,0,1-.31,2.84,9.26,9.26,0,0,1-4.32-1.62,9.37,9.37,0,0,0-9.28-10.67H240.91a9.21,9.21,0,0,0-4.28,1,13.17,13.17,0,0,0-2.58-2.89,12.9,12.9,0,0,1,6.39-1.68h37.69a13.13,13.13,0,0,1,2.1.17,12.66,12.66,0,0,1,3.76,1.22A13,13,0,0,1,291.11,151.35Z" fill="#a7a9ac" stroke="#7d7f81" stroke-miterlimit="10"/><path d="M289.31,158a13,13,0,0,1-11.18,6.38H240.44a13,13,0,0,1-8.3-3,13.21,13.21,0,0,1-2.76-3.2,13,13,0,0,1,1.38-15.44,9.31,9.31,0,0,1,2.5,3.17,9.36,9.36,0,0,0-.77,9.48,9.39,9.39,0,0,0,2.86,3.45,9.29,9.29,0,0,0,5.56,1.83H277.2a9.35,9.35,0,0,0,6.62-2.74,9.77,9.77,0,0,0,1.19-1.45A13.36,13.36,0,0,0,289.31,158Z" fill="#a7a9ac" stroke="#7d7f81" stroke-miterlimit="10"/><path d="M338.58,126.65a7.72,7.72,0,0,1-1.67,1,10.74,10.74,0,0,1-2.58.63,9.3,9.3,0,0,0-8.08-5.87,9.1,9.1,0,0,0-4,.61l-3.75,1.46-30.06,11.74a9.28,9.28,0,0,0-4.42,3.59,12.66,12.66,0,0,0-3.76-1.22,13,13,0,0,1,6.46-5.49l31.38-12.25,3.73-1.46a12.63,12.63,0,0,1,4.4-.88A12.94,12.94,0,0,1,338.58,126.65Z" fill="#a7a9ac" stroke="#7d7f81" stroke-miterlimit="10"/><path d="M339.36,133.29a12.65,12.65,0,0,1-.95,3.36,12.88,12.88,0,0,1-7.17,6.87l-35.11,13.71a12.87,12.87,0,0,1-6.82.72,13.36,13.36,0,0,1-4.3-1.51,13,13,0,0,1-6.2-14.4,9.31,9.31,0,0,1,3.74,1.54,9.27,9.27,0,0,0,.55,4.71,9.15,9.15,0,0,0,3.38,4.28,9.38,9.38,0,0,0,8.75,1L329,140.42a9.4,9.4,0,0,0,5.17-5,3.12,3.12,0,0,0,.15-.39l.17,0a12.5,12.5,0,0,0,3.92-1.26C338.75,133.64,339.06,133.47,339.36,133.29Z" fill="#a7a9ac" stroke="#7d7f81" stroke-miterlimit="10"/></g></g></svg>