<?xml version="1.0" encoding="utf-8"?>
<!-- Generator: Adobe Illustrator 21.1.0, SVG Export Plug-In . SVG Version: 6.00 Build 0)  -->
<svg version="1.1" id="Ebene_1" xmlns="http://www.w3.org/2000/svg" xmlns:xlink="http://www.w3.org/1999/xlink" x="0px" y="0px"
	 viewBox="0 0 534.3 436.3" style="enable-background:new 0 0 534.3 436.3;" xml:space="preserve">
<style type="text/css">
	.st0{stroke:#000000;stroke-miterlimit:10;}
	.st1{fill:#BFBFBF;stroke:#7F7C7C;stroke-miterlimit:10;}
	.st2{fill:#FFFFFF;}
</style>
<title>Element 5</title>
<g id="Ebene_2">
	<g id="Mask">
		<g id="Ebene_2-2">
			<g id="Mr_Peen">
				<path class="st0" d="M532.4,328c-73.1-441.6-499.8-430.5-530,0c-4.5,64.1-5.1,91.5,54.6,106.2l0,0
					c65.7,10.9,403.1-23.9,429.3-33h0C519.3,389.8,539.9,366.1,532.4,328z M105.4,228.6c-12.9,0-23.3-10.4-23.3-23.3
					S92.5,182,105.4,182s23.3,10.4,23.3,23.3C128.7,218.1,118.2,228.6,105.4,228.6C105.4,228.6,105.4,228.6,105.4,228.6L105.4,228.6
					z M403,211c-12.9,0-23.3-10.4-23.3-23.3c0-12.9,10.4-23.3,23.3-23.3c12.9,0,23.3,10.4,23.3,23.3C426.3,200.5,415.9,211,403,211
					C403,211,403,211,403,211L403,211z"/>
			</g>
		</g>
		
			<rect x="171.8" y="265.3" transform="matrix(0.9966 -8.193851e-02 8.193851e-02 0.9966 -21.4828 15.1561)" class="st1" width="4.2" height="8"/>
		
			<rect x="173" y="279.3" transform="matrix(0.9966 -8.193851e-02 8.193851e-02 0.9966 -22.6227 15.2973)" class="st1" width="4.2" height="8"/>
		
			<rect x="177.8" y="264.8" transform="matrix(0.9966 -8.193851e-02 8.193851e-02 0.9966 -21.4226 15.6444)" class="st1" width="4.2" height="8"/>
		
			<rect x="179" y="278.8" transform="matrix(0.9966 -8.193851e-02 8.193851e-02 0.9966 -22.5625 15.7856)" class="st1" width="4.2" height="8"/>
		
			<rect x="183.8" y="264.3" transform="matrix(0.9966 -8.193851e-02 8.193851e-02 0.9966 -21.3625 16.1328)" class="st1" width="4.2" height="8"/>
		
			<rect x="184.9" y="278.3" transform="matrix(0.9966 -8.193851e-02 8.193851e-02 0.9966 -22.5016 16.2738)" class="st1" width="4.2" height="8"/>
		
			<rect x="189.8" y="263.8" transform="matrix(0.9966 -8.193851e-02 8.193851e-02 0.9966 -21.3016 16.6211)" class="st1" width="4.2" height="8"/>
		
			<rect x="190.9" y="277.8" transform="matrix(0.9966 -8.193851e-02 8.193851e-02 0.9966 -22.4415 16.7622)" class="st1" width="4.2" height="8"/>
		
			<rect x="195.9" y="263.2" transform="matrix(0.9968 -7.974522e-02 7.974522e-02 0.9968 -20.6766 16.6392)" class="st1" width="4.2" height="8"/>
		
			<rect x="196.9" y="277.3" transform="matrix(0.9966 -8.193851e-02 8.193851e-02 0.9966 -22.3814 17.2505)" class="st1" width="4.2" height="8"/>
		
			<rect x="201.7" y="262.8" transform="matrix(0.9968 -7.974522e-02 7.974522e-02 0.9968 -20.6282 17.1015)" class="st1" width="4.2" height="8"/>
		
			<rect x="202.9" y="276.8" transform="matrix(0.9966 -8.193851e-02 8.193851e-02 0.9966 -22.3212 17.7388)" class="st1" width="4.2" height="8"/>
		
			<rect x="207.7" y="262.4" transform="matrix(0.9966 -8.193851e-02 8.193851e-02 0.9966 -21.1204 18.086)" class="st1" width="4.2" height="8"/>
		
			<rect x="208.9" y="276.3" transform="matrix(0.9966 -8.193851e-02 8.193851e-02 0.9966 -22.2603 18.2271)" class="st1" width="4.2" height="8"/>
		
			<rect x="213.7" y="262" transform="matrix(0.9968 -7.974522e-02 7.974522e-02 0.9968 -20.5265 18.0527)" class="st1" width="4.2" height="8"/>
		
			<rect x="214.8" y="275.8" transform="matrix(0.9966 -8.193851e-02 8.193851e-02 0.9966 -22.2002 18.7155)" class="st1" width="4.2" height="8"/>
		
			<rect x="219.7" y="261.4" transform="matrix(0.9966 -8.193851e-02 8.193851e-02 0.9966 -20.9993 19.0626)" class="st1" width="4.2" height="8"/>
		
			<rect x="220.8" y="275.3" transform="matrix(0.9966 -8.193851e-02 8.193851e-02 0.9966 -22.1392 19.2037)" class="st1" width="4.2" height="8"/>
		
			<rect x="225.6" y="260.9" transform="matrix(0.9966 -8.193851e-02 8.193851e-02 0.9966 -20.9392 19.5509)" class="st1" width="4.2" height="8"/>
		
			<rect x="226.8" y="274.9" transform="matrix(0.9966 -8.193851e-02 8.193851e-02 0.9966 -22.0791 19.692)" class="st1" width="4.2" height="8"/>
		
			<rect x="231.6" y="260.3" transform="matrix(0.9968 -7.974522e-02 7.974522e-02 0.9968 -20.3331 19.4777)" class="st1" width="4.2" height="8"/>
		
			<rect x="232.8" y="274.4" transform="matrix(0.9966 -8.193851e-02 8.193851e-02 0.9966 -22.0181 20.1811)" class="st1" width="4.2" height="8"/>
		
			<rect x="237.6" y="259.9" transform="matrix(0.9966 -8.193851e-02 8.193851e-02 0.9966 -20.819 20.5276)" class="st1" width="4.2" height="8"/>
		
			<rect x="238.8" y="273.9" transform="matrix(0.9966 -8.193851e-02 8.193851e-02 0.9966 -21.958 20.6695)" class="st1" width="4.2" height="8"/>
		
			<rect x="243.6" y="259.4" transform="matrix(0.9966 -8.193851e-02 8.193851e-02 0.9966 -20.758 21.0166)" class="st1" width="4.2" height="8"/>
		
			<rect x="244.7" y="273.4" transform="matrix(0.9966 -8.193851e-02 8.193851e-02 0.9966 -21.8979 21.1578)" class="st1" width="4.2" height="8"/>
		
			<rect x="249.6" y="258.9" transform="matrix(0.9966 -8.193851e-02 8.193851e-02 0.9966 -20.6971 21.5049)" class="st1" width="4.2" height="8"/>
		
			<rect x="250.7" y="272.9" transform="matrix(0.9966 -8.193851e-02 8.193851e-02 0.9966 -21.8378 21.6461)" class="st1" width="4.2" height="8"/>
		
			<rect x="255.5" y="258.6" transform="matrix(0.9968 -7.974522e-02 7.974522e-02 0.9968 -20.1256 21.3807)" class="st1" width="4.2" height="8"/>
		
			<rect x="256.7" y="272.4" transform="matrix(0.9966 -8.193851e-02 8.193851e-02 0.9966 -21.7768 22.1343)" class="st1" width="4.2" height="8"/>
		
			<rect x="261.5" y="258.1" transform="matrix(0.9968 -7.974522e-02 7.974522e-02 0.9968 -20.0631 21.8557)" class="st1" width="4.2" height="8"/>
		
			<rect x="262.7" y="271.8" transform="matrix(0.9968 -7.974522e-02 7.974522e-02 0.9968 -21.1531 21.9918)" class="st1" width="4.2" height="8"/>
		
			<rect x="267.6" y="257.4" transform="matrix(0.9968 -7.974522e-02 7.974522e-02 0.9968 -19.9877 22.3359)" class="st1" width="4.2" height="8"/>
		
			<rect x="268.7" y="271.4" transform="matrix(0.9966 -8.193851e-02 8.193851e-02 0.9966 -21.6558 23.111)" class="st1" width="4.2" height="8"/>
		
			<rect x="273.5" y="257" transform="matrix(0.9966 -8.193851e-02 8.193851e-02 0.9966 -20.4566 23.4582)" class="st1" width="4.2" height="8"/>
		
			<rect x="274.6" y="270.9" transform="matrix(0.9966 -8.193851e-02 8.193851e-02 0.9966 -21.5956 23.5993)" class="st1" width="4.2" height="8"/>
		
			<rect x="279.5" y="256.5" transform="matrix(0.9966 -8.193851e-02 8.193851e-02 0.9966 -20.3956 23.9465)" class="st1" width="4.2" height="8"/>
		
			<rect x="280.6" y="270.4" transform="matrix(0.9966 -8.193851e-02 8.193851e-02 0.9966 -21.5355 24.0876)" class="st1" width="4.2" height="8"/>
		
			<rect x="285.5" y="256" transform="matrix(0.9966 -8.193851e-02 8.193851e-02 0.9966 -20.3355 24.4348)" class="st1" width="4.2" height="8"/>
		
			<rect x="286.6" y="269.9" transform="matrix(0.9966 -8.193851e-02 8.193851e-02 0.9966 -21.4754 24.576)" class="st1" width="4.2" height="8"/>
		
			<rect x="291.4" y="255.5" transform="matrix(0.9966 -8.193851e-02 8.193851e-02 0.9966 -20.2746 24.9231)" class="st1" width="4.2" height="8"/>
		
			<rect x="292.6" y="269.4" transform="matrix(0.9966 -8.193851e-02 8.193851e-02 0.9966 -21.4137 25.0641)" class="st1" width="4.2" height="8"/>
		
			<rect x="297.4" y="255" transform="matrix(0.9966 -8.193851e-02 8.193851e-02 0.9966 -20.2144 25.4114)" class="st1" width="4.2" height="8"/>
		
			<rect x="298.6" y="269" transform="matrix(0.9968 -7.974522e-02 7.974522e-02 0.9968 -20.8142 24.8463)" class="st1" width="4.2" height="8"/>
		
			<rect x="303.4" y="254.5" transform="matrix(0.9966 -8.193851e-02 8.193851e-02 0.9966 -20.1543 25.8997)" class="st1" width="4.2" height="8"/>
		
			<rect x="304.5" y="268.5" transform="matrix(0.9966 -8.193851e-02 8.193851e-02 0.9966 -21.2934 26.0408)" class="st1" width="4.2" height="8"/>
		
			<rect x="309.4" y="254" transform="matrix(0.9966 -8.193851e-02 8.193851e-02 0.9966 -20.0942 26.3881)" class="st1" width="4.2" height="8"/>
		
			<rect x="310.5" y="268" transform="matrix(0.9966 -8.193851e-02 8.193851e-02 0.9966 -21.2333 26.5291)" class="st1" width="4.2" height="8"/>
		
			<rect x="315.4" y="253.5" transform="matrix(0.9966 -8.193851e-02 8.193851e-02 0.9966 -20.0333 26.8763)" class="st1" width="4.2" height="8"/>
		
			<rect x="316.5" y="267.5" transform="matrix(0.9966 -8.193851e-02 8.193851e-02 0.9966 -21.1732 27.0175)" class="st1" width="4.2" height="8"/>
		
			<rect x="321.6" y="253.1" transform="matrix(0.9968 -7.974522e-02 7.974522e-02 0.9968 -19.4752 26.6304)" class="st1" width="4.2" height="8"/>
		
			<rect x="322.5" y="267" transform="matrix(0.9966 -8.193851e-02 8.193851e-02 0.9966 -21.113 27.5058)" class="st1" width="4.2" height="8"/>
		
			<rect x="327.8" y="252.5" transform="matrix(0.9968 -7.974522e-02 7.974522e-02 0.9968 -19.4045 27.1231)" class="st1" width="4.2" height="8"/>
		
			<rect x="328.5" y="266.3" transform="matrix(0.9968 -7.974522e-02 7.974522e-02 0.9968 -20.5002 27.2257)" class="st1" width="4.2" height="8"/>
		
			<rect x="333.3" y="251.8" transform="matrix(0.9968 -7.974522e-02 7.974522e-02 0.9968 -19.3337 27.5633)" class="st1" width="4.2" height="8"/>
		
			<rect x="334.4" y="266" transform="matrix(0.9966 -8.193851e-02 8.193851e-02 0.9966 -20.9912 28.4823)" class="st1" width="4.2" height="8"/>
		
			<rect x="172.1" y="268.8" transform="matrix(0.9966 -8.193851e-02 8.193851e-02 0.9966 -21.2535 21.6919)" class="st1" width="163" height="2"/>
		
			<rect x="172.1" y="268.7" transform="matrix(0.9966 -8.193851e-02 8.193851e-02 0.9966 -21.2369 21.8192)" class="st1" width="166.2" height="2"/>
		
			<rect x="163.1" y="265.9" transform="matrix(0.9966 -8.193851e-02 8.193851e-02 0.9966 -22.1324 14.5791)" class="st1" width="7" height="22"/>
		<path class="st1" d="M358.2,261.2L358.2,261.2c0,0.6,0,1.1,0,1.7c-0.1,1.7-0.6,3.3-1.5,4.7c-1,0.1-2-0.5-2.5-1.4
			c-0.2-0.4-0.3-0.9-0.3-1.4c1.3-0.2,2.4-1.1,2.7-2.4c0.1-0.3,0.1-0.7,0.1-1c0-0.1,0-0.2,0-0.3c-0.3-1.8-2-2.9-3.8-2.6
			c-1.8,0.3-2.9,2-2.6,3.8c0.2,1.1,1,2.1,2.1,2.5c-0.1,0.7,0,1.4,0.2,2l0.2,0.5l1.6,3.2c-1.8,1.6-4,2.6-6.4,2.8h-0.5l0,0l-7,0.6
			l-1.8-21.9l7-0.6l0,0l0.5-0.1C352.4,250.6,357.7,255.1,358.2,261.2z"/>
		<path class="st1" d="M373.3,288.5l-7.6,3.8l-11.1-22l-1.6-3.2l-0.2-0.5c-0.2-0.6-0.3-1.3-0.2-2c0.2-1.4,1-2.6,2.3-3.2
			c0.6-0.3,1.3-0.5,1.9-0.4c0,0.1,0,0.2,0,0.3c0,0.4,0,0.7-0.1,1c-1.4,0-2.6,1-2.7,2.4c0,0.5,0.1,1,0.3,1.4c0.5,0.9,1.4,1.5,2.5,1.4
			c0.4,0,0.7-0.1,1.1-0.3c1.3-0.6,1.8-2.2,1.2-3.5c0,0,0,0,0,0c-0.2-0.4-0.4-0.7-0.8-0.9c0-0.6,0-1.1,0-1.7c0.9,0.3,1.6,0.9,2.1,1.6
			c0.1,0.1,0.2,0.3,0.3,0.4L373.3,288.5z"/>
		<path class="st2" d="M514.7,313.8c0,45-36.5,81.5-81.5,81.5c-7.6,0-15.2-1.1-22.6-3.2c2.7,0.3,5.5,0.4,8.3,0.4
			c50.6,0,91.6-41,91.5-91.6c0-6-0.6-12-1.8-17.8C512.6,292.8,514.7,303.3,514.7,313.8z"/>
		<path class="st2" d="M229.9,27c97.7-20.8,192.6,36.1,212,127.2c3.3,15.5,4.3,31.5,2.8,47.3c-0.7-5.6-1.6-11.3-2.8-17
			C420.1,82.2,313.5,18.2,203.7,41.6c-13,2.8-25.8,6.7-38.1,11.8C185.2,40.7,207,31.8,229.9,27z"/>
	</g>
</g>
</svg>
