<?xml version="1.0" encoding="utf-8"?>
<!-- Generator: Adobe Illustrator 21.1.0, SVG Export Plug-In . SVG Version: 6.00 Build 0)  -->
<svg version="1.1" xmlns="http://www.w3.org/2000/svg" xmlns:xlink="http://www.w3.org/1999/xlink" x="0px" y="0px"
   viewBox="0 -300.375 1169.547 1092.375" enable-background="new 0 -300.375 1169.547 1092.375" xml:space="preserve">
<g id="Ebene_5">
  <path fill="#B2488D" stroke="#671F4D" stroke-width="3" stroke-miterlimit="10" d="M527.912,204.28L72.5,229.81
    c4.084-12.32,8.332-24.28,12.743-35.84l425.618-23.87C516.752,181.01,522.45,192.41,527.912,204.28z"/>
  <g>
    <g>
      <polyline fill="none" stroke="#671F4D" stroke-width="3" stroke-miterlimit="10" points="89.503,203.31 90.5,199.955 
        93.995,199.76       "/>
      
        <line fill="none" stroke="#671F4D" stroke-width="3" stroke-miterlimit="10" stroke-dasharray="6.9262,6.9262" x1="100.91" y1="199.374" x2="498.548" y2="177.162"/>
      <polyline fill="none" stroke="#671F4D" stroke-width="3" stroke-miterlimit="10" points="502.005,176.969 505.5,176.773 
        506.998,179.937       "/>
      
        <line fill="none" stroke="#671F4D" stroke-width="3" stroke-miterlimit="10" stroke-dasharray="5.4538,5.4538" x1="509.333" y1="184.865" x2="512.834" y2="192.259"/>
      <polyline fill="none" stroke="#671F4D" stroke-width="3" stroke-miterlimit="10" points="514.002,194.723 515.5,197.886 
        512.006,198.093       "/>
      
        <line fill="none" stroke="#671F4D" stroke-width="3" stroke-miterlimit="10" stroke-dasharray="6.9797,6.9797" x1="505.039" y1="198.507" x2="90.478" y2="223.086"/>
      <polyline fill="none" stroke="#671F4D" stroke-width="3" stroke-miterlimit="10" points="86.994,223.293 83.5,223.5 
        84.497,220.145      "/>
      
        <line fill="none" stroke="#671F4D" stroke-width="3" stroke-miterlimit="10" stroke-dasharray="5.8545,5.8545" x1="86.166" y1="214.533" x2="88.668" y2="206.116"/>
    </g>
  </g>
  <path fill="#B2488D" stroke="#5A1240" stroke-width="3" stroke-miterlimit="10" d="M485.249,191.131
    c2.011,35.132-42.014,66.22-98.341,69.444c-39.086,2.238-73.826-9.536-92.091-28.693l-4.722,0.27
    c-15.959,21.117-49.128,36.778-88.214,39.016c-56.318,3.224-103.613-22.635-105.624-57.767
    c-1.915-33.445,37.928-63.231,90.367-68.778c2.628-0.291,5.29-0.503,7.975-0.657l185.027-10.593
    c1.617-0.093,3.216-0.164,4.816-0.206C438.622,131.639,483.296,157.017,485.249,191.131z"/>
  <g>
    <g>
      <path fill="none" stroke="#5A1240" stroke-width="3" stroke-miterlimit="10" d="M281.546,231.563
        c1.252-1.595,2.394-3.238,3.419-4.926l5.99-0.343"/>
      <path fill="none" stroke="#5A1240" stroke-width="3" stroke-miterlimit="10" d="M293.371,226.156l5.99-0.343
        c1.364,1.477,2.781,2.887,4.249,4.232"/>
      <path fill="none" stroke="#5A1240" stroke-width="3" stroke-miterlimit="10" stroke-dasharray="11.9805,11.9805" d="
        M313.06,237.391c18.483,12.149,42.801,16.894,70.522,17.322c54.456-3.118,97.119-31.419,95.299-63.222
        c-1.768-30.88-44.859-53.701-97.235-52.126c-1.547,0.043-3.092,0.113-4.656,0.203l-178.88,10.241
        c-2.596,0.149-5.17,0.35-7.711,0.623c-50.706,5.206-89.321,32.315-87.588,62.59c1.821,31.802,47.445,55.049,101.892,51.932
        c30.056-2.411,57.33-12.844,72.901-28.886"/>
    </g>
  </g>
</g>
</svg>