<svg id="Ebene_5" data-name="Ebene 5" xmlns="http://www.w3.org/2000/svg" viewBox="0 0 459.81 141.34">
    <defs>
        <style>.cls-1,.cls-7{fill:#b2488d;}.cls-1,.cls-2,.cls-3,.cls-4,.cls-5,.cls-6{stroke:#671f4d;}.cls-1,.cls-2,.cls-3,.cls-4,.cls-5,.cls-6,.cls-7,.cls-8,.cls-9{stroke-miterlimit:10;stroke-width:3px;}.cls-2,.cls-3,.cls-4,.cls-5,.cls-6,.cls-8,.cls-9{fill:none;}.cls-3{stroke-dasharray:6.93 6.93;}.cls-4{stroke-dasharray:5.45 5.45;}.cls-5{stroke-dasharray:6.98 6.98;}.cls-6{stroke-dasharray:5.85 5.85;}.cls-7,.cls-8,.cls-9{stroke:#5a1240;}.cls-9{stroke-dasharray:11.98 11.98;}</style>
    </defs>
    <title>Eye Mask</title>
    <path class="cls-1" d="M527.91,315.78,72.5,341.31q6.13-18.48,12.74-35.84L510.86,281.6Q519.7,298,527.91,315.78Z" transform="translate(-70.38 -243.1)" />
    <polyline class="cls-2" points="19.12 71.71 20.12 68.35 23.61 68.16" />
    <line class="cls-3" x1="30.53" y1="67.77" x2="428.17" y2="45.56" />
    <polyline class="cls-2" points="431.62 45.37 435.12 45.17 436.62 48.33" />
    <line class="cls-4" x1="438.95" y1="53.26" x2="442.45" y2="60.66" />
    <polyline class="cls-2" points="443.62 63.12 445.12 66.28 441.62 66.49" />
    <line class="cls-5" x1="434.66" y1="66.9" x2="20.1" y2="91.48" />
    <polyline class="cls-2" points="16.61 91.69 13.12 91.9 14.12 88.54" />
    <line class="cls-6" x1="15.78" y1="82.93" x2="18.29" y2="74.51" />
    <path class="cls-7" d="M485.25,302.63c2,35.13-42,66.22-98.34,69.44-39.09,2.24-73.83-9.54-92.09-28.69l-4.72.27c-16,21.12-49.13,36.78-88.21,39C145.56,385.89,98.27,360,96.26,324.9c-1.91-33.45,37.93-63.23,90.37-68.78,2.63-.29,5.29-.5,8-.66l185-10.59c1.62-.09,3.22-.16,4.82-.21C438.62,243.14,483.3,268.52,485.25,302.63Z" transform="translate(-70.38 -243.1)" />
    <path class="cls-8" d="M281.55,343.06a50.21,50.21,0,0,0,3.42-4.93l6-.34" transform="translate(-70.38 -243.1)" />
    <path class="cls-8" d="M293.37,337.66l6-.34q2,2.22,4.25,4.23" transform="translate(-70.38 -243.1)" />
    <path class="cls-9" d="M313.06,348.89c18.48,12.15,42.8,16.89,70.52,17.32C438,363.1,480.7,334.79,478.88,303c-1.77-30.88-44.86-53.7-97.24-52.13-1.55,0-3.09.11-4.66.2L198.11,261.31c-2.6.15-5.17.35-7.71.62-50.71,5.21-89.32,32.31-87.59,62.59,1.82,31.8,47.44,55,101.89,51.93,30.06-2.41,57.33-12.84,72.9-28.89" transform="translate(-70.38 -243.1)" />
</svg>