<svg xmlns="http://www.w3.org/2000/svg" viewBox="0 0 239.21 162.42"><title>Element 13</title><g id="Ebene_2" data-name="Ebene 2"><g id="Glass_Dildo" data-name="Glass Dildo"><path d="M237.22,15.2c3,11.2-8.17,23.94-25,28.45a44.21,44.21,0,0,1-15.3,1.44,23,23,0,0,1-31.8,6.57,23,23,0,0,1-33.44,9.46,26,26,0,0,1-.92,4.37c-1.37,4.4-3.93,7.56-7.42,8.49-4.51,1.22-9.52-1.56-13.51-6.78-31.48,6.19-56.82,28.25-67,56.94A21.73,21.73,0,0,1,38,149.63l-1.45,1.22-.14.11c-21,17.19-33.67,12.44-34.87-16.67A21.75,21.75,0,0,1,16.31,113c13.82-36.5,46.27-64.52,86.5-72.89.93-6.24,3.85-10.9,8.21-12.07,4-1.07,8.33.95,12.06,5a23,23,0,0,1,33.83-10.43A23,23,0,0,1,177.06,9.42a22.7,22.7,0,0,1,8.59,1.4,43.37,43.37,0,0,1,15.7-7.72C218.15-1.43,234.21,4,237.22,15.2Z" fill="#74edcd" stroke="#41e8c2" stroke-miterlimit="10" stroke-width="3"/><path d="M196.94,45.09a80.69,80.69,0,0,0-11.29-34.27" fill="#74edcd" stroke="#41e8c2" stroke-miterlimit="10" stroke-width="3"/><path d="M165.14,51.66a83.63,83.63,0,0,0-8.23-29" fill="#74edcd" stroke="#41e8c2" stroke-miterlimit="10" stroke-width="3"/><path d="M131.7,61.12a84.51,84.51,0,0,0-8.62-28" fill="#74edcd" stroke="#41e8c2" stroke-miterlimit="10" stroke-width="3"/><path d="M109.85,67.2a71,71,0,0,1-7-27.06" fill="#74edcd" stroke="#41e8c2" stroke-miterlimit="10" stroke-width="3"/><path d="M42.82,124.14c-9.23-6.09-18.14-10.3-26.51-11.11" fill="#74edcd" stroke="#41e8c2" stroke-miterlimit="10" stroke-width="3"/></g></g></svg>