<svg id="Toy" xmlns="http://www.w3.org/2000/svg" viewBox="0 0 398.73 208.18"><defs><style>.cls-1,.cls-2{fill:#a7a9ac;stroke-miterlimit:10;}.cls-1{stroke:#7b857b;}.cls-2{stroke:#7d7f81;}</style></defs><title>Handcuff</title><path class="cls-1" d="M499.71,566.63a68.93,68.93,0,1,0-94.12,97.74l-3.24,9.4a14.08,14.08,0,0,0-.63,6.62,13.94,13.94,0,0,0,1.13,3.86,14.18,14.18,0,0,0,15.87,8l.06-.29a9,9,0,0,0-1.51-6.75,8.1,8.1,0,0,0-.61-.78,8,8,0,0,1-3.36-.39,7.88,7.88,0,0,1-3.69-2.66l-.14-.18a8,8,0,0,1-1.07-7.21l2.24-6.5a69.51,69.51,0,0,0,14.66,6l-2,5.66a7.79,7.79,0,0,1-2.93,3.89,12.72,12.72,0,0,1,2.32,7.67A14.07,14.07,0,0,0,429.1,683l2.78-8.06a68.92,68.92,0,0,0,67.83-108.29Zm-19.53,90.55A61.89,61.89,0,1,1,494,570.75,61.9,61.9,0,0,1,480.18,657.18Z" transform="translate(-114.58 -537.62)"/><path class="cls-2" d="M268.1,708.68l-29.45-14.5a13.9,13.9,0,0,1-1.72,3.42L266.13,712a8.92,8.92,0,0,1,3.34,2.84,10.93,10.93,0,0,1,1.23-.92,12,12,0,0,1,2.19-1.14A12.79,12.79,0,0,0,268.1,708.68Z" transform="translate(-114.58 -537.62)"/><path class="cls-2" d="M274,725.89a13,13,0,0,1-6.67,6.22c-.23.1-.47.19-.71.27a12.85,12.85,0,0,1-9.82-.63L222.7,715A12.83,12.83,0,0,1,216,700.22a12.37,12.37,0,0,1,.9-2.44,12.87,12.87,0,0,1,14.48-6.84,7.67,7.67,0,0,1-2.41,3.49,9,9,0,0,0-9.52,8,9,9,0,0,0,5,9.1l33.76,16.62a9,9,0,0,0,6.89.44l.42-.16a8.79,8.79,0,0,0,3.36-2.33,8.54,8.54,0,0,0,1.42-2.07,8.87,8.87,0,0,0,.8-5.46,9.06,9.06,0,0,1,3.58-2.43A12.79,12.79,0,0,1,274,725.89Z" transform="translate(-114.58 -537.62)"/><path class="cls-2" d="M232,674.47a68.7,68.7,0,1,0-24,15.12l5.71,8.13a13.83,13.83,0,0,0,2.25,2.5,12.37,12.37,0,0,1,.9-2.44,12.75,12.75,0,0,1,2.18-3.14,7.91,7.91,0,0,1-1.64-1.72l-4-5.63a69.52,69.52,0,0,0,13.44-8.36l3.44,4.9a7.91,7.91,0,0,1,1,7.11,7.67,7.67,0,0,1-2.41,3.49,5.2,5.2,0,0,1-.52.41,7.88,7.88,0,0,1-4.54,1.44c-.3,0-.6,0-.9-.05a9,9,0,0,0-3.56,6.23,14.17,14.17,0,0,0,17.53-4.86,13.9,13.9,0,0,0,1.72-3.42,14.12,14.12,0,0,0-1.8-12.73Zm-48,12.38A61.89,61.89,0,1,1,245.9,625,61.9,61.9,0,0,1,184,686.85Z" transform="translate(-114.58 -537.62)"/><path class="cls-2" d="M327.45,735.08a13,13,0,0,1-.91,2.74,12.48,12.48,0,0,1-2.12,3.22,12.79,12.79,0,0,1-12.18,4l-37.15-7.79a12.76,12.76,0,0,1-7.81-5.12,12.55,12.55,0,0,0,3.29-2,9,9,0,0,0,5.31,3.35l36.83,7.72a9,9,0,0,0,6.79-1.28,8.43,8.43,0,0,0,1.67-1.43,8.58,8.58,0,0,0,2-3.54c.07-.24.14-.48.19-.73a9,9,0,0,0-1.46-7,9,9,0,0,1,1.22-2.55,8.5,8.5,0,0,1,.94-1.14A12.84,12.84,0,0,1,327.45,735.08Z" transform="translate(-114.58 -537.62)"/><path class="cls-2" d="M321,721.16a10.69,10.69,0,0,0-1,1.3,12.54,12.54,0,0,0-1.12,2,8.92,8.92,0,0,0-2.47-.92l-36.83-7.73a9,9,0,0,0-5,.37A9.06,9.06,0,0,0,271,718.6a9,9,0,0,0-2.15,4.2,8.91,8.91,0,0,0-.07,3.33,8.79,8.79,0,0,1-3.36,2.33,12.86,12.86,0,0,1,4-13.65,10.93,10.93,0,0,1,1.23-.92,12,12,0,0,1,2.19-1.14,12.72,12.72,0,0,1,7.48-.68l37.14,7.79A12.64,12.64,0,0,1,321,721.16Z" transform="translate(-114.58 -537.62)"/><path class="cls-2" d="M422.73,690.65h0a12.1,12.1,0,0,1-.18,1.9,12.75,12.75,0,0,1-5.27,8.31l-31,21.83a12.75,12.75,0,0,1-5.62,2.22,12.91,12.91,0,0,0,0-4,8.68,8.68,0,0,0,3.7-1.51l30.79-21.64a9,9,0,0,0,3.63-5.55l.06-.29a9,9,0,0,0-1.51-6.75,8.1,8.1,0,0,0-.61-.78,9,9,0,0,0-7-3l-.14-.18a7.75,7.75,0,0,1-1.41-3.52A12.86,12.86,0,0,1,420.4,683s0,0,0,0A12.72,12.72,0,0,1,422.73,690.65Z" transform="translate(-114.58 -537.62)"/><path class="cls-2" d="M376.48,721.34a8.79,8.79,0,0,1,0,3.47,12.87,12.87,0,0,1-10.3-10.75,13,13,0,0,1,0-3.89l0-.19a12.83,12.83,0,0,1,5.27-8.31l30.27-21.28a13.94,13.94,0,0,0,1.13,3.86l-28.94,20.36a8.84,8.84,0,0,0-3.65,5.66,1,1,0,0,0,0,.17,8.77,8.77,0,0,0,.19,3.94,9,9,0,0,0,5.9,6.2C376.37,720.83,376.43,721.08,376.48,721.34Z" transform="translate(-114.58 -537.62)"/><path class="cls-2" d="M380.62,724.92a12.89,12.89,0,0,1-10.38,10.63l-37.33,6.85a12.77,12.77,0,0,1-8.49-1.36,12.48,12.48,0,0,0,2.12-3.22,8.87,8.87,0,0,0,5.68.83l37-6.8a9,9,0,0,0,5.8-3.76,8.63,8.63,0,0,0,1.4-3.28,8.79,8.79,0,0,0,0-3.47c0-.26-.11-.51-.17-.76a9,9,0,0,0-5.9-6.2,8.77,8.77,0,0,1-.19-3.94,1,1,0,0,1,0-.17,12.85,12.85,0,0,1,10.29,10.32c0,.1,0,.21,0,.31A12.91,12.91,0,0,1,380.62,724.92Z" transform="translate(-114.58 -537.62)"/><path class="cls-2" d="M366.13,714.06l-.16,0-37,6.79a8.89,8.89,0,0,0-4.86,2.62,8.5,8.5,0,0,0-.94,1.14,9,9,0,0,0,.05,10.33,8.58,8.58,0,0,1-2,3.54,12.84,12.84,0,0,1-2.28-14,12.54,12.54,0,0,1,1.12-2,10.69,10.69,0,0,1,1-1.3,12.74,12.74,0,0,1,7.23-4l37.32-6.86.56-.09A13,13,0,0,0,366.13,714.06Z" transform="translate(-114.58 -537.62)"/></svg>