<svg id="Heart_Collar" data-name="Heart Collar" xmlns="http://www.w3.org/2000/svg" viewBox="0 0 451.59 119.1"><defs><style>.cls-1{fill:#969292;stroke:#666;stroke-width:2px;}.cls-1,.cls-2,.cls-3{stroke-miterlimit:10;}.cls-2{fill:#7aced6;}.cls-2,.cls-3{stroke:#12aebc;stroke-width:3px;}.cls-3{fill:none;stroke-dasharray:10;}.cls-4{fill:#dbdada;}</style></defs><title>Heart Collar</title><path class="cls-1" d="M356.6,693.95c-13.33-6-30.9,1.09-44.51,16.41-15.88-13-34.35-17.2-46.55-9.11-31,22-18.37,77,2.54,84L320,808.77l47.47-31.52C387,767.06,390.68,710.77,356.6,693.95Zm2.58,80.1-39.87,26.46-43.57-19.78c-17.57-5.84-28.14-52-2.14-70.51,10.24-6.79,25.76-3.23,39.08,7.65C324.12,705,338.87,699,350.07,704.1,378.69,718.23,375.59,765.49,359.18,774.05Z" transform="translate(-90.8 -690.81)"/><polygon class="cls-2" points="180.53 79.24 180.86 84 1.7 96.51 2.23 92.03 7.48 47.21 8.16 41.43 177.1 29.62 177.5 35.45 180.53 79.24"/><path class="cls-2" d="M540.5,756l-127.28,8.9h0l-14.47,1L362,768.49l-.34-4.93-3-43.55-.41-5.9L526,702.38q.86,3,1.7,5.94,6.16,21.66,11.5,42.5Q539.85,753.42,540.5,756Z" transform="translate(-90.8 -690.81)"/><line class="cls-3" x1="436.89" y1="17.52" x2="267.82" y2="29.21"/><line class="cls-3" x1="177.5" y1="35.45" x2="7.48" y2="47.21"/><line class="cls-3" x1="448.39" y1="60.02" x2="270.83" y2="72.76"/><polyline class="cls-3" points="180.53 79.24 2.23 92.03 1.7 92.07"/><circle class="cls-4" cx="399.03" cy="738.01" r="6.89" transform="matrix(1, -0.06, 0.06, 1, -132.33, -666.79)"/><circle class="cls-4" cx="230.03" cy="751.41" r="6.89" transform="matrix(1, -0.06, 0.06, 1, -133.38, -676.43)"/></svg>