<svg id="Wand" xmlns="http://www.w3.org/2000/svg" viewBox="0 0 235.62 302.52"><defs><style>.cls-1{fill:#97d0e8;}.cls-1,.cls-4,.cls-5,.cls-6,.cls-7{stroke:#f4a5db;}.cls-1,.cls-4,.cls-5,.cls-6,.cls-7,.cls-8{stroke-linecap:round;stroke-linejoin:round;}.cls-1,.cls-4{stroke-width:5px;}.cls-2{fill:#f4d3eb;}.cls-3{fill:#bfbfbf;}.cls-4,.cls-5,.cls-6{fill:none;}.cls-5{stroke-width:2px;}.cls-7{fill:#f4a5db;}.cls-8{fill:#ffc9ef;stroke:#ffabe6;stroke-width:8px;}</style></defs><title>Hitachi</title><path class="cls-1" d="M210.39,750.72C187.93,784.91,168.76,793,156,784.82s-13.53-28.92,8-63.69Z" transform="translate(-124.05 -487.76)"/><path class="cls-2" d="M306.53,581.93l-4.84,7.59a8.52,8.52,0,0,0-1.12,5c.28,2.31,1.75,4.68,4,8.71a20.17,20.17,0,0,1,1.11,7.82c-.26,4.48-2.1,8.5-4.58,12.5l-90.66,127.2L164,721.13,241.2,585.32c2.58-3.93,5.45-7.29,9.4-9.42a20.17,20.17,0,0,1,7.56-2.29c4.59.3,7.35.64,9.56-.08a8.52,8.52,0,0,0,4-3.11l4.84-7.59a7.39,7.39,0,0,0,.58-5.56c-.49-1.69-7.17-12.51-6.26-17.29a10.08,10.08,0,0,1,1.47-3.56l19.9-31.19c11.47-18,35.15-17.9,48.22-9.57s23.11,29.78,11.64,47.76l-19.9,31.19a10.08,10.08,0,0,1-2.6,2.83c-4,2.84-16.58,1.34-18.32,1.61A7.39,7.39,0,0,0,306.53,581.93Z" transform="translate(-124.05 -487.76)"/><path class="cls-3" d="M329.65,577.46c-4,2.84-8.59.84-10.9,1.6a43.6,43.6,0,0,0-7.42,0l-34.14-21.79a43.6,43.6,0,0,0-3.12-6.73c-.29-2.41-4-5.77-3.14-10.56Z" transform="translate(-124.05 -487.76)"/><path class="cls-3" d="M305.63,611l-55-35.12a20.17,20.17,0,0,1,7.56-2.29c4.59.3,7.35.64,9.56-.08l32.84,21c.28,2.31,1.75,4.68,4,8.71A20.17,20.17,0,0,1,305.63,611Z" transform="translate(-124.05 -487.76)"/><path class="cls-4" d="M306.53,581.93l-4.84,7.59a8.52,8.52,0,0,0-1.12,5c.28,2.31,1.75,4.68,4,8.71a20.17,20.17,0,0,1,1.11,7.82c-.26,4.48-2.1,8.5-4.58,12.5l-90.66,127.2L164,721.13,241.2,585.32c2.58-3.93,5.45-7.29,9.4-9.42a20.17,20.17,0,0,1,7.56-2.29c4.59.3,7.35.64,9.56-.08a8.52,8.52,0,0,0,4-3.11l4.84-7.59a7.39,7.39,0,0,0,.58-5.56c-.49-1.69-7.17-12.51-6.26-17.29a10.08,10.08,0,0,1,1.47-3.56l19.9-31.19c11.47-18,35.15-17.9,48.22-9.57s23.11,29.78,11.64,47.76l-19.9,31.19a10.08,10.08,0,0,1-2.6,2.83c-4,2.84-16.58,1.34-18.32,1.61A7.39,7.39,0,0,0,306.53,581.93Z" transform="translate(-124.05 -487.76)"/><rect class="cls-5" x="195.13" y="701.04" width="17.5" height="17.5" rx="8.75" ry="8.75" transform="translate(289.78 -485.99) rotate(32.54)"/><rect class="cls-5" x="208.55" y="680.02" width="17.5" height="17.5" rx="8.75" ry="8.75" transform="translate(280.58 -496.51) rotate(32.54)"/><rect class="cls-5" x="221.97" y="658.99" width="17.5" height="17.5" rx="8.75" ry="8.75" transform="translate(271.37 -507.03) rotate(32.54)"/><path class="cls-6" d="M207.21,708.17a3.71,3.71,0,1,1-3.25-2.08" transform="translate(-124.05 -487.76)"/><polyline class="cls-6" points="87.46 201.32 92.6 196.59 90.41 203.2 95.73 198.59 93.15 204.95 98.86 200.58"/><line class="cls-6" x1="102.09" y1="181.52" x2="104.34" y2="178.01"/><line class="cls-6" x1="103.68" y1="182.54" x2="106.91" y2="177.48"/><line class="cls-6" x1="107.02" y1="184.66" x2="111.7" y2="177.32"/><line class="cls-7" x1="82.45" y1="217.92" x2="80.37" y2="221.19"/><line class="cls-6" x1="105.17" y1="183.49" x2="109.14" y2="177.27"/><path class="cls-8" d="M232,599.28a47,47,0,0,1,6.92,16.33c5.93,27.62-13.86,55.26-44.17,61.76S135,666.77,129.1,639.15a47,47,0,0,1-.39-17.71" transform="translate(-124.05 -487.76)"/></svg>