<svg id="Wand" xmlns="http://www.w3.org/2000/svg" viewBox="0 0 235.12 302.02">
    <defs>
        <style>.cls-1{fill:#f4d3eb;}.cls-2{fill:#bfbfbf;}.cls-3,.cls-6,.cls-7{fill:none;}.cls-3,.cls-4,.cls-5{stroke:#f4a5db;}.cls-3,.cls-4,.cls-5,.cls-8{stroke-linecap:round;stroke-linejoin:round;}.cls-4{fill:#f4a5db;}.cls-5{fill:#97d0e8;stroke-width:5px;}.cls-6,.cls-7{stroke:#ff81d2;stroke-miterlimit:10;}.cls-6{stroke-width:4px;}.cls-8{fill:#ffc9ef;stroke:#ffabe6;stroke-width:8px;}</style>
    </defs>
    <title>Hitachi</title>
    <path class="cls-1" d="M306.53,770.81l-4.84,7.59a8.52,8.52,0,0,0-1.12,5c.28,2.31,1.75,4.68,4,8.71a20.17,20.17,0,0,1,1.11,7.82c-.26,4.48-2.1,8.5-4.58,12.5l-90.66,127.2L164,910,241.2,774.2c2.58-3.93,5.45-7.29,9.4-9.42a20.17,20.17,0,0,1,7.56-2.29c4.59.3,7.35.64,9.56-.08a8.52,8.52,0,0,0,4-3.11l4.84-7.59a7.39,7.39,0,0,0,.58-5.56c-.49-1.69-7.17-12.51-6.26-17.29a10.08,10.08,0,0,1,1.47-3.56l19.9-31.19c11.47-18,35.15-17.9,48.22-9.56s23.11,29.78,11.64,47.76l-19.9,31.19a10.08,10.08,0,0,1-2.6,2.83c-4,2.84-16.58,1.34-18.32,1.61A7.39,7.39,0,0,0,306.53,770.81Z" transform="translate(-124.05 -677.13)" />
    <path class="cls-2" d="M329.65,766.33c-4,2.84-8.59.84-10.9,1.6a43.6,43.6,0,0,0-7.42,0l-34.14-21.79a43.6,43.6,0,0,0-3.12-6.73c-.29-2.41-4-5.77-3.14-10.56Z" transform="translate(-124.05 -677.13)" />
    <path class="cls-2" d="M305.63,799.89l-55-35.12a20.17,20.17,0,0,1,7.56-2.29c4.59.3,7.35.64,9.56-.08l32.84,21c.28,2.31,1.75,4.68,4,8.71A20.17,20.17,0,0,1,305.63,799.89Z" transform="translate(-124.05 -677.13)" />
    <path class="cls-3" d="M207.21,897A3.71,3.71,0,1,1,204,895" transform="translate(-124.05 -677.13)" />
    <polyline class="cls-3" points="87.46 200.82 92.6 196.09 90.41 202.7 95.73 198.09 93.15 204.45 98.86 200.08" />
    <line class="cls-3" x1="102.09" y1="181.02" x2="104.34" y2="177.51" />
    <line class="cls-3" x1="103.68" y1="182.03" x2="106.91" y2="176.98" />
    <line class="cls-3" x1="107.01" y1="184.16" x2="111.7" y2="176.82" />
    <line class="cls-4" x1="82.45" y1="217.42" x2="80.37" y2="220.69" />
    <line class="cls-3" x1="105.17" y1="182.99" x2="109.14" y2="176.77" />
    <path class="cls-5" d="M210.39,939.59c-22.46,34.19-41.63,42.32-54.38,34.1s-13.53-28.92,8-63.69Z" transform="translate(-124.05 -677.13)" />
    <path class="cls-6" d="M210.39,939.59c-22.46,34.19-41.63,42.32-54.38,34.1s-13.53-28.92,8-63.69Z" transform="translate(-124.05 -677.13)" />
    <path class="cls-7" d="M199.18,906h0A8.75,8.75,0,0,1,196.51,894h0a8.75,8.75,0,0,1,12.08-2.67h0a8.75,8.75,0,0,1,2.67,12.08h0A8.75,8.75,0,0,1,199.18,906Z" transform="translate(-124.05 -677.13)" />
    <path class="cls-7" d="M212.6,885h0a8.75,8.75,0,0,1-2.67-12.08h0A8.75,8.75,0,0,1,222,870.26h0a8.75,8.75,0,0,1,2.67,12.08h0A8.75,8.75,0,0,1,212.6,885Z" transform="translate(-124.05 -677.13)" />
    <path class="cls-7" d="M226,864h0a8.75,8.75,0,0,1-2.67-12.08h0a8.75,8.75,0,0,1,12.08-2.67h0a8.75,8.75,0,0,1,2.67,12.08h0A8.75,8.75,0,0,1,226,864Z" transform="translate(-124.05 -677.13)" />
    <path class="cls-6" d="M306.53,770.81l-4.84,7.59a8.52,8.52,0,0,0-1.12,5c.28,2.31,1.75,4.68,4,8.71a20.17,20.17,0,0,1,1.11,7.82c-.26,4.48-2.1,8.5-4.58,12.5l-90.66,127.2L164,910,241.2,774.2c2.58-3.93,5.45-7.29,9.4-9.42a20.17,20.17,0,0,1,7.56-2.29c4.59.3,7.35.64,9.56-.08a8.52,8.52,0,0,0,4-3.11l4.84-7.59a7.39,7.39,0,0,0,.58-5.56c-.49-1.69-7.17-12.51-6.26-17.29a10.08,10.08,0,0,1,1.47-3.56l19.9-31.19c11.47-18,35.15-17.9,48.22-9.56s23.11,29.78,11.64,47.76l-19.9,31.19a10.08,10.08,0,0,1-2.6,2.83c-4,2.84-16.58,1.34-18.32,1.61A7.39,7.39,0,0,0,306.53,770.81Z" transform="translate(-124.05 -677.13)" />
    <path class="cls-8" d="M232,788.16a47,47,0,0,1,6.92,16.33c5.93,27.62-13.86,55.26-44.17,61.76S135,855.64,129.1,828a47,47,0,0,1-.39-17.71" transform="translate(-124.05 -677.13)" />
    <path d="M895,748.4" transform="translate(-124.05 -677.13)" />
    <path d="M876.07,748.4" transform="translate(-124.05 -677.13)" />
</svg>