<svg xmlns="http://www.w3.org/2000/svg" viewBox="0 0 377.27 165.39"><title>Element 29</title><g id="Ebene_2" data-name="Ebene 2"><g id="Peen_Paddle" data-name="Peen Paddle"><path d="M349.89,32.61h0a3.16,3.16,0,0,1,1.38-.18c8.45.87,11.44,38.66,6.7,84.38-.75,7.16-1.63,14.09-2.64,20.68h0c-1.47,9.67-3.19,18.62-5,26.51" fill="none" stroke="#231f20" stroke-miterlimit="10" stroke-width="6"/><path d="M376.37,27.85A31,31,0,0,0,323.69,9.56c-.6.68-1.19,1.33-1.79,1.95-4.89,5.09-10,8.22-15.34,8.84L189,36.38c-25-.66-32.69-14.57-51.53-12.2l-.48.07L8.7,41.75A9.48,9.48,0,0,0,.59,52.43L4.35,80l4,27.53a9.48,9.48,0,0,0,10.74,8L147.19,97.11l.48-.07c18.77-2.9,22.39-18.4,46.2-25.89L311.32,54.24c5.31-.86,11.07.74,17.17,4.29.74.44,1.5.89,2.25,1.38a31,31,0,0,0,45.63-32.06ZM347.86,37.5a5.66,5.66,0,1,1,5.86-5.45A5.66,5.66,0,0,1,347.86,37.5Z" fill="#9c94c6" stroke="#756f95" stroke-miterlimit="10"/><path d="M367.47,49.87c-4.94,7-21.71,17.67-39.57,4.44a32.61,32.61,0,0,0-17-3.14L193.42,68a69.58,69.58,0,0,0-17.53,7.61c-10.7,7.74-18.77,16.47-29.75,18.76L23.14,112a9,9,0,0,1-10.41-7.35L9.07,79.32,5.62,53.92a9,9,0,0,1,8-9.91L137.73,27c9-1.12,29.06,8.65,33.33,9.89a69.88,69.88,0,0,0,18.34,2.34L307,23.16c4.92-.6,9.67-2.94,14.29-6.69.82-.72,1.63-1.5,2.43-2.33.54-.55,1.08-1.14,1.61-1.75a27.81,27.81,0,0,1,32.25-5.12,1.85,1.85,0,0,1,.29.13,27.84,27.84,0,0,1,14.78,21.41A27.83,27.83,0,0,1,367.47,49.87Z" fill="none" stroke="#756f95" stroke-miterlimit="10" stroke-dasharray="6.02 6.02"/><path d="M354.36,32.44a5.66,5.66,0,1,1-5.46-5.86A5.66,5.66,0,0,1,354.36,32.44Z" fill="none" stroke="#ccc" stroke-miterlimit="10" stroke-width="3"/><path d="M362.91,164.45c-2.62-7.92-5.2-17-7.57-26.95h0c-1.56-6.51-3-13.36-4.37-20.46-8.28-43.84-8.69-80.82-1.08-84.42h0" fill="none" stroke="#231f20" stroke-miterlimit="10" stroke-width="6"/><path d="M358.26,137.6a2.92,2.92,0,1,1-2.81-3A2.92,2.92,0,0,1,358.26,137.6Z" fill="none" stroke="#231f20" stroke-miterlimit="10" stroke-width="5"/><rect x="75.7" y="42.09" width="6.66" height="55.27" transform="translate(-8.26 10.66) rotate(-7.33)" fill="#ea93c3" stroke="#756f95" stroke-miterlimit="10"/><rect x="59.71" y="39.61" width="6.66" height="15.33" transform="translate(101.89 -21.28) rotate(82.67)" fill="#ea93c3" stroke="#756f95" stroke-miterlimit="10"/><rect x="65.92" y="87.83" width="6.66" height="15.33" transform="translate(155.13 14.62) rotate(82.67)" fill="#ea93c3" stroke="#756f95" stroke-miterlimit="10"/><rect x="62.81" y="63.7" width="6.66" height="15.33" transform="translate(128.48 -3.35) rotate(82.67)" fill="#ea93c3" stroke="#756f95" stroke-miterlimit="10"/><rect x="103.74" y="38.46" width="6.66" height="55.27" transform="translate(-7.56 14.21) rotate(-7.33)" fill="#ea93c3" stroke="#756f95" stroke-miterlimit="10"/><rect x="103.74" y="38.46" width="6.66" height="55.27" transform="translate(-7.56 14.21) rotate(-7.33)" fill="#ea93c3" stroke="#756f95" stroke-miterlimit="10"/><rect x="133.39" y="34.38" width="6.66" height="55.27" transform="translate(-6.8 17.96) rotate(-7.33)" fill="#ea93c3" stroke="#756f95" stroke-miterlimit="10"/><rect x="87.75" y="35.98" width="6.66" height="15.33" transform="matrix(0.13, 0.99, -0.99, 0.13, 122.75, -52.26)" fill="#ea93c3" stroke="#756f95" stroke-miterlimit="10"/><rect x="93.96" y="84.2" width="6.66" height="15.33" transform="translate(175.98 -16.35) rotate(82.67)" fill="#ea93c3" stroke="#756f95" stroke-miterlimit="10"/><rect x="90.85" y="60.07" width="6.66" height="15.33" transform="translate(149.34 -34.32) rotate(82.67)" fill="#ea93c3" stroke="#756f95" stroke-miterlimit="10"/><rect x="46.97" y="45.78" width="6.66" height="55.27" transform="translate(-8.96 7.02) rotate(-7.33)" fill="#ea93c3" stroke="#756f95" stroke-miterlimit="10"/><rect x="18.67" y="49.38" width="6.66" height="55.27" transform="translate(-9.65 3.44) rotate(-7.33)" fill="#ea93c3" stroke="#756f95" stroke-miterlimit="10"/><polygon points="41.94 46.65 37.29 102.97 30.55 103.83 35.19 47.52 41.94 46.65" fill="#ea93c3" stroke="#756f95" stroke-miterlimit="10"/><path d="M118.19,51l.36,2.87a8.75,8.75,0,0,0,9.8,7.55l3.19-.41.68,5.24-5.91.76A11.93,11.93,0,0,1,113,56.66l-.9-7a11.92,11.92,0,0,1,10.3-13.35l5.91-.76.67,5.24-3.19.41A8.74,8.74,0,0,0,118.19,51Z" fill="#ea93c3" stroke="#756f95" stroke-miterlimit="10"/></g></g></svg>