<svg xmlns="http://www.w3.org/2000/svg" viewBox="0 0 170.4 205.78"><title>Element 32</title><g id="Ebene_2" data-name="Ebene 2"><g id="Mini_Peen" data-name="Mini Peen"><g id="Ebene_2-2" data-name="Ebene 2"><g id="Mr_Peen" data-name="Mr Peen"><path d="M93.43,202.47c-5.63,2.59-21.87-.88-21.16-12.88,9-21.59,34-11,31.85-1.38Q100.92,198.77,93.43,202.47Z" fill="#ad8ad1" stroke="#963ecc" stroke-linecap="round" stroke-linejoin="round" stroke-width="5"/><path d="M26.35,161.06c-14.87,1.79-35.63-16.69-15.53-26.68C23,130.4,37.16,144.38,26.35,161.06Z" fill="#ad8ad1" stroke="#963ecc" stroke-linecap="round" stroke-linejoin="round" stroke-width="5"/><path d="M117.15,175.34a61.88,61.88,0,0,1-3.86,5,35.18,35.18,0,0,1-9.17,7.89c2.11-9.65-22.84-20.21-31.85,1.38C64.48,185,57.11,178.65,50,171a86,86,0,0,1-23.68-9.94h0c.1-.14.19-.29.28-.44l.14-.22.21-.35.18-.32.21-.36.14-.27,0-.09c.07-.13.14-.26.2-.39a1.59,1.59,0,0,0,.15-.29l.18-.35.24-.52.18-.41.17-.41.15-.39c.06-.14.11-.28.16-.42l.15-.43c0-.13.09-.26.13-.38.09-.3.18-.59.26-.88l.09-.37.09-.37c0-.12.06-.25.08-.37s.09-.42.12-.63.06-.31.08-.46,0-.24.05-.36c.05-.36.08-.71.11-1.07,0-.11,0-.23,0-.34h0c0-.23,0-.46,0-.69a18,18,0,0,0-.15-2.35c-.05-.44-.13-.86-.22-1.28,0-.11-.05-.21-.07-.31l-.08-.32c-2.19-8.41-11-13.42-18.85-10.83h0a57.46,57.46,0,0,1,1.24-10.46,55.55,55.55,0,0,1,1.82-6.6,48.06,48.06,0,0,1,7.65-14.22L37.05,84.29,46,73.49l.84-1,.41-.23h0c12,11,39,14.43,55,4a23.37,23.37,0,0,0,.12,6.35l.06.44q.12.69.27,1.38l.15.7c.11.47.24.94.37,1.4s.28.93.43,1.4c.08.24.16.47.25.7s.16.47.25.7c.18.47.36.94.56,1.4l.3.71c.1.23.21.46.32.69s.22.47.33.7.23.46.34.7l.36.69c.12.23.24.46.37.69h0c.11.2.22.4.34.6a.35.35,0,0,0,0,.08l.25.45,0,.08c.08.14.16.28.25.42s.16.28.25.42a0,0,0,0,0,0,0,.35.35,0,0,0,0,.08c.11.2.24.39.36.59s.43.68.66,1l.33.5c.12.17.23.34.35.5l.4.57.09.14.26.36.07.09c.09.13.18.26.28.38l.08.1.25.35.1.13.4.52.51.65h0l1,1.26c.36.43.72.85,1.09,1.27s.73.81,1.1,1.21l.57.6.57.6.59.58c.19.2.39.39.59.58s.39.39.59.58c.8.75,1.62,1.49,2.44,2.2l.56.47.12.1c.4.33.8.66,1.21,1,5.49,4.35,11.44,7.56,17,8.88v.2c-.23.77-.46,1.53-.7,2.29-1.41,4.58-2.86,9-4.34,13.31C129.28,153.05,123.62,166,117.15,175.34Z" fill="#ad8ad1" stroke="#963ecc" stroke-linecap="round" stroke-linejoin="round" stroke-width="5"/><path d="M139.52,122.24h0c-5.55-1.33-11.5-4.54-17-8.9-.41-.32-.81-.65-1.21-1l-.12-.1-.56-.47c-.83-.71-1.64-1.44-2.44-2.2-.2-.19-.4-.38-.59-.58s-.4-.38-.59-.58l-.59-.58-.57-.6-.57-.6c-.37-.4-.74-.8-1.1-1.21s-.73-.84-1.09-1.27-.69-.83-1-1.26h0l-.51-.65-.4-.52-.1-.13-.25-.35-.08-.1c-.1-.12-.19-.25-.28-.38l-.07-.09-.26-.36-.09-.14-.4-.57c-.12-.16-.23-.33-.35-.5l-.33-.5c-.23-.34-.44-.68-.66-1s-.25-.39-.36-.59a.35.35,0,0,1,0-.08,0,0,0,0,1,0,0c-.09-.14-.17-.28-.25-.42s-.17-.28-.25-.42l0-.08-.25-.45a.35.35,0,0,1,0-.08c-.12-.2-.23-.4-.34-.6h0c-.13-.23-.25-.46-.37-.69l-.36-.69c-.11-.24-.23-.47-.34-.7s-.23-.46-.33-.7-.22-.46-.32-.69l-.3-.71c-.2-.46-.38-.93-.56-1.4-.09-.23-.17-.46-.25-.7s-.17-.46-.25-.7c-.15-.47-.3-.93-.43-1.4s-.26-.93-.37-1.4l-.15-.7a24,24,0,0,1-.46-8.15c-16,10.46-43,7-55-4h0C39.38,65,38,54.59,50.5,42.7c1-1,2.09-1.94,3.14-2.9l.48-.44C55.41,38.18,56.68,37,58,35.89s2.65-2.33,4-3.47q3.17-2.73,6.3-5.27Q72,24,75.8,21.27c23-17,44.47-24.89,62.6-13.22,20.91,4.26,32.12,29.9,29,65.39-.28,3.11-.66,6.29-1.16,9.54q-.6,4-1.44,8c-.14.71-.29,1.43-.45,2.15q-.53,2.44-1.14,4.92c-.29,1.2-.6,2.4-.92,3.61q-1.49,5.55-3.37,11.27C155.25,122,147.83,124.23,139.52,122.24Z" fill="#ad8ad1" stroke="#963ecc" stroke-linecap="round" stroke-linejoin="round" stroke-width="5"/><path d="M65.62,103.06a11.85,11.85,0,0,1-.77,4.41c-2.54,6.67-10.53,9.8-17.84,7s-11.19-10.44-8.66-17.11a11.91,11.91,0,0,1,2.35-3.81" fill="#ad8ad1" stroke="#963ecc" stroke-linecap="round" stroke-linejoin="round" stroke-width="5"/><path d="M119.91,142.88a11.91,11.91,0,0,1-3.22,3.11c-6,3.89-14.28,1.72-18.55-4.84s-2.89-15,3.08-18.92a11.78,11.78,0,0,1,4.14-1.68" fill="#ad8ad1" stroke="#963ecc" stroke-linecap="round" stroke-linejoin="round" stroke-width="5"/></g></g><path d="M97.36,54.25l-.21.34c-1.68,3-.09,7.12,3.55,9.12a8.44,8.44,0,0,0,3.82,1.08,6.2,6.2,0,0,0,5.61-2.66c.06-.1.12-.2.17-.3s.11-.24.18-.35" fill="none" stroke="#c8238c" stroke-linecap="round" stroke-linejoin="round" stroke-width="3"/><path d="M123.65,68.73c-1.66,3-6,3.88-9.6,1.88a8.54,8.54,0,0,1-2.58-2.15h0a6.46,6.46,0,0,1-1.28-6.3,4.6,4.6,0,0,1,.31-.68" fill="none" stroke="#c8238c" stroke-linecap="round" stroke-linejoin="round" stroke-width="3"/><ellipse cx="79.52" cy="40.12" rx="3.86" ry="11.18" transform="translate(2.6 85.03) rotate(-57.05)" fill="#7bcdc8"/><path d="M147.87,74.05c5.18,3.36,8.45,7.54,7.29,9.33s-6.31.51-11.49-2.85-8.44-7.53-7.28-9.32S142.69,70.69,147.87,74.05Z" fill="#7bcdc8"/><path d="M88.69,27.21a4.44,4.44,0,1,1-6.14,1.31A4.43,4.43,0,0,1,88.69,27.21Z"/><path d="M89,28.87a.88.88,0,1,1-1.22.26A.88.88,0,0,1,89,28.87Z" fill="#fff"/><path d="M89.22,31.14a.58.58,0,1,1-.8.17A.57.57,0,0,1,89.22,31.14Z" fill="#fff"/><path d="M154.17,64.34A4.45,4.45,0,1,1,148,65.65,4.45,4.45,0,0,1,154.17,64.34Z"/><path d="M154.43,66a.88.88,0,1,1-1.23.26A.88.88,0,0,1,154.43,66Z" fill="#fff"/><path d="M154.7,68.27a.6.6,0,0,1,.17.81.58.58,0,1,1-.17-.81Z" fill="#fff"/></g></g></svg>