<svg xmlns="http://www.w3.org/2000/svg" viewBox="0 0 341.87 118.78"><title>Element 31</title><g id="Ebene_2" data-name="Ebene 2"><g id="Wand"><path d="M253.5,66l-8.83,1.76a8.57,8.57,0,0,0-4.36,2.63c-1.47,1.8-2.16,4.5-3.54,8.88a20.27,20.27,0,0,1-4.88,6.22c-3.42,2.91-7.59,4.37-12.19,5.34L65.14,113.48,54.39,59.54,205.82,21.2c4.62-.86,9-1.11,13.31.27A20.06,20.06,0,0,1,226,25.34c2.95,3.52,4.62,5.74,6.68,6.84a8.47,8.47,0,0,0,5,.76l8.83-1.76A7.34,7.34,0,0,0,251,27.75c.88-1.52,4.07-13.83,8.15-16.49a10.14,10.14,0,0,1,3.58-1.39L299,2.64c20.92-4.17,37.25,13,40.28,28.17s-5.48,37.29-26.4,41.46L276.58,79.5a10.08,10.08,0,0,1-3.85.08c-4.78-.89-12.45-11-13.84-12.11A7.37,7.37,0,0,0,253.5,66Z" fill="#f4d3eb"/><path d="M272.73,79.58c-4.78-.89-6.55-5.62-8.7-6.76a44.1,44.1,0,0,0-5.14-5.35L251,27.75a43,43,0,0,0,2.7-6.91c1.55-1.87,1.37-6.92,5.45-9.58Z" fill="#bfbfbf"/><path d="M231.89,85.49l-12.76-64A20.06,20.06,0,0,1,226,25.34c2.95,3.52,4.62,5.74,6.68,6.84l7.61,38.21c-1.47,1.8-2.16,4.5-3.54,8.88A20.27,20.27,0,0,1,231.89,85.49Z" fill="#bfbfbf"/><path d="M93.65,81.72a3.68,3.68,0,0,1-2.75,2.37,3.71,3.71,0,1,1-1.45-7.28,3.65,3.65,0,0,1,3.44,1.13" fill="none" stroke="#f4a5db" stroke-linecap="round" stroke-linejoin="round"/><polyline points="110.4 71.61 117.37 72.05 111.09 75.05 118.1 75.69 111.72 78.23 118.82 79.33" fill="none" stroke="#f4a5db" stroke-linecap="round" stroke-linejoin="round"/><line x1="134.82" y1="68.47" x2="138.9" y2="67.65" fill="none" stroke="#f4a5db" stroke-linecap="round" stroke-linejoin="round"/><line x1="135.18" y1="70.31" x2="141.07" y2="69.14" fill="none" stroke="#f4a5db" stroke-linecap="round" stroke-linejoin="round"/><line x1="135.96" y1="74.19" x2="144.5" y2="72.49" fill="none" stroke="#f4a5db" stroke-linecap="round" stroke-linejoin="round"/><line x1="94.95" y1="79.5" x2="91.15" y2="80.25" fill="#f4a5db" stroke="#f4a5db" stroke-linecap="round" stroke-linejoin="round"/><line x1="135.53" y1="72.05" x2="142.76" y2="70.61" fill="none" stroke="#f4a5db" stroke-linecap="round" stroke-linejoin="round"/><path d="M65.14,113.48c-40.21,7.46-59.36-.74-62.25-15.64s11.5-29.78,51.5-38.3Z" fill="#97d0e8" stroke="#f4a5db" stroke-linecap="round" stroke-linejoin="round" stroke-width="5"/><path d="M65.14,113.48c-40.21,7.46-59.36-.74-62.25-15.64s11.5-29.78,51.5-38.3Z" fill="none" stroke="#ff81d2" stroke-miterlimit="10" stroke-width="4"/><path d="M81.59,82.16h0a8.75,8.75,0,0,1,6.87-10.29h0a8.74,8.74,0,0,1,10.29,6.87h0A8.74,8.74,0,0,1,91.88,89h0A8.74,8.74,0,0,1,81.59,82.16Z" fill="none" stroke="#ff81d2" stroke-miterlimit="10"/><path d="M106.05,77.28h0A8.76,8.76,0,0,1,112.92,67h0a8.76,8.76,0,0,1,10.3,6.87h0a8.77,8.77,0,0,1-6.87,10.3h0A8.77,8.77,0,0,1,106.05,77.28Z" fill="none" stroke="#ff81d2" stroke-miterlimit="10"/><path d="M130.52,72.41h0a8.74,8.74,0,0,1,6.87-10.29h0A8.74,8.74,0,0,1,147.68,69h0a8.75,8.75,0,0,1-6.87,10.29h0A8.75,8.75,0,0,1,130.52,72.41Z" fill="none" stroke="#ff81d2" stroke-miterlimit="10"/><path d="M253.5,66l-8.83,1.76a8.57,8.57,0,0,0-4.36,2.63c-1.47,1.8-2.16,4.5-3.54,8.88a20.27,20.27,0,0,1-4.88,6.22c-3.42,2.91-7.59,4.37-12.19,5.34L65.14,113.48,54.39,59.54,205.82,21.2c4.62-.86,9-1.11,13.31.27A20.06,20.06,0,0,1,226,25.34c2.95,3.52,4.62,5.74,6.68,6.84a8.47,8.47,0,0,0,5,.76l8.83-1.76A7.34,7.34,0,0,0,251,27.75c.88-1.52,4.07-13.83,8.15-16.49a10.14,10.14,0,0,1,3.58-1.39L299,2.64c20.92-4.17,37.25,13,40.28,28.17s-5.48,37.29-26.4,41.46L276.58,79.5a10.08,10.08,0,0,1-3.85.08c-4.78-.89-12.45-11-13.84-12.11A7.37,7.37,0,0,0,253.5,66Z" fill="none" stroke="#ff81d2" stroke-miterlimit="10" stroke-width="4"/></g></g></svg>