<?xml version="1.0" encoding="utf-8"?>
<!-- Generator: Adobe Illustrator 21.1.0, SVG Export Plug-In . SVG Version: 6.00 Build 0)  -->
<svg version="1.1" xmlns="http://www.w3.org/2000/svg" xmlns:xlink="http://www.w3.org/1999/xlink" x="0px" y="0px"
   viewBox="0 -300.375 1169.547 1092.375" enable-background="new 0 -300.375 1169.547 1092.375" xml:space="preserve">
<g id="Wand">
  <g>
    <path fill="#F4D3EB" d="M306.53,470.435l-4.841,7.587c-0.968,1.944-1.301,3.452-1.118,4.969c0.279,2.314,1.75,4.675,3.958,8.706
      c0.944,2.797,1.262,5.384,1.105,7.823c-0.263,4.483-2.104,8.503-4.582,12.497L210.39,639.219l-46.364-29.586l77.173-135.81
      c2.579-3.93,5.449-7.294,9.404-9.42c2.146-1.169,4.627-1.971,7.561-2.293c4.586,0.305,7.347,0.644,9.563-0.078
      c1.452-0.473,2.679-1.41,4.035-3.107l4.841-7.587c0.952-2.18,1.128-3.682,0.582-5.56c-0.489-1.688-7.166-12.509-6.26-17.293
      c0.211-1.111,0.667-2.291,1.474-3.555l19.904-31.19c11.474-17.981,35.15-17.903,48.216-9.565
      c13.066,8.338,23.111,29.777,11.636,47.758l-19.904,31.19c-0.807,1.264-1.685,2.175-2.603,2.835
      c-3.957,2.837-16.584,1.339-18.321,1.607C309.394,467.861,308.106,468.653,306.53,470.435z"/>
    <path fill="#BFBFBF" d="M329.648,465.958c-3.957,2.837-8.591,0.841-10.901,1.597c-3.434-0.139-5.684-0.258-7.42,0.01
      l-34.141-21.786c-0.489-1.688-1.544-3.678-3.117-6.734c-0.287-2.413-4.049-5.775-3.144-10.559L329.648,465.958z"/>
    <path fill="#BFBFBF" d="M305.634,499.519l-55.03-35.116c2.146-1.169,4.627-1.971,7.561-2.293c4.586,0.305,7.347,0.644,9.563-0.078
      l32.843,20.958c0.279,2.314,1.75,4.675,3.958,8.706C305.472,494.493,305.79,497.081,305.634,499.519z"/>
    <path fill="none" stroke="#F4A5DB" stroke-linecap="round" stroke-linejoin="round" stroke-miterlimit="10" d="M207.211,596.668
      c0.558,1.115,0.521,2.492-0.199,3.621c-1.103,1.728-3.395,2.234-5.123,1.132c-1.728-1.103-2.234-3.395-1.132-5.123
      c0.721-1.13,1.954-1.742,3.2-1.706"/>
    <polyline fill="none" stroke="#F4A5DB" stroke-linecap="round" stroke-linejoin="round" stroke-miterlimit="10" points="
      211.514,577.576 216.652,572.847 214.465,579.458 219.782,574.844 217.205,581.207 222.911,576.841     "/>
    
      <line fill="none" stroke="#F4A5DB" stroke-linecap="round" stroke-linejoin="round" stroke-miterlimit="10" x1="226.146" y1="557.784" x2="228.387" y2="554.271"/>
    
      <line fill="none" stroke="#F4A5DB" stroke-linecap="round" stroke-linejoin="round" stroke-miterlimit="10" x1="227.73" y1="558.794" x2="230.958" y2="553.736"/>
    
      <line fill="none" stroke="#F4A5DB" stroke-linecap="round" stroke-linejoin="round" stroke-miterlimit="10" x1="231.067" y1="560.924" x2="235.751" y2="553.583"/>
    
      <line fill="#F4A5DB" stroke="#F4A5DB" stroke-linecap="round" stroke-linejoin="round" stroke-miterlimit="10" x1="206.506" y1="594.184" x2="204.422" y2="597.451"/>
    
      <line fill="none" stroke="#F4A5DB" stroke-linecap="round" stroke-linejoin="round" stroke-miterlimit="10" x1="229.223" y1="559.747" x2="233.19" y2="553.53"/>
  </g>
  
    <path fill="#97D0E8" stroke="#F4A5DB" stroke-width="5" stroke-linecap="round" stroke-linejoin="round" stroke-miterlimit="10" d="
    M210.39,639.219c-22.457,34.188-41.632,42.32-54.382,34.1c-12.826-8.101-13.528-28.918,8.018-63.687L210.39,639.219z"/>
  <path fill="none" stroke="#FF81D2" stroke-width="4" stroke-miterlimit="10" d="M210.39,639.219
    c-22.457,34.188-41.632,42.32-54.382,34.1c-12.826-8.101-13.528-28.918,8.018-63.687L210.39,639.219z"/>
  <path fill="none" stroke="#FF81D2" stroke-miterlimit="10" d="M199.177,605.67L199.177,605.67c-4.074-2.6-5.269-8.009-2.669-12.083
    v0c2.6-4.074,8.009-5.269,12.083-2.669l0,0c4.074,2.6,5.269,8.009,2.669,12.083l0,0C208.66,607.074,203.251,608.269,199.177,605.67
    z"/>
  <path fill="none" stroke="#FF81D2" stroke-miterlimit="10" d="M212.595,584.642L212.595,584.642
    c-4.074-2.6-5.269-8.009-2.669-12.083h0c2.599-4.074,8.009-5.269,12.083-2.669v0c4.074,2.599,5.269,8.009,2.669,12.083l0,0
    C222.079,586.046,216.669,587.241,212.595,584.642z"/>
  <path fill="none" stroke="#FF81D2" stroke-miterlimit="10" d="M226.014,563.614L226.014,563.614
    c-4.074-2.6-5.269-8.009-2.669-12.083l0,0c2.6-4.074,8.009-5.269,12.083-2.669l0,0c4.074,2.6,5.269,8.009,2.669,12.083v0
    C235.497,565.018,230.088,566.213,226.014,563.614z"/>
  <path fill="none" stroke="#FF81D2" stroke-width="4" stroke-miterlimit="10" d="M306.53,470.435l-4.841,7.587
    c-0.968,1.944-1.301,3.452-1.118,4.969c0.279,2.314,1.75,4.675,3.958,8.706c0.944,2.797,1.262,5.384,1.105,7.823
    c-0.263,4.483-2.104,8.503-4.582,12.497L210.39,639.219l-46.364-29.586l77.173-135.81c2.579-3.93,5.449-7.294,9.404-9.42
    c2.146-1.169,4.627-1.971,7.561-2.293c4.586,0.305,7.347,0.644,9.563-0.078c1.452-0.473,2.679-1.41,4.035-3.107l4.841-7.587
    c0.952-2.18,1.128-3.682,0.582-5.56c-0.489-1.688-7.166-12.509-6.26-17.293c0.211-1.111,0.667-2.291,1.474-3.555l19.904-31.19
    c11.474-17.981,35.15-17.903,48.216-9.565c13.066,8.338,23.111,29.777,11.636,47.758l-19.904,31.19
    c-0.807,1.264-1.685,2.175-2.603,2.835c-3.957,2.837-16.584,1.339-18.321,1.607C309.394,467.861,308.106,468.653,306.53,470.435z"
    />
  
    <path display="none" fill="#FFC9EF" stroke="#FFABE6" stroke-width="8" stroke-linecap="round" stroke-linejoin="round" stroke-miterlimit="10" d="
    M231.992,487.784c3.321,4.954,5.669,10.495,6.92,16.327c5.926,27.618-13.861,55.257-44.172,61.763
    c-30.312,6.506-59.712-10.608-65.638-38.227c-1.253-5.826-1.386-11.838-0.394-17.714"/>
  <path d="M894.996,448.025"/>
  <path d="M876.068,448.025"/>
</g>
</svg>