<svg xmlns="http://www.w3.org/2000/svg" viewBox="0 0 256.94 382.26"><defs><style>.cls-1,.cls-4{fill:#ffc9ef;stroke:#ffabe6;stroke-width:7px;}.cls-1,.cls-2,.cls-4{stroke-miterlimit:10;}.cls-2{fill:none;stroke:#000;stroke-width:3px;}.cls-2,.cls-4{stroke-linecap:round;}.cls-3{fill:#fff;}.cls-5{fill:#ff81d2;}</style></defs><title>Element 6</title><g id="Ebene_2" data-name="Ebene 2"><g id="Mr_Peen" data-name="Mr Peen"><path class="cls-1" d="M240.72,366c-6.33,10-36,21.33-47.33,1.33-8-44,43-53,49.66-35.33Q248.89,352.27,240.72,366Z"/><path class="cls-1" d="M90.05,369.32c-22,18.33-74.51,10.27-52.66-26.67C52.72,323.65,90.05,331.32,90.05,369.32Z"/><path class="cls-1" d="M250.56,297.81a115.57,115.57,0,0,1-1,12A67.41,67.41,0,0,1,243.05,332c-6.66-17.67-57.66-8.67-49.66,35.33-17.24.79-35.7-1.79-55-6.67a164.3,164.3,0,0,1-48.34,8.67c0-38-37.33-45.67-52.66-26.67a110.59,110.59,0,0,1-8.89-18.07,104.32,104.32,0,0,1-3.93-12.48,91.68,91.68,0,0,1-2.52-30.78l8.68-75.4.44-.83c30.62,5.18,77.59-17.42,92.3-50.77,15.33,31.58,74.85,46.72,107.76,35l.23.31C243.4,231.19,251.45,268.87,250.56,297.81Z"/><path class="cls-1" d="M231.23,189.37c-32.91,11.67-92.43-3.47-107.76-35-14.71,33.35-61.68,56-92.3,50.77C11.11,201.7-1.94,186.37,5.72,154.32c20.59-82.51,49-146.82,105-147,51-20,114,40,142,147C256.21,172.58,246.63,183.92,231.23,189.37Z"/><path class="cls-2" d="M121.48,122.07c0,.25.07.51.08.76.48,6.61-5.55,12.44-13.46,13s-14.71-4.34-15.18-10.95c0-.25,0-.51,0-.76"/><path class="cls-2" d="M121.51,122.06c.48,6.61,7.27,11.52,15.18,10.95s13.94-6.4,13.46-13"/><circle cx="50.89" cy="98.24" r="8.5"/><circle class="cls-3" cx="53.04" cy="93.82" r="1.69"/><circle class="cls-3" cx="55.83" cy="96.61" r="1.11"/><circle cx="194.54" cy="89.74" r="8.5"/><circle class="cls-3" cx="196.68" cy="85.32" r="1.69"/><circle class="cls-3" cx="199.48" cy="88.11" r="1.11"/><path class="cls-4" d="M92.75,235.43a22.7,22.7,0,0,1,3.34,7.88c2.86,13.33-6.69,26.67-21.32,29.81S45.95,268,43.09,254.67a22.7,22.7,0,0,1-.19-8.55"/><path class="cls-4" d="M221.25,242.87a22.7,22.7,0,0,1-1.94,8.33c-5.54,12.45-21.11,17.61-34.79,11.52s-20.27-21.11-14.73-33.56a22.7,22.7,0,0,1,4.89-7"/><ellipse class="cls-5" cx="49.6" cy="120" rx="21.38" ry="7.38"/><ellipse class="cls-5" cx="194.54" cy="110.75" rx="21.38" ry="7.38"/></g></g></svg>